{"glyphs":{"0":{"ha":806,"x_min":69,"x_max":736,"o":"m 151 117 q 110 183 151 117 q 69 453 69 249 q 151 788 69 657 q 403 919 233 919 q 654 788 572 919 q 736 453 736 657 q 654 117 736 249 q 403 -14 572 -14 q 151 117 233 -14 m 403 69 q 501 69 403 69 q 599 453 599 69 q 403 836 599 836 q 207 453 207 836 q 403 69 207 69 z "},"1":{"ha":540,"x_min":33,"x_max":468,"o":"m 229 190 l 229 728 l 71 646 l 33 704 q 213 846 196 832 q 275 917 231 860 l 289 933 l 354 917 q 344 592 344 661 l 344 232 q 354 85 344 153 l 468 75 l 458 -7 q 274 0 385 0 l 86 -7 l 79 63 l 217 85 q 229 190 229 167 z "},"2":{"ha":715,"x_min":50,"x_max":660,"o":"m 79 869 q 336 919 206 919 q 541 860 467 919 q 615 688 615 801 q 529 459 615 574 q 179 101 443 344 l 440 101 q 557 113 454 101 l 576 161 l 583 226 l 660 221 l 647 24 l 621 -4 q 453 0 486 0 l 69 0 l 50 101 q 338 401 253 306 q 453 554 422 497 q 483 680 483 611 q 439 795 483 749 q 323 842 394 842 q 185 803 251 842 q 171 732 171 758 l 174 669 l 97 665 l 79 869 z "},"3":{"ha":653,"x_min":18,"x_max":576,"o":"m 42 879 q 277 919 158 919 q 467 861 396 919 q 538 693 538 803 q 494 558 538 617 q 372 465 451 499 q 524 378 471 438 q 576 233 576 318 q 428 -14 576 92 q 43 -146 281 -119 l 18 -72 q 327 43 210 -42 q 444 231 444 128 q 392 354 444 307 q 254 401 340 401 l 158 397 l 139 464 q 407 674 407 497 q 368 800 407 756 q 262 844 329 844 q 147 814 194 844 q 133 744 133 758 l 136 682 l 60 678 l 42 879 z "},"4":{"ha":735,"x_min":7,"x_max":664,"o":"m 664 279 l 536 279 l 536 232 q 546 85 536 153 l 661 75 l 651 -7 q 471 0 582 0 l 279 -7 l 272 63 l 415 85 q 428 190 428 172 l 428 279 l 68 279 l 7 353 l 507 1026 l 603 956 q 410 742 431 774 l 150 353 l 428 357 l 428 554 l 536 592 l 536 364 l 664 372 l 664 279 z "},"5":{"ha":642,"x_min":58,"x_max":593,"o":"m 275 794 l 186 794 q 169 493 174 618 q 283 506 226 506 q 510 438 428 506 q 593 244 593 371 q 452 -22 593 79 q 83 -146 311 -122 l 58 -72 q 351 29 240 -46 q 461 231 461 104 q 409 366 461 319 q 258 413 357 413 q 125 394 201 413 l 74 424 l 97 881 l 124 906 l 218 906 l 556 919 l 564 826 q 275 794 317 794 z "},"6":{"ha":725,"x_min":63,"x_max":690,"o":"m 401 560 q 613 485 536 560 q 690 281 690 411 q 601 68 690 151 q 372 -15 513 -15 q 147 83 231 -15 q 63 342 63 181 q 207 771 63 572 q 393 939 278 868 q 653 1038 508 1010 l 669 967 q 442 859 539 929 q 294 703 346 789 q 193 342 193 535 q 242 147 193 231 q 377 64 290 64 q 511 127 464 64 q 558 278 558 190 q 515 422 558 365 q 389 478 471 478 l 299 471 l 290 538 q 401 560 356 560 z "},"7":{"ha":703,"x_min":83,"x_max":685,"o":"m 292 906 l 663 906 l 685 851 l 288 -146 l 179 -111 l 476 586 q 538 804 488 610 l 304 804 q 186 796 274 804 q 167 749 169 761 l 160 679 l 83 685 l 96 890 l 122 918 q 292 906 258 906 z "},"8":{"ha":722,"x_min":56,"x_max":667,"o":"m 251 482 q 130 583 174 526 q 86 733 86 639 q 167 887 86 826 q 360 947 247 947 q 555 886 474 947 q 636 721 636 825 q 467 483 636 588 q 613 374 560 433 q 667 225 667 314 q 579 49 667 111 q 361 -14 492 -14 q 143 48 231 -14 q 56 228 56 110 q 251 482 56 369 m 182 228 q 233 100 182 149 q 360 51 283 51 q 488 99 436 51 q 540 222 540 147 q 475 350 540 297 q 336 439 426 389 q 324 444 328 442 q 182 228 182 344 m 515 721 q 471 835 515 789 q 363 882 426 882 q 253 835 300 882 q 207 726 207 789 q 289 583 207 640 q 400 517 325 558 l 401 515 q 515 721 515 610 z "},"9":{"ha":729,"x_min":35,"x_max":667,"o":"m 332 344 q 118 421 201 344 q 35 624 35 497 q 123 835 35 751 q 353 919 211 919 q 581 819 496 919 q 667 557 667 719 q 531 125 667 319 q 348 -45 463 28 q 86 -149 233 -118 l 67 -76 q 293 37 199 -35 q 438 197 388 108 q 531 557 531 361 q 481 755 531 669 q 345 840 432 840 q 214 778 258 840 q 169 629 169 715 q 219 485 169 543 q 335 426 268 426 q 431 431 401 426 l 440 365 q 332 344 392 344 z "}," ":{"ha":311,"x_min":0,"x_max":0,"o":""},"!":{"ha":318,"x_min":97,"x_max":261,"o":"m 240 11 q 229 -1 240 11 q 179 -14 218 -14 q 119 10 140 -14 q 97 75 97 33 q 119 141 97 117 q 179 165 140 165 q 240 141 218 165 q 261 76 261 117 q 240 11 261 36 m 231 310 l 221 301 q 121 306 196 306 q 122 397 122 356 l 110 990 l 235 1000 l 261 975 q 226 428 226 646 l 231 310 z "},"\"":{"ha":415,"x_min":49,"x_max":367,"o":"m 49 1050 l 172 1050 l 154 713 l 74 717 l 75 847 l 49 1050 m 243 1050 l 367 1050 l 349 713 l 268 717 l 269 847 l 243 1050 z "},"#":{"ha":792,"x_min":44,"x_max":760,"o":"m 732 208 l 533 208 l 497 -21 l 414 -7 l 447 208 l 294 208 l 258 -21 l 175 -7 l 208 208 l 44 208 l 44 300 l 224 301 l 250 469 l 72 468 l 72 567 l 265 567 l 301 794 l 385 781 l 350 567 l 504 567 l 540 794 l 624 781 l 589 567 l 760 567 l 760 475 l 575 472 l 549 304 l 732 307 l 732 208 m 335 471 l 308 303 l 463 304 l 489 472 l 335 471 z "},"$":{"ha":724,"x_min":69,"x_max":654,"o":"m 294 425 q 135 531 196 472 q 75 693 75 590 q 152 857 75 796 q 354 918 229 918 l 357 918 l 363 1054 l 410 1050 l 404 915 q 608 876 481 908 l 588 676 l 513 685 l 514 750 q 496 818 514 756 q 401 843 447 838 l 388 526 q 607 375 563 436 q 654 233 654 313 q 574 55 654 119 q 367 -14 493 -10 l 363 -128 l 314 -124 l 318 -12 q 188 8 250 -8 q 97 39 126 25 l 69 54 l 90 263 l 176 254 l 175 179 q 189 99 175 168 q 322 67 258 72 l 336 406 l 294 425 m 369 67 q 478 112 439 72 q 518 212 518 151 q 483 310 518 272 q 382 382 447 347 l 369 67 m 350 846 q 245 810 286 846 q 204 716 204 774 q 239 622 204 658 q 342 550 274 586 l 354 846 l 350 846 z "},"%":{"ha":1090,"x_min":57,"x_max":1004,"o":"m 474 685 l 474 683 q 419 511 474 579 q 265 443 364 443 q 112 511 167 443 q 57 684 57 579 q 112 857 57 789 q 265 925 167 925 q 419 857 364 925 q 474 685 474 789 m 265 851 q 238 851 265 851 q 185 803 210 851 q 161 684 161 754 q 185 565 161 614 q 265 517 210 517 q 345 565 321 517 q 369 684 369 614 q 345 803 369 754 q 265 851 321 851 m 1004 226 l 1004 225 q 949 53 1004 121 q 796 -15 894 -15 q 642 53 697 -15 q 588 226 588 121 q 642 399 588 331 q 796 467 697 467 q 949 399 894 467 q 1004 226 1004 331 m 796 393 q 768 393 796 393 q 716 344 740 393 q 692 226 692 296 q 716 107 692 156 q 796 58 740 58 q 876 107 851 58 q 900 226 900 156 q 876 344 900 296 q 796 393 851 393 m 271 -68 l 200 -24 l 803 1001 l 872 957 l 271 -68 z "},"&":{"ha":1007,"x_min":69,"x_max":967,"o":"m 422 919 q 538 905 469 919 q 642 876 606 890 l 624 682 l 547 686 q 550 750 550 740 l 536 817 q 428 851 492 851 q 328 817 364 851 q 292 730 292 782 q 321 622 292 678 q 411 497 350 567 q 667 246 501 397 q 689 388 689 304 q 676 467 689 411 l 582 475 l 590 556 l 717 556 l 886 563 l 893 489 l 786 467 q 779 371 779 418 q 735 183 779 265 l 776 144 q 857 85 781 140 l 967 75 l 957 -7 q 778 0 889 0 l 749 0 l 738 35 l 674 99 q 383 -14 561 -14 q 160 62 250 -14 q 69 264 69 138 q 243 536 69 433 q 169 733 169 640 q 238 872 169 825 q 422 919 307 919 m 193 274 q 247 128 193 186 q 385 69 300 69 q 613 156 533 69 q 530 233 586 181 q 442 315 474 285 q 293 471 353 400 q 193 274 193 394 z "},"'":{"ha":221,"x_min":49,"x_max":172,"o":"m 49 1050 l 172 1050 l 154 713 l 74 717 l 75 847 l 49 1050 z "},"(":{"ha":376,"x_min":69,"x_max":363,"o":"m 265 876 q 183 440 183 660 q 265 4 183 221 q 342 -119 276 -21 l 363 -151 l 318 -187 q 69 440 69 61 q 318 1068 69 819 l 363 1032 q 265 876 276 906 z "},")":{"ha":376,"x_min":14,"x_max":307,"o":"m 111 4 q 193 440 193 221 q 111 876 193 660 q 36 1000 100 901 l 14 1032 l 58 1068 q 307 440 307 819 q 58 -187 307 61 l 14 -151 q 111 4 100 -25 z "},"*":{"ha":568,"x_min":60,"x_max":507,"o":"m 249 951 l 249 1029 l 308 1036 l 325 871 q 403 903 399 900 l 471 942 l 507 893 l 371 796 q 438 744 424 751 l 506 706 l 482 650 l 329 718 q 318 633 318 649 l 318 557 l 258 550 l 242 715 q 163 683 181 692 l 96 644 l 60 693 l 194 790 l 128 843 l 61 881 l 85 936 l 236 867 q 249 951 249 944 z "},"+":{"ha":778,"x_min":31,"x_max":746,"o":"m 336 0 l 336 306 l 31 303 l 31 407 l 336 407 l 336 710 l 433 710 l 436 407 l 746 407 l 746 310 l 436 306 l 440 0 l 336 0 z "},",":{"ha":306,"x_min":47,"x_max":243,"o":"m 146 -14 q 90 17 110 -11 q 69 85 69 44 q 92 152 69 125 q 156 179 115 179 q 243 56 243 179 q 195 -99 243 -28 q 61 -189 147 -171 l 47 -144 q 146 -14 146 -103 z "},"-":{"ha":392,"x_min":42,"x_max":350,"o":"m 44 300 l 42 404 l 350 404 l 343 300 l 44 300 z "},".":{"ha":296,"x_min":56,"x_max":233,"o":"m 79 152 q 91 166 79 152 q 144 179 103 179 q 210 153 186 179 q 233 83 233 128 q 210 13 233 39 q 144 -14 186 -14 q 79 13 103 -14 q 56 82 56 39 q 79 152 56 125 z "},"/":{"ha":522,"x_min":10,"x_max":529,"o":"m 99 -93 l 10 -65 l 442 1074 l 529 1046 l 99 -93 z "},":":{"ha":282,"x_min":56,"x_max":219,"o":"m 77 631 q 88 643 77 631 q 138 656 99 656 q 198 632 176 656 q 219 567 219 608 q 198 501 219 525 q 138 476 176 476 q 77 501 99 476 q 56 565 56 525 q 77 631 56 606 m 77 140 q 88 153 77 140 q 138 165 99 165 q 198 142 176 165 q 219 76 219 118 q 198 10 219 35 q 138 -14 176 -14 q 77 10 99 -14 q 56 75 56 35 q 77 140 56 115 z "},";":{"ha":306,"x_min":47,"x_max":243,"o":"m 94 631 q 105 643 94 631 q 154 656 115 656 q 215 632 193 656 q 236 567 236 608 q 215 501 236 525 q 154 476 193 476 q 94 501 115 476 q 72 565 72 525 q 94 631 72 606 m 146 -14 q 90 17 110 -11 q 69 85 69 44 q 92 152 69 125 q 156 179 115 179 q 243 56 243 179 q 195 -99 243 -28 q 61 -189 147 -171 l 47 -144 q 146 -14 146 -103 z "},"<":{"ha":778,"x_min":142,"x_max":636,"o":"m 142 343 l 561 713 l 635 639 l 283 344 l 636 53 l 563 -21 l 142 343 z "},"=":{"ha":778,"x_min":72,"x_max":704,"o":"m 72 525 l 704 525 l 704 433 l 72 426 l 72 525 m 704 165 l 72 165 l 72 257 l 704 264 l 704 165 z "},">":{"ha":778,"x_min":142,"x_max":636,"o":"m 217 713 l 636 343 l 215 -21 l 142 53 l 494 344 l 143 639 l 217 713 z "},"?":{"ha":560,"x_min":46,"x_max":569,"o":"m 276 11 q 265 -1 276 11 q 215 -14 254 -14 q 155 10 176 -14 q 133 75 133 33 q 155 141 133 117 q 215 165 176 165 q 276 141 254 165 q 297 76 297 117 q 276 11 297 36 m 264 517 q 392 570 346 517 q 439 715 439 624 q 394 868 439 806 q 273 931 350 931 q 149 894 196 931 q 140 814 140 865 l 143 764 l 63 764 l 46 956 q 264 1010 164 1010 q 488 930 406 1010 q 569 716 569 850 q 482 507 569 582 q 261 432 394 432 l 267 310 l 257 301 q 163 306 232 306 l 157 310 l 157 489 l 193 522 q 264 517 235 517 z "},"@":{"ha":1267,"x_min":56,"x_max":1211,"o":"m 804 110 q 710 22 776 58 q 563 -14 643 -14 q 433 36 483 -14 q 382 171 382 86 q 542 343 382 303 q 790 386 596 357 l 790 432 q 660 624 790 624 q 531 597 583 624 q 518 532 518 535 l 518 482 l 438 478 l 422 665 q 676 699 547 699 q 854 627 806 699 q 903 404 903 556 l 903 190 l 919 64 q 1025 135 982 78 q 1099 399 1099 235 q 976 732 1099 606 q 640 858 853 858 q 442 819 528 858 q 308 721 356 779 q 231 586 260 663 q 182 332 182 461 q 208 108 182 203 q 286 -58 233 14 q 647 -210 397 -210 q 856 -168 690 -210 l 910 -154 l 932 -197 q 647 -296 719 -296 q 407 -258 513 -296 q 237 -161 301 -221 q 131 -19 172 -101 q 56 322 56 126 q 139 664 56 515 q 249 800 183 743 q 416 892 315 857 q 640 926 517 926 q 1057 786 903 926 q 1211 399 1211 646 q 1113 128 1211 247 q 847 -6 1015 8 l 822 14 l 804 110 m 504 178 q 617 75 504 75 q 727 119 675 75 q 790 232 779 164 l 790 315 q 592 278 644 292 q 504 178 504 256 z "},"A":{"ha":922,"x_min":14,"x_max":917,"o":"m 917 75 l 910 0 l 769 0 l 571 -7 l 565 61 l 667 89 l 629 239 l 600 322 l 294 322 l 250 176 l 236 89 l 333 75 l 326 0 l 207 0 l 19 -7 l 14 61 l 101 85 l 161 222 l 410 979 l 490 993 l 776 207 l 831 89 l 917 75 m 442 774 l 319 392 l 572 397 l 442 774 z "},"B":{"ha":831,"x_min":67,"x_max":768,"o":"m 218 979 l 461 993 q 649 929 574 993 q 725 765 725 865 q 672 599 725 664 q 532 514 618 535 l 532 504 q 703 423 639 488 q 768 247 768 358 q 687 65 768 136 q 485 -7 606 -7 l 218 0 l 74 -7 l 67 63 l 168 85 q 181 190 181 167 l 181 789 q 168 894 181 814 l 69 911 l 76 986 q 218 979 179 981 m 307 747 l 307 232 q 315 82 307 132 q 442 74 385 74 q 577 124 526 74 q 628 269 628 174 q 561 417 628 365 q 394 468 494 468 l 379 468 l 389 547 l 399 547 q 540 597 485 547 q 596 733 596 647 q 551 869 596 819 q 432 918 506 918 q 317 910 386 918 q 307 747 307 847 z "},"C":{"ha":847,"x_min":58,"x_max":799,"o":"m 499 -21 q 172 117 285 -21 q 58 489 58 256 q 172 861 58 722 q 499 1000 285 1000 q 786 953 600 1000 l 772 747 l 690 753 l 690 818 q 674 888 690 832 q 499 919 578 919 q 278 799 354 919 q 201 490 201 679 q 278 181 201 301 q 497 60 354 60 q 686 90 588 60 q 706 168 706 154 l 708 233 l 790 236 l 799 26 q 499 -21 613 -21 z "},"D":{"ha":1001,"x_min":58,"x_max":943,"o":"m 464 -8 l 229 0 l 65 -7 l 58 63 l 168 85 q 181 190 181 167 l 181 789 q 168 894 181 814 l 61 911 l 68 986 q 204 979 157 982 q 326 987 240 981 q 464 993 413 993 q 818 858 693 993 q 943 494 943 724 q 815 128 943 264 q 464 -8 686 -8 m 465 910 q 317 903 375 910 q 307 747 307 811 l 307 232 q 317 79 307 118 q 465 74 389 74 q 719 190 632 74 q 806 490 806 307 q 719 792 806 674 q 465 910 632 910 z "},"E":{"ha":817,"x_min":58,"x_max":764,"o":"m 229 979 l 540 979 l 699 993 l 725 968 l 735 779 l 654 772 q 644 833 650 806 q 611 894 638 861 q 499 901 535 901 l 317 901 q 307 747 307 799 l 307 550 q 367 547 354 547 l 468 547 l 551 560 l 564 651 l 628 644 q 626 528 626 556 l 631 376 l 564 368 l 551 461 q 440 469 468 469 l 367 469 q 307 465 342 469 l 307 232 q 317 79 307 172 l 517 79 q 638 92 569 79 q 666 138 664 128 q 677 186 668 149 q 688 236 686 224 l 764 229 l 743 19 l 717 -6 q 558 0 586 0 l 229 0 l 65 -7 l 58 63 l 168 85 q 181 190 181 167 l 181 789 q 168 894 181 814 l 61 911 l 68 986 q 229 979 201 979 z "},"F":{"ha":767,"x_min":58,"x_max":735,"o":"m 499 901 l 317 901 q 307 747 307 799 l 307 539 q 367 536 354 536 l 468 536 l 551 549 l 564 640 l 628 633 q 626 517 626 544 l 631 365 l 564 357 l 551 450 q 440 458 468 458 l 367 458 q 307 454 342 458 l 307 232 q 317 85 307 153 l 456 75 l 446 -7 q 229 0 340 0 l 65 -7 l 58 63 l 168 85 q 181 190 181 167 l 181 789 q 168 894 181 814 l 61 911 l 68 986 q 229 979 201 979 l 540 979 l 699 993 l 725 968 l 735 779 l 654 772 q 644 833 650 806 q 611 894 638 861 q 499 901 535 901 z "},"G":{"ha":925,"x_min":58,"x_max":853,"o":"m 522 1000 q 828 953 631 1000 l 813 747 l 732 756 l 732 818 q 715 886 732 831 q 518 919 603 919 q 281 799 363 919 q 199 490 199 679 q 281 180 199 300 q 518 60 363 60 q 713 88 608 60 q 729 178 729 160 l 729 272 l 715 371 l 568 382 l 575 463 l 729 463 l 828 467 l 853 443 q 840 231 840 300 l 840 26 q 522 -21 643 -21 q 178 117 297 -21 q 58 489 58 256 q 178 861 58 722 q 522 1000 297 1000 z "},"H":{"ha":1074,"x_min":58,"x_max":1028,"o":"m 893 747 l 893 232 q 903 85 893 153 l 1028 75 l 1018 -7 q 815 0 926 0 l 651 -7 l 644 63 l 754 85 q 767 190 767 165 l 767 454 l 307 454 l 307 232 q 317 85 307 153 l 442 75 l 432 -7 q 229 0 340 0 l 65 -7 l 58 63 l 168 85 q 181 190 181 167 l 181 789 q 168 894 181 814 l 61 911 l 68 986 q 229 979 201 979 l 419 986 l 425 904 l 317 894 q 307 747 307 826 l 307 525 l 767 532 l 767 789 q 754 894 767 814 l 647 911 l 654 986 q 815 979 788 979 l 1006 986 l 1011 904 l 903 894 q 893 747 893 826 z "},"I":{"ha":504,"x_min":67,"x_max":450,"o":"m 315 747 l 315 232 q 325 85 315 153 l 450 75 l 440 -7 q 238 0 349 0 l 74 -7 l 67 63 l 176 85 q 189 190 189 167 l 189 789 q 176 894 189 814 l 69 911 l 76 986 q 238 979 210 979 l 428 986 l 433 904 l 325 894 q 315 747 315 826 z "},"J":{"ha":461,"x_min":56,"x_max":419,"o":"m 301 747 l 301 -14 q 111 -278 301 -51 l 64 -247 q 175 15 175 -12 l 175 789 q 163 894 175 814 l 56 911 l 63 986 q 224 979 196 979 l 414 986 l 419 904 l 311 894 q 301 747 301 826 z "},"K":{"ha":969,"x_min":58,"x_max":956,"o":"m 956 75 l 946 -7 q 750 0 861 0 l 572 -7 l 565 63 l 647 82 q 550 228 586 181 l 321 490 l 574 801 l 628 896 l 553 911 l 560 986 q 707 979 679 979 l 883 986 l 889 904 l 783 894 q 642 758 711 828 l 458 514 q 551 408 492 475 q 659 285 610 342 q 741 191 708 228 q 858 85 774 154 l 956 75 m 307 747 l 307 232 q 317 85 307 153 l 442 75 l 432 -7 q 229 0 340 0 l 65 -7 l 58 63 l 168 85 q 181 190 181 167 l 181 789 q 168 894 181 814 l 61 911 l 68 986 q 229 979 201 979 l 419 986 l 425 904 l 317 894 q 307 747 307 826 z "},"L":{"ha":742,"x_min":58,"x_max":728,"o":"m 307 747 l 307 232 q 317 79 307 153 l 481 79 q 601 92 533 79 q 631 143 629 131 q 651 236 647 208 l 728 229 l 707 19 l 681 -6 q 522 0 550 0 l 229 0 l 65 -7 l 58 63 l 168 85 q 181 190 181 167 l 181 789 q 168 894 181 814 l 61 911 l 68 986 q 229 979 201 979 l 419 986 l 425 904 l 317 894 q 307 747 307 826 z "},"M":{"ha":1289,"x_min":38,"x_max":1260,"o":"m 936 979 l 972 979 l 1188 986 l 1193 904 l 1082 894 q 1078 790 1078 869 l 1125 183 q 1147 85 1126 174 l 1260 75 l 1251 -7 q 1049 0 1160 0 l 883 -7 l 876 63 l 985 85 q 992 225 992 189 l 954 811 l 650 0 l 600 0 l 296 811 l 263 225 q 269 85 263 196 l 382 75 l 372 -7 q 193 0 301 0 l 44 -7 l 38 63 l 146 85 q 153 111 147 90 q 169 183 167 168 l 206 790 q 200 894 206 856 l 86 911 l 93 986 l 285 981 l 363 981 l 389 951 q 461 735 449 768 l 646 243 l 835 746 l 908 951 l 936 979 z "},"N":{"ha":1057,"x_min":57,"x_max":1036,"o":"m 906 733 l 906 413 l 904 -10 l 821 -10 l 274 772 l 274 232 q 283 85 274 153 l 396 75 l 386 -7 q 215 0 326 0 l 65 -7 l 58 63 l 168 85 q 181 190 181 167 l 181 789 q 168 894 181 800 l 57 911 l 64 986 q 225 979 197 979 l 286 981 l 314 951 q 449 736 428 767 l 813 226 l 813 775 q 800 890 813 815 l 690 899 l 699 982 l 813 979 l 1029 986 l 1036 913 l 926 890 q 906 733 906 792 z "},"O":{"ha":1028,"x_min":58,"x_max":969,"o":"m 852 861 q 911 792 852 861 q 969 489 969 722 q 852 117 969 256 q 514 -21 735 -21 q 176 117 293 -21 q 58 489 58 256 q 176 861 58 722 q 514 1000 293 1000 q 852 861 735 1000 m 286 803 q 247 742 286 803 q 207 489 207 681 q 286 175 207 297 q 514 53 365 53 q 742 175 663 53 q 821 489 821 297 q 742 803 821 681 q 514 926 663 926 q 286 803 365 926 z "},"P":{"ha":814,"x_min":58,"x_max":772,"o":"m 206 979 l 463 993 q 690 918 608 993 q 772 702 772 843 q 674 483 772 561 q 431 404 576 404 q 307 406 346 404 l 307 232 q 317 85 307 153 l 447 75 l 438 -7 q 229 0 340 0 l 65 -7 l 58 63 l 168 85 q 181 190 181 167 l 181 789 q 168 894 181 814 l 61 911 l 68 986 q 206 979 158 981 m 307 747 l 307 479 q 403 474 379 474 q 578 531 514 474 q 642 697 642 588 q 578 865 642 807 q 404 924 515 924 q 317 917 376 924 q 307 747 307 832 z "},"Q":{"ha":1035,"x_min":58,"x_max":1011,"o":"m 514 -21 q 176 117 293 -21 q 58 489 58 256 q 176 861 58 722 q 514 1000 293 1000 q 852 861 735 1000 q 969 489 969 722 q 893 174 969 303 q 671 1 817 46 l 792 -83 q 961 -161 811 -97 l 1011 -183 l 929 -311 l 565 -18 q 514 -21 532 -21 m 286 803 q 247 742 286 803 q 207 489 207 681 q 286 175 207 297 q 514 53 365 53 q 742 175 663 53 q 821 489 821 297 q 742 803 821 681 q 514 926 663 926 q 286 803 365 926 z "},"R":{"ha":897,"x_min":58,"x_max":881,"o":"m 207 979 l 461 993 q 688 920 607 993 q 768 706 768 847 q 713 538 768 607 q 565 439 657 469 q 713 182 669 240 q 781 85 725 161 l 881 75 l 871 -7 q 651 0 763 0 q 575 161 593 128 l 439 418 l 429 418 q 307 419 344 418 l 307 232 q 317 85 307 153 l 442 75 l 432 -7 q 229 0 340 0 l 65 -7 l 58 63 l 168 85 q 181 190 181 167 l 181 789 q 168 894 181 807 l 61 911 l 68 986 q 207 979 161 982 m 403 924 q 318 915 388 924 q 307 747 307 846 l 307 493 q 401 488 376 488 q 574 542 511 488 q 638 704 638 597 q 575 867 638 811 q 403 924 513 924 z "},"S":{"ha":776,"x_min":69,"x_max":707,"o":"m 182 192 q 197 100 182 167 q 377 63 292 63 q 512 108 463 63 q 561 236 561 153 q 526 332 561 289 q 438 402 490 375 q 324 463 386 429 q 210 528 263 496 q 123 617 158 561 q 88 743 88 672 q 172 932 88 864 q 374 1000 256 1000 q 669 956 492 1000 l 650 746 l 568 754 l 568 815 q 550 893 568 824 q 398 924 479 924 q 272 883 317 924 q 226 769 226 843 q 322 626 226 686 q 415 574 364 600 q 518 519 467 549 q 612 456 569 490 q 681 369 654 421 q 707 253 707 317 q 614 49 707 119 q 375 -21 521 -21 q 215 -2 292 -21 q 104 35 139 17 l 69 53 l 90 267 l 182 258 l 182 192 z "},"T":{"ha":826,"x_min":14,"x_max":813,"o":"m 350 789 q 338 901 350 826 l 250 901 q 138 894 214 901 q 106 838 111 861 q 94 761 101 815 l 14 768 l 24 968 l 50 993 q 208 979 181 979 l 618 979 l 776 993 l 803 968 l 813 768 l 732 761 q 720 838 725 815 q 689 894 715 861 q 576 901 613 901 l 486 901 q 476 747 476 804 l 476 232 q 486 85 476 153 l 611 75 l 601 -7 q 399 0 510 0 l 235 -7 l 228 63 l 338 85 q 350 190 350 167 l 350 789 z "},"U":{"ha":1010,"x_min":24,"x_max":983,"o":"m 864 740 l 864 369 q 772 83 864 188 q 504 -21 679 -21 q 238 83 329 -21 q 146 369 146 188 l 146 782 q 133 894 146 800 l 24 911 l 31 986 q 192 979 164 979 l 392 986 l 397 904 l 288 894 q 278 740 278 822 l 278 369 q 339 150 278 232 q 519 68 400 68 q 701 151 638 68 q 764 369 764 233 l 764 782 q 750 894 764 797 l 642 911 l 649 986 q 796 979 768 979 l 978 986 l 983 904 l 874 894 q 864 740 864 822 z "},"V":{"ha":963,"x_min":-1,"x_max":956,"o":"m 449 0 l 150 772 q 100 872 135 814 l 90 890 l -1 904 l 6 979 l 157 979 l 361 986 l 367 918 l 257 890 q 299 740 268 819 l 503 206 l 710 803 l 725 890 l 619 904 l 626 979 l 751 979 l 950 986 l 956 918 l 861 894 q 797 757 824 832 l 533 0 l 449 0 z "},"W":{"ha":1404,"x_min":1,"x_max":1401,"o":"m 1401 918 l 1307 894 q 1243 757 1260 811 l 1015 0 l 931 0 l 699 703 l 488 0 l 403 0 l 149 772 q 103 874 133 822 l 93 890 l 1 904 l 8 979 l 160 979 l 364 986 l 369 918 l 260 890 q 297 740 276 811 l 457 206 l 676 951 l 750 951 l 985 206 l 1156 803 l 1171 890 l 1065 904 l 1072 979 l 1197 979 l 1396 986 l 1401 918 z "},"X":{"ha":997,"x_min":25,"x_max":989,"o":"m 425 493 l 225 775 q 139 890 196 815 l 26 904 l 36 981 q 160 979 132 979 l 419 986 l 426 921 l 317 890 q 374 771 357 793 l 506 586 l 640 803 q 686 890 653 824 l 578 904 l 588 981 q 699 979 660 979 l 938 986 l 944 921 l 849 899 q 739 790 763 819 l 560 511 l 794 183 q 879 89 825 144 l 989 75 l 979 -1 q 868 0 889 0 l 613 -7 l 606 58 l 697 83 q 635 197 663 161 l 478 418 l 319 183 q 271 89 304 160 l 382 75 l 372 -1 q 261 0 292 0 l 32 -7 l 25 58 l 110 82 q 243 228 224 201 l 425 493 z "},"Y":{"ha":921,"x_min":8,"x_max":896,"o":"m 519 232 q 529 85 519 153 l 654 75 l 644 -7 q 442 0 553 0 l 278 -7 l 271 63 l 381 85 q 393 190 393 165 l 393 357 l 178 772 q 114 874 151 826 l 100 890 l 8 904 l 15 979 l 167 979 l 371 986 l 376 918 l 267 890 q 326 740 282 822 l 467 478 l 626 803 l 665 890 l 560 904 l 567 979 l 692 979 l 890 986 l 896 918 l 801 894 q 714 757 751 829 l 519 379 l 519 232 z "},"Z":{"ha":774,"x_min":38,"x_max":736,"o":"m 300 897 q 181 890 257 897 l 158 843 q 140 726 146 796 l 60 733 l 69 968 l 96 993 q 254 979 226 979 l 714 979 l 724 901 l 574 686 l 308 265 l 207 82 l 489 82 q 611 94 542 82 q 644 162 636 128 q 660 250 653 196 l 736 243 l 715 19 l 689 -6 q 531 0 558 0 l 47 0 l 38 79 q 193 304 151 238 l 457 722 l 554 897 l 300 897 z "},"[":{"ha":368,"x_min":104,"x_max":354,"o":"m 118 125 l 118 765 l 104 1032 l 131 1058 l 350 1064 l 354 1004 l 238 988 q 218 835 218 904 l 218 56 q 233 -75 218 -6 l 238 -97 l 354 -114 l 350 -174 q 131 -168 226 -168 l 104 -142 q 118 125 118 97 z "},"\\":{"ha":553,"x_min":10,"x_max":529,"o":"m 529 -65 l 440 -93 l 10 1046 l 97 1074 l 529 -65 z "},"]":{"ha":368,"x_min":14,"x_max":264,"o":"m 250 765 l 250 125 l 264 -142 l 238 -168 l 18 -174 l 14 -114 l 131 -97 q 150 56 150 -14 l 150 835 q 136 964 150 896 l 131 988 l 14 1004 l 18 1064 q 238 1058 142 1058 l 264 1032 q 250 765 250 793 z "},"^":{"ha":778,"x_min":14,"x_max":764,"o":"m 389 854 l 101 435 l 14 496 l 389 1011 l 764 496 l 676 435 l 389 854 z "},"_":{"ha":700,"x_min":0,"x_max":700,"o":"m 3 -322 l 0 -218 l 700 -218 l 693 -322 l 3 -322 z "},"`":{"ha":500,"x_min":92,"x_max":407,"o":"m 407 840 l 361 783 l 260 867 l 92 965 l 157 1049 l 407 840 z "},"a":{"ha":717,"x_min":63,"x_max":693,"o":"m 485 110 q 395 22 458 57 q 251 -14 332 -14 q 117 34 171 -14 q 63 164 63 82 q 249 349 63 318 l 471 386 l 471 432 q 340 624 471 624 q 208 596 267 624 l 199 538 l 199 481 l 118 476 l 103 665 q 353 699 228 699 q 531 631 478 699 q 583 404 583 564 l 583 232 q 594 106 583 171 l 597 85 l 693 75 l 683 -7 q 504 0 615 0 l 485 110 m 272 278 q 185 176 185 264 q 211 103 185 132 q 297 75 238 75 q 408 119 356 75 q 471 232 460 164 l 471 315 l 272 278 z "},"b":{"ha":769,"x_min":14,"x_max":714,"o":"m 149 1050 l 229 1050 l 256 1025 q 246 813 246 882 l 246 593 q 444 699 315 699 q 643 603 572 699 q 714 354 714 507 q 626 94 714 201 q 398 -14 539 -14 q 122 36 257 -14 q 133 190 133 163 l 133 854 l 119 960 l 14 982 l 21 1056 q 149 1050 121 1050 m 418 614 q 291 544 336 614 q 246 381 246 475 l 246 232 q 256 81 246 144 q 389 64 319 64 q 504 106 458 64 q 586 353 586 181 q 418 614 586 614 z "},"c":{"ha":647,"x_min":56,"x_max":608,"o":"m 375 699 q 593 650 472 699 l 579 476 l 499 481 l 499 531 q 489 578 499 544 q 375 619 439 619 q 232 539 278 619 q 186 342 186 458 q 232 151 186 226 q 375 76 278 76 q 472 89 424 76 q 544 114 521 101 l 569 126 l 608 61 q 507 10 576 33 q 374 -14 438 -14 q 137 82 218 -14 q 56 342 56 178 q 138 602 56 506 q 375 699 219 699 z "},"d":{"ha":782,"x_min":57,"x_max":744,"o":"m 336 -14 q 131 81 206 -14 q 57 342 57 176 q 135 603 57 508 q 349 699 214 699 q 522 665 429 699 l 522 854 l 508 960 l 386 982 l 393 1056 q 538 1050 510 1050 l 618 1050 l 644 1025 q 635 813 635 882 l 635 232 q 644 106 635 171 l 649 85 l 744 75 l 735 -7 q 556 0 667 0 l 536 111 q 453 25 515 64 q 336 -14 392 -14 m 522 288 l 522 564 q 362 614 446 614 q 231 542 278 614 q 185 344 185 471 q 228 147 185 218 q 350 75 271 75 q 476 131 429 75 q 522 288 522 188 z "},"e":{"ha":664,"x_min":56,"x_max":625,"o":"m 358 699 q 625 375 625 699 l 601 329 l 186 329 q 238 151 189 226 q 375 76 288 76 q 479 91 428 76 q 556 119 531 106 l 582 133 l 621 69 q 592 46 611 60 q 508 9 572 32 q 375 -14 444 -14 q 138 83 221 -14 q 56 341 56 179 q 133 601 56 503 q 358 699 210 699 m 353 626 q 188 399 207 626 l 496 422 q 497 450 497 443 q 460 577 497 528 q 353 626 424 626 z "},"f":{"ha":488,"x_min":50,"x_max":557,"o":"m 451 994 l 414 996 q 314 958 346 996 q 283 857 288 928 q 282 786 282 831 l 282 686 l 476 686 l 469 611 l 282 611 l 282 232 l 292 85 l 428 75 l 418 -7 q 211 0 322 0 l 57 -7 l 50 63 l 156 85 q 169 190 169 163 l 169 611 l 63 611 l 58 669 q 97 681 71 674 q 169 710 144 694 l 169 829 q 233 1005 169 940 q 414 1069 296 1069 q 533 1058 465 1069 l 557 1056 l 542 868 l 468 872 l 468 922 q 451 994 468 936 z "},"g":{"ha":701,"x_min":44,"x_max":672,"o":"m 547 619 q 611 443 611 553 q 538 265 611 333 q 343 196 464 196 q 249 208 292 196 q 211 147 211 165 q 237 120 211 129 q 419 91 263 111 q 610 60 576 71 q 672 -65 672 40 q 569 -249 672 -171 q 319 -326 465 -326 q 44 -125 44 -326 q 171 15 44 -85 q 100 117 100 44 q 200 228 100 144 q 75 447 75 294 q 149 630 75 561 q 343 699 222 699 q 489 665 422 699 l 658 692 l 658 611 l 547 619 m 164 -110 q 211 -214 164 -181 q 351 -247 258 -247 q 499 -208 444 -247 q 554 -104 554 -168 q 542 -59 554 -72 q 500 -42 531 -46 l 319 -18 q 224 -1 264 -11 q 164 -110 164 -75 m 490 447 q 490 538 490 447 q 343 628 490 628 q 196 447 196 628 q 343 267 196 267 q 490 447 490 267 z "},"h":{"ha":825,"x_min":26,"x_max":811,"o":"m 163 1050 l 243 1050 l 269 1025 q 260 813 260 925 l 260 593 q 462 699 331 699 q 643 620 593 699 q 693 383 693 542 l 693 232 l 703 85 l 811 75 l 801 -7 q 622 0 733 0 l 481 -7 l 474 63 l 567 85 q 581 190 581 146 l 581 383 q 438 614 581 614 q 309 549 357 614 q 260 381 261 485 l 260 232 q 268 85 260 151 l 376 75 l 367 -7 q 188 0 299 0 l 33 -7 l 26 63 l 133 85 q 147 190 147 147 l 147 854 l 133 960 l 28 982 l 35 1056 q 163 1050 135 1050 z "},"i":{"ha":418,"x_min":50,"x_max":400,"o":"m 169 190 l 169 490 l 156 596 l 50 618 l 57 692 q 185 686 157 686 l 265 686 l 292 661 q 282 449 282 518 l 282 232 l 292 85 l 400 75 l 390 -7 q 211 0 322 0 l 57 -7 l 50 63 l 156 85 q 169 190 169 163 m 166 975 q 177 988 166 975 q 226 1000 188 1000 q 287 976 265 1000 q 308 911 308 953 q 287 845 308 869 q 226 821 265 821 q 166 845 188 821 q 144 910 144 869 q 166 975 144 950 z "},"j":{"ha":388,"x_min":35,"x_max":278,"o":"m 169 686 l 250 686 l 276 661 q 267 449 267 518 l 267 -14 q 225 -117 267 -39 q 142 -261 183 -194 l 99 -326 l 49 -297 q 154 29 154 -26 l 154 490 l 140 596 l 35 618 l 42 692 q 169 686 142 686 m 135 975 q 146 988 135 975 q 196 1000 157 1000 q 256 976 235 1000 q 278 911 278 953 q 256 845 278 869 q 196 821 235 821 q 135 845 157 821 q 114 910 114 869 q 135 975 114 950 z "},"k":{"ha":794,"x_min":26,"x_max":801,"o":"m 163 1050 l 243 1050 l 269 1025 q 260 813 260 925 l 260 232 q 268 85 260 151 l 376 75 l 367 -7 q 188 0 299 0 l 33 -7 l 26 63 l 133 85 q 147 190 147 147 l 147 854 l 133 960 l 28 982 l 35 1056 q 163 1050 135 1050 m 504 607 l 444 618 l 451 690 q 572 686 544 686 l 749 693 l 753 613 l 649 601 q 511 508 546 546 l 399 388 l 589 179 q 714 83 592 175 l 801 75 l 792 -7 q 613 0 724 0 l 471 -3 l 464 67 l 543 82 l 472 160 l 275 368 l 504 607 z "},"l":{"ha":407,"x_min":26,"x_max":376,"o":"m 163 1050 l 243 1050 l 269 1025 q 260 813 260 925 l 260 232 q 268 85 260 151 l 376 75 l 367 -7 q 188 0 299 0 l 33 -7 l 26 63 l 133 85 q 147 190 147 147 l 147 854 l 133 960 l 28 982 l 35 1056 q 163 1050 135 1050 z "},"m":{"ha":1236,"x_min":50,"x_max":1222,"o":"m 478 699 q 671 567 629 699 q 759 661 703 624 q 889 699 815 699 q 1058 620 1013 699 q 1104 383 1104 542 l 1104 232 l 1114 85 l 1222 75 l 1213 -7 q 1033 0 1144 0 l 892 -7 l 885 63 l 978 85 q 992 190 992 146 l 992 383 q 865 614 992 614 q 743 553 790 614 q 693 393 696 492 l 693 232 l 703 85 l 811 75 l 801 -7 q 622 0 733 0 l 481 -7 l 474 63 l 567 85 q 581 190 581 146 l 581 383 q 454 614 581 614 q 330 549 376 614 q 282 381 283 483 l 282 232 l 292 85 l 400 75 l 390 -7 q 211 0 322 0 l 57 -7 l 50 63 l 156 85 q 169 183 167 151 l 169 490 l 156 596 l 50 618 l 57 692 q 185 686 157 686 l 235 686 l 261 661 l 269 572 q 351 663 297 626 q 478 699 406 699 z "},"n":{"ha":847,"x_min":50,"x_max":833,"o":"m 185 686 l 235 686 l 261 661 l 269 572 q 352 662 297 625 q 481 699 407 699 q 665 620 615 699 q 715 383 715 542 l 715 232 l 725 85 l 833 75 l 824 -7 q 644 0 756 0 l 503 -7 l 496 63 l 589 85 q 603 190 603 146 l 603 383 q 460 614 603 614 q 331 549 379 614 q 282 381 283 485 l 282 232 l 292 85 l 400 75 l 390 -7 q 211 0 322 0 l 57 -7 l 50 63 l 156 85 q 169 183 167 151 l 169 490 l 156 596 l 50 618 l 57 692 q 185 686 157 686 z "},"o":{"ha":750,"x_min":56,"x_max":694,"o":"m 376 699 q 454 699 376 699 q 613 603 532 699 q 694 343 694 507 q 612 83 694 179 q 375 -14 529 -14 q 138 83 221 -14 q 56 342 56 179 q 138 602 56 506 q 376 699 221 699 m 519 143 q 542 182 519 143 q 564 342 564 221 q 519 541 564 463 q 375 619 475 619 q 231 541 275 619 q 186 342 186 463 q 231 143 186 221 q 375 65 275 65 q 519 143 475 65 z "},"p":{"ha":776,"x_min":21,"x_max":721,"o":"m 436 699 q 647 609 572 699 q 721 358 721 519 q 631 91 721 196 q 401 -14 540 -14 q 253 21 331 -14 l 253 -85 l 263 -232 l 399 -242 l 389 -324 q 183 -317 294 -317 l 42 -324 l 35 -254 l 126 -232 q 140 -133 140 -165 l 140 490 l 126 596 l 21 618 l 28 692 q 156 686 128 686 l 206 686 l 232 661 l 240 572 q 321 661 263 624 q 436 699 379 699 m 425 614 q 300 553 347 614 q 253 394 253 493 l 253 119 q 393 69 326 69 q 544 142 492 69 q 596 353 596 215 q 425 614 596 614 z "},"q":{"ha":754,"x_min":56,"x_max":736,"o":"m 521 -126 l 521 86 q 436 15 490 44 q 335 -14 382 -14 q 130 81 204 -14 q 56 340 56 176 q 136 601 56 503 q 347 699 217 699 q 474 689 417 699 q 644 649 532 679 q 633 447 633 517 l 633 -85 l 643 -232 l 736 -242 l 726 -324 q 521 -317 632 -317 l 379 -324 l 372 -254 l 507 -232 q 521 -126 521 -154 m 183 342 q 183 280 183 342 q 226 147 183 218 q 347 75 269 75 q 472 128 425 75 q 521 278 518 182 l 521 489 q 511 599 521 525 q 358 614 435 614 q 232 540 281 614 q 183 342 183 465 z "},"r":{"ha":586,"x_min":50,"x_max":588,"o":"m 493 699 q 588 685 538 699 l 574 456 l 493 460 l 493 533 q 474 603 493 544 l 468 603 q 282 394 290 601 l 282 232 l 292 85 l 428 75 l 418 -7 q 211 0 322 0 l 57 -7 l 50 63 l 156 85 q 169 190 169 163 l 169 490 l 156 596 l 50 618 l 57 692 q 185 686 157 686 l 235 686 l 261 661 l 269 569 q 493 699 349 699 z "},"s":{"ha":586,"x_min":58,"x_max":532,"o":"m 67 514 q 130 649 67 600 q 290 699 193 699 q 500 675 386 699 l 483 476 l 403 481 l 403 531 q 383 610 403 546 q 292 626 344 626 q 208 602 239 626 q 178 538 178 578 q 215 467 178 497 q 303 415 251 438 q 406 366 354 392 q 495 295 458 340 q 532 189 532 250 q 288 -14 532 -14 q 169 -1 226 -14 q 85 26 111 13 l 58 40 l 74 229 l 154 225 l 154 172 q 175 90 154 150 q 292 57 218 57 q 418 163 418 57 q 382 233 418 203 q 294 285 346 263 q 191 334 243 308 q 103 406 139 360 q 67 514 67 451 z "},"t":{"ha":478,"x_min":28,"x_max":475,"o":"m 311 -14 q 177 42 215 -14 q 139 217 139 97 l 139 611 l 32 611 l 28 669 q 67 681 40 674 q 139 710 114 694 l 203 835 l 251 829 l 251 686 l 446 686 l 439 611 l 251 611 l 251 183 q 326 75 251 75 q 419 106 372 75 l 436 115 l 475 58 q 311 -14 382 -14 z "},"u":{"ha":822,"x_min":32,"x_max":785,"o":"m 578 686 l 658 686 l 685 661 q 675 449 675 518 l 675 232 q 686 106 675 171 l 689 85 l 785 75 l 775 -7 q 596 0 707 0 l 578 108 q 368 -14 507 -14 q 183 65 229 -14 q 138 301 138 143 l 138 490 l 124 596 l 32 618 l 39 692 q 153 686 125 686 l 233 686 l 260 661 q 250 449 250 518 l 250 254 q 388 75 250 75 q 516 139 469 75 q 563 292 563 203 l 563 490 l 549 596 l 450 618 l 457 692 q 578 686 550 686 z "},"v":{"ha":736,"x_min":1,"x_max":724,"o":"m 724 613 l 647 604 q 578 443 604 508 l 418 0 l 325 0 q 138 492 154 447 q 86 603 122 538 l 1 618 l 8 690 q 132 686 104 686 l 313 693 l 317 613 l 233 603 q 267 485 260 503 l 386 143 l 501 488 q 529 603 507 503 l 425 618 l 432 690 q 549 686 521 686 l 719 693 l 724 613 z "},"w":{"ha":1111,"x_min":8,"x_max":1106,"o":"m 814 690 q 956 686 917 686 q 1086 692 1053 686 l 1101 693 l 1106 613 l 1043 604 q 974 443 1000 508 l 814 0 l 719 0 l 556 465 l 397 0 l 304 0 q 117 492 133 447 q 65 603 101 538 l 8 618 l 15 690 q 111 686 83 686 l 319 693 l 324 613 l 213 603 q 246 485 239 503 l 365 143 l 542 686 l 596 686 l 782 143 l 897 488 q 925 603 903 503 l 807 618 l 814 690 z "},"x":{"ha":754,"x_min":17,"x_max":751,"o":"m 258 603 l 299 538 l 381 419 l 457 538 l 492 601 l 403 618 l 410 690 q 517 686 489 686 l 693 693 l 697 613 l 613 601 l 518 490 l 432 358 l 544 207 l 667 82 l 751 75 l 742 -7 q 557 0 668 0 l 415 -7 l 408 63 l 494 83 l 450 160 l 364 279 l 281 160 l 238 85 l 325 75 l 315 -7 q 158 0 269 0 l 24 -7 l 17 63 l 103 85 l 215 207 l 310 342 l 201 490 l 100 604 l 40 618 l 47 690 q 161 686 133 686 l 338 693 l 342 613 l 258 603 z "},"y":{"ha":749,"x_min":0,"x_max":736,"o":"m 388 144 l 508 467 q 546 601 528 521 l 444 618 l 451 690 q 572 686 544 686 l 732 693 l 736 613 l 663 601 q 590 443 613 500 l 304 -326 l 81 -311 l 92 -231 l 147 -232 q 240 -218 167 -232 q 293 -124 275 -169 l 338 0 l 139 463 q 68 601 118 514 l 0 618 l 7 690 q 121 686 93 686 l 311 693 l 315 613 l 215 603 q 250 485 233 524 l 388 144 z "},"z":{"ha":639,"x_min":57,"x_max":594,"o":"m 232 686 l 568 686 l 578 606 l 458 454 l 289 197 q 219 72 271 169 l 393 72 q 475 81 408 72 q 506 151 503 135 q 514 207 511 181 l 594 199 l 582 22 l 557 -4 q 404 0 432 0 l 67 0 l 57 81 q 189 233 168 203 l 361 489 q 431 614 386 528 l 261 614 q 188 606 249 614 q 154 519 157 550 l 149 465 l 68 471 l 75 664 l 100 690 q 232 686 204 686 z "},"{":{"ha":378,"x_min":49,"x_max":364,"o":"m 244 394 l 232 56 l 243 -97 l 364 -114 l 360 -174 q 135 -168 231 -168 l 107 -140 q 149 363 149 196 q 102 403 139 382 q 49 425 65 425 l 54 465 q 103 487 67 465 q 149 528 139 508 q 117 942 149 675 l 107 1031 l 135 1058 l 360 1064 l 364 1004 l 243 988 q 232 835 232 863 l 244 496 q 181 457 219 474 l 167 451 l 167 439 q 244 394 217 419 z "},"|":{"ha":388,"x_min":149,"x_max":239,"o":"m 239 -169 l 149 -157 l 149 1056 l 239 1044 l 239 -169 z "},"}":{"ha":378,"x_min":14,"x_max":329,"o":"m 133 496 l 146 835 l 135 988 l 14 1004 l 18 1064 q 243 1058 147 1058 l 271 1031 q 229 528 229 694 q 276 487 239 508 q 329 465 313 465 l 324 425 q 275 403 311 425 q 229 363 239 382 q 261 -51 229 215 l 271 -140 l 243 -168 l 18 -174 l 14 -114 l 135 -97 q 146 56 146 28 l 133 394 q 197 433 158 417 l 211 439 l 211 451 q 133 496 161 471 z "},"~":{"ha":778,"x_min":65,"x_max":713,"o":"m 644 293 q 635 283 644 293 q 603 258 626 274 q 549 243 581 243 q 388 285 518 243 q 231 326 257 326 q 136 269 183 326 l 121 250 l 65 296 q 94 340 71 308 q 133 390 117 371 q 224 440 179 440 q 395 399 268 440 q 549 357 522 357 q 642 414 594 357 l 657 433 l 713 388 q 683 344 706 375 q 644 293 661 313 z "}," ":{"ha":311,"x_min":0,"x_max":0,"o":""},"¡":{"ha":318,"x_min":57,"x_max":221,"o":"m 78 674 q 89 686 78 674 q 139 699 100 699 q 199 675 178 699 q 221 610 221 651 q 199 544 221 568 q 139 519 178 519 q 78 544 100 519 q 57 608 57 568 q 78 674 57 649 m 88 375 l 97 383 q 197 379 122 379 q 196 288 196 329 l 208 -306 l 83 -315 l 57 -290 q 92 257 92 39 l 88 375 z "},"¢":{"ha":671,"x_min":56,"x_max":608,"o":"m 329 94 q 125 203 194 108 q 56 453 56 297 q 133 704 56 608 q 358 806 211 800 l 365 957 l 413 953 l 407 804 q 593 757 458 801 l 579 583 l 499 588 l 499 638 q 489 685 499 651 q 403 725 447 718 l 382 183 q 475 196 428 183 q 546 221 522 208 l 569 233 l 608 168 q 580 147 599 160 q 501 114 561 135 q 378 93 440 93 l 372 -58 l 324 -54 l 329 94 m 256 677 q 236 656 256 677 q 201 577 217 635 q 186 433 186 519 q 222 275 186 347 q 333 188 258 203 l 356 725 q 256 677 296 719 z "},"£":{"ha":793,"x_min":63,"x_max":772,"o":"m 211 688 q 289 858 211 797 q 476 919 367 919 q 751 875 585 919 l 732 671 l 650 679 l 650 735 q 633 813 650 746 q 492 843 568 843 q 377 808 417 843 q 338 707 338 772 l 338 536 l 632 550 l 635 503 l 338 489 l 338 389 l 639 403 l 642 356 l 338 342 l 338 232 l 347 79 l 525 79 q 646 92 578 79 q 675 143 671 126 q 696 236 692 208 l 772 229 l 751 19 l 725 -6 q 567 0 594 0 l 260 0 l 96 -7 l 89 63 l 199 85 q 211 190 211 167 l 211 335 l 72 329 l 69 378 l 211 383 l 211 483 l 65 476 l 63 525 l 211 531 l 211 688 z "},"¥":{"ha":896,"x_min":7,"x_max":883,"o":"m 376 190 l 376 339 l 163 329 l 161 378 l 369 386 l 311 483 l 158 476 l 156 525 l 283 531 l 165 726 q 82 819 107 793 l 7 832 l 17 907 l 154 907 l 368 914 l 375 849 l 267 818 q 325 693 315 710 l 453 481 l 617 757 q 643 819 621 764 l 540 832 l 550 907 l 661 907 l 876 914 l 883 849 l 788 822 l 689 713 l 588 543 l 728 550 l 729 503 l 558 494 l 506 406 l 506 393 l 732 403 l 735 356 l 506 344 l 506 232 l 515 79 l 624 71 l 615 -6 q 394 0 493 0 l 263 -6 l 256 67 l 363 79 q 376 190 376 163 z "},"¦":{"ha":388,"x_min":149,"x_max":239,"o":"m 239 544 l 149 556 l 149 1056 l 239 1044 l 239 544 m 149 294 l 239 285 l 239 -169 l 149 -157 l 149 294 z "},"§":{"ha":746,"x_min":111,"x_max":649,"o":"m 243 547 q 221 483 221 521 q 253 413 221 446 q 332 358 285 379 q 435 308 379 336 q 538 252 490 281 q 617 175 585 224 q 649 64 649 126 q 572 -102 649 -44 q 376 -160 496 -160 q 246 -144 308 -160 q 154 -114 183 -129 l 125 -99 l 142 90 l 218 83 l 218 29 q 231 -46 218 11 q 369 -76 301 -76 q 473 -44 438 -76 q 508 46 508 -11 q 468 142 508 103 q 371 207 428 181 q 256 260 314 233 q 158 332 199 288 q 118 435 118 376 q 144 509 118 469 q 204 571 171 549 l 243 547 m 511 314 q 536 384 536 343 q 492 461 536 425 q 386 524 449 497 q 261 580 324 550 q 155 663 199 610 q 111 789 111 715 q 181 944 111 888 q 347 1000 250 1000 q 589 964 444 1000 l 572 782 l 507 789 l 507 835 q 490 897 507 844 q 367 924 426 924 q 277 894 308 924 q 246 815 246 864 q 286 728 246 765 q 383 664 326 692 q 498 606 440 636 q 596 531 556 576 q 636 428 636 486 q 610 354 636 393 q 551 290 585 315 l 511 314 z "},"¨":{"ha":500,"x_min":11,"x_max":489,"o":"m 414 990 q 489 908 489 990 q 414 825 489 825 q 339 907 339 825 q 358 968 339 946 q 414 990 378 990 m 86 990 q 161 908 161 990 q 86 825 161 825 q 11 907 11 825 q 31 968 11 946 q 86 990 50 990 z "},"©":{"ha":1174,"x_min":79,"x_max":1094,"o":"m 597 40 q 385 123 458 40 q 313 346 313 206 q 386 569 313 486 q 597 653 460 653 q 781 625 657 653 l 771 485 l 714 489 l 714 533 q 704 572 714 543 q 599 588 643 588 q 472 520 517 588 q 428 347 428 453 q 472 174 428 242 q 599 106 517 106 q 711 119 653 106 q 724 164 724 147 l 725 210 l 783 211 l 788 68 q 597 40 664 40 m 588 854 q 693 854 588 854 q 947 707 799 854 q 1094 350 1094 560 q 945 -10 1094 140 q 587 -160 796 -160 q 228 -12 378 -160 q 79 346 79 135 q 228 706 79 557 q 588 854 378 854 m 901 33 q 967 98 901 33 q 1032 347 1032 164 q 901 662 1032 531 q 585 793 769 793 q 271 663 401 793 q 140 349 140 533 q 272 33 140 164 q 587 -99 403 -99 q 901 33 771 -99 z "},"ª":{"ha":460,"x_min":36,"x_max":442,"o":"m 163 617 q 70 648 104 617 q 36 732 36 679 q 150 847 36 829 l 279 868 l 279 894 q 208 989 279 989 q 133 974 164 989 l 126 939 l 128 900 l 69 897 l 57 1029 q 214 1051 139 1051 q 378 888 378 1051 l 378 779 l 386 685 l 442 679 l 436 621 q 297 625 393 625 l 289 689 q 163 617 250 617 m 140 749 q 194 690 140 690 q 249 710 225 690 q 279 761 272 729 l 279 818 l 190 803 q 140 749 140 792 z "},"«":{"ha":578,"x_min":35,"x_max":519,"o":"m 35 336 l 247 644 l 299 610 l 150 336 l 299 63 l 247 28 l 35 336 m 261 336 l 469 639 l 519 604 l 375 336 l 519 68 l 469 33 l 261 336 z "},"¬":{"ha":778,"x_min":76,"x_max":708,"o":"m 76 426 l 708 426 l 708 96 l 610 96 l 613 333 l 76 328 l 76 426 z "},"®":{"ha":1174,"x_min":79,"x_max":1094,"o":"m 588 854 q 693 854 588 854 q 947 707 799 854 q 1094 350 1094 560 q 945 -10 1094 140 q 587 -160 796 -160 q 228 -12 378 -160 q 79 346 79 135 q 228 706 79 557 q 588 854 378 854 m 901 33 q 967 98 901 33 q 1032 347 1032 164 q 901 662 1032 531 q 585 793 769 793 q 271 663 401 793 q 140 349 140 533 q 272 33 140 164 q 587 -99 403 -99 q 901 33 771 -99 m 417 649 l 590 657 q 728 614 679 657 q 778 486 778 571 q 668 331 778 375 q 753 183 725 219 q 794 124 761 168 l 851 117 l 846 65 l 697 65 l 681 111 q 656 171 657 168 l 581 314 l 507 314 l 507 211 q 511 125 507 183 l 572 117 l 567 65 l 506 65 l 347 61 l 339 107 l 408 125 l 410 125 l 417 186 l 417 535 l 410 596 l 408 596 l 343 601 l 349 649 l 417 649 m 556 361 l 571 361 q 689 485 689 371 q 653 578 689 546 q 556 610 618 610 q 511 604 547 610 q 507 511 507 542 l 507 364 q 556 361 525 361 z "},"¯":{"ha":500,"x_min":26,"x_max":474,"o":"m 26 828 l 26 901 l 474 901 l 467 828 l 26 828 z "},"°":{"ha":500,"x_min":42,"x_max":460,"o":"m 403 869 q 432 842 403 869 q 460 718 460 814 q 403 567 460 622 q 251 511 347 511 q 98 567 154 511 q 42 718 42 622 q 98 869 42 814 q 251 925 154 925 q 403 869 347 925 m 174 816 q 161 797 174 816 q 149 718 149 778 q 174 620 149 658 q 251 582 200 582 q 328 621 303 582 q 353 718 353 660 q 328 815 353 776 q 251 854 303 854 q 174 816 200 854 z "},"±":{"ha":778,"x_min":72,"x_max":704,"o":"m 339 151 l 339 421 l 72 418 l 72 515 l 339 515 l 339 781 l 429 781 l 432 515 l 704 515 l 704 425 l 433 422 l 436 151 l 339 151 m 704 0 l 72 0 l 72 92 l 704 99 l 704 0 z "},"²":{"ha":469,"x_min":28,"x_max":429,"o":"m 47 1156 q 216 1186 128 1186 q 353 1149 304 1186 q 403 1042 403 1111 q 352 908 403 974 q 149 710 301 842 l 276 710 q 354 718 296 710 q 365 754 365 744 l 371 789 l 429 785 l 422 639 l 400 622 q 303 625 321 625 l 40 625 l 28 700 q 242 913 193 851 q 292 1024 292 975 q 267 1095 292 1072 q 202 1118 243 1118 q 122 1096 161 1118 q 114 1060 114 1072 l 115 1022 l 56 1018 l 47 1156 z "},"³":{"ha":426,"x_min":21,"x_max":381,"o":"m 172 1186 q 357 1042 357 1186 q 258 907 357 953 q 347 857 314 894 q 381 771 381 819 q 284 616 381 682 q 38 536 188 550 l 21 590 q 198 653 131 606 q 265 764 265 701 q 239 835 265 810 q 165 860 213 860 l 108 857 l 96 911 q 247 1040 247 932 q 168 1124 247 1124 q 104 1110 136 1124 q 96 1068 96 1075 l 97 1028 l 38 1025 l 26 1161 q 172 1186 101 1186 z "},"´":{"ha":500,"x_min":92,"x_max":407,"o":"m 342 1049 l 407 965 q 239 867 260 882 l 138 783 l 92 840 l 342 1049 z "},"µ":{"ha":806,"x_min":122,"x_max":761,"o":"m 128 -265 l 132 -65 l 132 496 l 122 682 l 131 690 q 182 686 172 686 l 246 690 l 254 682 q 244 454 244 524 l 244 254 q 385 75 244 75 q 513 139 467 75 q 560 292 560 203 l 560 496 l 550 682 l 558 690 q 610 686 594 686 l 674 690 l 682 682 q 672 454 672 524 l 672 190 q 689 97 672 126 q 761 38 706 68 l 735 -21 q 703 -9 729 -18 q 667 3 676 0 q 636 17 657 7 q 606 36 615 28 q 567 94 576 64 q 367 -14 501 -14 q 229 46 282 -14 l 236 -107 l 264 -286 l 251 -297 l 221 -297 l 140 -303 l 128 -292 q 128 -265 128 -282 z "},"¶":{"ha":772,"x_min":24,"x_max":715,"o":"m 365 404 q 122 483 219 404 q 24 702 24 561 q 105 918 24 843 q 333 993 186 993 q 403 989 364 993 l 403 439 l 365 404 m 593 789 l 593 65 l 606 -100 l 579 -125 l 561 -125 l 333 -132 l 326 -67 l 460 -36 q 472 107 472 21 l 472 954 l 499 979 l 708 986 l 715 913 l 606 890 l 604 890 q 593 789 593 801 z "},"·":{"ha":296,"x_min":56,"x_max":233,"o":"m 79 485 q 91 499 79 485 q 144 513 103 513 q 210 487 186 513 q 233 417 233 461 q 210 346 233 372 q 144 319 186 319 q 79 346 103 319 q 56 415 56 372 q 79 485 56 458 z "},"¸":{"ha":500,"x_min":146,"x_max":410,"o":"m 371 -115 q 390 -131 371 -115 q 410 -203 410 -147 q 367 -292 410 -258 q 261 -326 324 -326 q 146 -301 199 -326 l 164 -253 q 245 -268 213 -268 q 299 -251 278 -268 q 319 -203 319 -233 q 254 -143 319 -143 l 225 -144 l 210 -131 l 222 14 l 289 14 l 269 -82 q 371 -115 332 -83 z "},"¹":{"ha":364,"x_min":32,"x_max":331,"o":"m 158 761 l 158 1053 l 60 1008 l 32 1054 q 151 1146 135 1132 l 193 1194 l 261 1185 q 254 986 254 1028 l 254 786 q 263 692 254 717 l 331 686 l 325 621 q 182 625 268 625 l 72 621 l 68 681 l 151 692 l 156 722 q 158 761 158 751 z "},"º":{"ha":479,"x_min":33,"x_max":446,"o":"m 239 1051 q 289 1051 239 1051 q 392 994 339 1051 q 446 833 446 936 q 392 672 446 729 q 239 614 339 614 q 86 672 139 614 q 33 833 33 729 q 86 994 33 936 q 239 1051 139 1051 m 240 676 q 286 676 240 676 q 333 833 333 676 q 240 989 333 989 q 146 833 146 989 q 240 676 146 676 z "},"»":{"ha":576,"x_min":58,"x_max":543,"o":"m 543 335 l 331 26 l 279 61 l 426 335 l 279 608 l 331 643 l 543 335 m 317 335 l 108 32 l 58 67 l 203 335 l 58 603 l 108 638 l 317 335 z "},"¼":{"ha":1026,"x_min":32,"x_max":976,"o":"m 158 553 l 158 844 l 60 800 l 32 846 q 151 938 135 924 l 193 986 l 261 976 q 254 778 254 819 l 254 578 q 263 483 254 508 l 331 478 l 325 413 q 182 417 268 417 l 72 413 l 68 472 l 151 483 l 156 514 q 158 553 158 543 m 742 1001 l 811 957 l 210 -68 l 139 -24 l 742 1001 m 803 231 l 803 329 l 894 363 l 894 238 l 976 242 l 976 167 l 894 167 l 894 138 q 898 85 894 103 q 901 67 901 68 l 968 61 l 963 -4 q 817 0 900 0 l 704 -4 l 700 54 l 794 67 q 803 128 803 92 l 803 167 l 589 167 l 536 231 l 853 647 l 928 588 q 818 471 832 490 l 644 231 l 803 231 z "},"½":{"ha":1056,"x_min":32,"x_max":1001,"o":"m 158 553 l 158 844 l 60 800 l 32 846 q 151 938 135 924 l 193 986 l 261 976 q 254 778 254 819 l 254 578 q 263 483 254 508 l 331 478 l 325 413 q 182 417 268 417 l 72 413 l 68 472 l 151 483 l 156 514 q 158 553 158 543 m 742 1001 l 811 957 l 210 -68 l 139 -24 l 742 1001 m 615 549 q 786 579 696 579 q 926 540 876 579 q 975 431 975 501 q 924 291 975 360 q 721 85 874 222 l 849 85 q 926 93 868 85 q 938 129 938 119 l 943 164 l 1001 160 l 994 14 l 972 -3 q 875 0 893 0 l 613 0 l 600 75 q 815 298 765 233 q 864 413 864 363 q 840 487 864 463 q 772 511 815 511 q 690 489 729 511 q 682 439 682 467 l 683 401 l 624 397 l 615 549 z "},"¾":{"ha":1047,"x_min":21,"x_max":997,"o":"m 172 978 q 357 833 357 978 q 258 699 357 744 q 347 649 314 686 q 381 563 381 611 q 284 408 381 474 q 38 328 188 342 l 21 382 q 198 445 131 397 q 265 556 265 493 q 239 626 265 601 q 165 651 213 651 l 108 649 l 96 703 q 247 832 247 724 q 168 915 247 915 q 104 901 136 915 q 96 860 96 867 l 97 819 l 38 817 l 26 953 q 172 978 101 978 m 763 1001 l 832 957 l 231 -68 l 160 -24 l 763 1001 m 915 138 l 922 67 l 989 61 l 983 -4 q 838 0 921 0 l 725 -4 l 721 54 l 815 67 q 824 128 824 92 l 824 167 l 610 167 l 557 231 l 874 647 l 949 588 q 839 471 853 490 l 665 231 l 824 231 l 824 329 l 915 363 l 915 238 l 997 242 l 997 167 l 915 167 l 915 138 z "},"¿":{"ha":560,"x_min":15,"x_max":539,"o":"m 309 674 q 320 686 309 674 q 369 699 331 699 q 430 675 408 699 q 451 610 451 651 q 430 544 451 568 q 369 519 408 519 q 309 544 331 519 q 288 608 288 568 q 309 674 288 649 m 321 168 q 192 115 239 168 q 146 -30 146 61 q 190 -183 146 -121 q 312 -246 235 -246 q 436 -210 389 -246 q 444 -129 444 -181 l 442 -79 l 522 -79 l 539 -271 q 321 -325 422 -325 q 97 -245 179 -325 q 15 -31 15 -165 q 103 178 15 103 q 324 253 190 253 l 318 375 l 328 383 q 422 379 353 379 l 428 375 l 428 196 l 392 163 q 321 168 350 168 z "},"À":{"ha":922,"x_min":14,"x_max":917,"o":"m 917 75 l 910 0 l 769 0 l 571 -7 l 565 61 l 667 89 l 629 239 l 600 322 l 294 322 l 250 176 l 236 89 l 333 75 l 326 0 l 207 0 l 19 -7 l 14 61 l 101 85 l 161 222 l 410 979 l 490 993 l 776 207 l 831 89 l 917 75 m 442 774 l 319 392 l 572 397 l 442 774 m 253 1146 l 294 1247 l 613 1108 l 585 1042 l 463 1093 l 253 1146 z "},"Á":{"ha":922,"x_min":14,"x_max":917,"o":"m 917 75 l 910 0 l 769 0 l 571 -7 l 565 61 l 667 89 l 629 239 l 600 322 l 294 322 l 250 176 l 236 89 l 333 75 l 326 0 l 207 0 l 19 -7 l 14 61 l 101 85 l 161 222 l 410 979 l 490 993 l 776 207 l 831 89 l 917 75 m 442 774 l 319 392 l 572 397 l 442 774 m 626 1247 l 668 1146 q 458 1093 485 1101 l 336 1042 l 308 1108 l 626 1247 z "},"Â":{"ha":922,"x_min":14,"x_max":917,"o":"m 917 75 l 910 0 l 769 0 l 571 -7 l 565 61 l 667 89 l 629 239 l 600 322 l 294 322 l 250 176 l 236 89 l 333 75 l 326 0 l 207 0 l 19 -7 l 14 61 l 101 85 l 161 222 l 410 979 l 490 993 l 776 207 l 831 89 l 917 75 m 442 774 l 319 392 l 572 397 l 442 774 m 461 1240 l 703 1092 l 671 1038 l 549 1094 l 461 1129 l 374 1094 l 251 1038 l 219 1092 l 461 1240 z "},"Ã":{"ha":922,"x_min":14,"x_max":917,"o":"m 917 75 l 910 0 l 769 0 l 571 -7 l 565 61 l 667 89 l 629 239 l 600 322 l 294 322 l 250 176 l 236 89 l 333 75 l 326 0 l 207 0 l 19 -7 l 14 61 l 101 85 l 161 222 l 410 979 l 490 993 l 776 207 l 831 89 l 917 75 m 442 774 l 319 392 l 572 397 l 442 774 m 676 1158 q 671 1146 676 1158 q 635 1097 665 1135 q 578 1060 604 1060 q 465 1088 551 1060 q 357 1117 379 1117 q 316 1098 335 1117 q 288 1061 297 1079 l 278 1042 l 228 1071 q 246 1110 235 1086 q 287 1172 257 1133 q 343 1211 317 1211 q 456 1183 369 1211 q 565 1154 543 1154 q 606 1172 588 1154 q 635 1207 625 1189 l 644 1225 l 694 1196 q 676 1158 688 1181 z "},"Ä":{"ha":922,"x_min":14,"x_max":917,"o":"m 917 75 l 910 0 l 769 0 l 571 -7 l 565 61 l 667 89 l 629 239 l 600 322 l 294 322 l 250 176 l 236 89 l 333 75 l 326 0 l 207 0 l 19 -7 l 14 61 l 101 85 l 161 222 l 410 979 l 490 993 l 776 207 l 831 89 l 917 75 m 442 774 l 319 392 l 572 397 l 442 774 m 625 1228 q 700 1145 700 1228 q 625 1063 700 1063 q 550 1144 550 1063 q 569 1206 550 1183 q 625 1228 589 1228 m 297 1228 q 372 1145 372 1228 q 297 1063 372 1063 q 222 1144 222 1063 q 242 1206 222 1183 q 297 1228 261 1228 z "},"Å":{"ha":922,"x_min":14,"x_max":917,"o":"m 917 75 l 910 0 l 769 0 l 571 -7 l 565 61 l 667 89 l 629 239 l 600 322 l 294 322 l 250 176 l 236 89 l 333 75 l 326 0 l 207 0 l 19 -7 l 14 61 l 101 85 l 161 222 l 410 979 l 490 993 l 776 207 l 831 89 l 917 75 m 368 1240 q 384 1256 368 1240 q 461 1272 400 1272 q 553 1240 522 1272 q 585 1153 585 1208 q 553 1067 585 1099 q 461 1035 522 1035 q 368 1067 400 1035 q 336 1153 336 1099 q 368 1240 336 1208 m 442 774 l 319 392 l 572 397 l 442 774 m 519 1153 q 519 1186 519 1153 q 462 1219 519 1219 q 404 1153 404 1219 q 462 1088 404 1088 q 519 1153 519 1088 z "},"Æ":{"ha":1260,"x_min":-14,"x_max":1207,"o":"m 913 900 l 661 900 q 676 751 671 792 l 710 536 q 815 531 788 531 l 882 531 l 965 543 l 978 635 l 1042 628 q 1040 517 1040 544 l 1044 365 l 978 357 l 965 450 q 854 458 882 458 l 815 458 q 722 453 794 458 l 756 242 l 790 79 l 960 79 q 1081 92 1011 79 q 1110 143 1104 125 q 1131 236 1126 208 l 1207 229 l 1186 19 l 1160 -6 q 1001 0 1029 0 l 699 0 l 535 -7 l 528 63 l 642 85 q 635 181 642 135 l 610 344 l 313 344 l 217 142 q 208 114 214 135 q 200 85 203 93 l 314 75 l 304 -7 q 122 0 233 0 l -7 -7 l -14 63 l 69 85 q 154 213 142 185 l 479 894 l 371 911 l 378 986 q 539 979 511 979 l 954 979 l 1113 993 l 1139 968 l 1149 779 l 1068 772 q 1058 833 1064 806 q 1025 893 1051 860 q 913 900 949 900 m 347 415 l 599 419 l 544 772 l 535 811 l 347 415 z "},"Ç":{"ha":847,"x_min":58,"x_max":799,"o":"m 633 -115 q 653 -131 633 -115 q 672 -203 672 -147 q 629 -292 672 -258 q 524 -326 586 -326 q 408 -301 461 -326 l 426 -253 q 508 -268 475 -268 q 561 -251 540 -268 q 582 -203 582 -233 q 517 -143 582 -143 l 488 -144 l 472 -131 l 482 -19 q 167 123 276 -14 q 58 491 58 260 q 172 861 58 722 q 499 1000 285 1000 q 786 953 600 1000 l 772 747 l 690 753 l 690 818 q 674 888 690 832 q 499 919 578 919 q 278 799 354 919 q 201 490 201 679 q 278 181 201 301 q 497 60 354 60 q 686 90 588 60 q 706 168 706 154 l 708 233 l 790 236 l 799 26 q 544 -19 642 -14 l 532 -82 q 633 -115 594 -83 z "},"È":{"ha":817,"x_min":58,"x_max":764,"o":"m 229 979 l 540 979 l 699 993 l 725 968 l 735 779 l 654 772 q 644 833 650 806 q 611 894 638 861 q 499 901 535 901 l 317 901 q 307 747 307 799 l 307 550 q 367 547 354 547 l 468 547 l 551 560 l 564 651 l 628 644 q 626 528 626 556 l 631 376 l 564 368 l 551 461 q 440 469 468 469 l 367 469 q 307 465 342 469 l 307 232 q 317 79 307 172 l 517 79 q 638 92 569 79 q 666 138 664 128 q 677 186 668 149 q 688 236 686 224 l 764 229 l 743 19 l 717 -6 q 558 0 586 0 l 229 0 l 65 -7 l 58 63 l 168 85 q 181 190 181 167 l 181 789 q 168 894 181 814 l 61 911 l 68 986 q 229 979 201 979 m 200 1146 l 242 1247 l 560 1108 l 532 1042 l 410 1093 l 200 1146 z "},"É":{"ha":817,"x_min":58,"x_max":764,"o":"m 229 979 l 540 979 l 699 993 l 725 968 l 735 779 l 654 772 q 644 833 650 806 q 611 894 638 861 q 499 901 535 901 l 317 901 q 307 747 307 799 l 307 550 q 367 547 354 547 l 468 547 l 551 560 l 564 651 l 628 644 q 626 528 626 556 l 631 376 l 564 368 l 551 461 q 440 469 468 469 l 367 469 q 307 465 342 469 l 307 232 q 317 79 307 172 l 517 79 q 638 92 569 79 q 666 138 664 128 q 677 186 668 149 q 688 236 686 224 l 764 229 l 743 19 l 717 -6 q 558 0 586 0 l 229 0 l 65 -7 l 58 63 l 168 85 q 181 190 181 167 l 181 789 q 168 894 181 814 l 61 911 l 68 986 q 229 979 201 979 m 574 1247 l 615 1146 q 406 1093 432 1101 l 283 1042 l 256 1108 l 574 1247 z "},"Ê":{"ha":817,"x_min":58,"x_max":764,"o":"m 229 979 l 540 979 l 699 993 l 725 968 l 735 779 l 654 772 q 644 833 650 806 q 611 894 638 861 q 499 901 535 901 l 317 901 q 307 747 307 799 l 307 550 q 367 547 354 547 l 468 547 l 551 560 l 564 651 l 628 644 q 626 528 626 556 l 631 376 l 564 368 l 551 461 q 440 469 468 469 l 367 469 q 307 465 342 469 l 307 232 q 317 79 307 172 l 517 79 q 638 92 569 79 q 666 138 664 128 q 677 186 668 149 q 688 236 686 224 l 764 229 l 743 19 l 717 -6 q 558 0 586 0 l 229 0 l 65 -7 l 58 63 l 168 85 q 181 190 181 167 l 181 789 q 168 894 181 814 l 61 911 l 68 986 q 229 979 201 979 m 408 1240 l 650 1092 l 618 1038 l 496 1094 l 408 1129 l 321 1094 l 199 1038 l 167 1092 l 408 1240 z "},"Ë":{"ha":817,"x_min":58,"x_max":764,"o":"m 229 979 l 540 979 l 699 993 l 725 968 l 735 779 l 654 772 q 644 833 650 806 q 611 894 638 861 q 499 901 535 901 l 317 901 q 307 747 307 799 l 307 550 q 367 547 354 547 l 468 547 l 551 560 l 564 651 l 628 644 q 626 528 626 556 l 631 376 l 564 368 l 551 461 q 440 469 468 469 l 367 469 q 307 465 342 469 l 307 232 q 317 79 307 172 l 517 79 q 638 92 569 79 q 666 138 664 128 q 677 186 668 149 q 688 236 686 224 l 764 229 l 743 19 l 717 -6 q 558 0 586 0 l 229 0 l 65 -7 l 58 63 l 168 85 q 181 190 181 167 l 181 789 q 168 894 181 814 l 61 911 l 68 986 q 229 979 201 979 m 572 1228 q 647 1145 647 1228 q 572 1063 647 1063 q 497 1144 497 1063 q 517 1206 497 1183 q 572 1228 536 1228 m 244 1228 q 319 1145 319 1228 q 244 1063 319 1063 q 169 1144 169 1063 q 189 1206 169 1183 q 244 1228 208 1228 z "},"Ì":{"ha":504,"x_min":44,"x_max":450,"o":"m 315 747 l 315 232 q 325 85 315 153 l 450 75 l 440 -7 q 238 0 349 0 l 74 -7 l 67 63 l 176 85 q 189 190 189 167 l 189 789 q 176 894 189 814 l 69 911 l 76 986 q 238 979 210 979 l 428 986 l 433 904 l 325 894 q 315 747 315 826 m 44 1146 l 86 1247 l 404 1108 l 376 1042 l 254 1093 l 44 1146 z "},"Í":{"ha":504,"x_min":67,"x_max":460,"o":"m 315 747 l 315 232 q 325 85 315 153 l 450 75 l 440 -7 q 238 0 349 0 l 74 -7 l 67 63 l 176 85 q 189 190 189 167 l 189 789 q 176 894 189 814 l 69 911 l 76 986 q 238 979 210 979 l 428 986 l 433 904 l 325 894 q 315 747 315 826 m 418 1247 l 460 1146 q 250 1093 276 1101 l 128 1042 l 100 1108 l 418 1247 z "},"Î":{"ha":504,"x_min":11,"x_max":494,"o":"m 315 747 l 315 232 q 325 85 315 153 l 450 75 l 440 -7 q 238 0 349 0 l 74 -7 l 67 63 l 176 85 q 189 190 189 167 l 189 789 q 176 894 189 814 l 69 911 l 76 986 q 238 979 210 979 l 428 986 l 433 904 l 325 894 q 315 747 315 826 m 253 1240 l 494 1092 l 463 1038 l 340 1094 l 253 1129 l 165 1094 l 43 1038 l 11 1092 l 253 1240 z "},"Ï":{"ha":504,"x_min":56,"x_max":450,"o":"m 375 1228 q 450 1145 450 1228 q 375 1063 450 1063 q 300 1144 300 1063 q 319 1206 300 1183 q 375 1228 339 1228 m 131 1228 q 206 1145 206 1228 q 131 1063 206 1063 q 56 1144 56 1063 q 75 1206 56 1183 q 131 1228 94 1228 m 315 747 l 315 232 q 325 85 315 153 l 450 75 l 440 -7 q 238 0 349 0 l 74 -7 l 67 63 l 176 85 q 189 190 189 167 l 189 789 q 176 894 189 814 l 69 911 l 76 986 q 238 979 210 979 l 428 986 l 433 904 l 325 894 q 315 747 315 826 z "},"Ð":{"ha":1001,"x_min":58,"x_max":943,"o":"m 464 -8 l 229 0 l 65 -7 l 58 63 l 168 85 q 181 190 181 167 l 181 468 l 58 468 l 58 528 l 181 528 l 181 789 q 168 894 181 814 l 61 911 l 68 986 q 204 979 157 982 q 326 987 240 981 q 464 993 413 993 q 818 858 693 993 q 943 494 943 724 q 815 128 943 264 q 464 -8 686 -8 m 307 468 l 307 232 q 317 79 307 118 q 465 74 389 74 q 719 190 632 74 q 806 490 806 307 q 719 792 806 674 q 465 910 632 910 q 317 903 375 910 q 307 747 307 811 l 307 528 l 506 528 l 499 468 l 307 468 z "},"Ñ":{"ha":1057,"x_min":57,"x_max":1036,"o":"m 906 733 l 906 413 l 904 -10 l 821 -10 l 274 772 l 274 232 q 283 85 274 153 l 396 75 l 386 -7 q 215 0 326 0 l 65 -7 l 58 63 l 168 85 q 181 190 181 167 l 181 789 q 168 894 181 800 l 57 911 l 64 986 q 225 979 197 979 l 286 981 l 314 951 q 449 736 428 767 l 813 226 l 813 775 q 800 890 813 815 l 690 899 l 699 982 l 813 979 l 1029 986 l 1036 913 l 926 890 q 906 733 906 792 m 744 1158 q 739 1146 744 1158 q 703 1097 733 1135 q 646 1060 672 1060 q 533 1088 619 1060 q 425 1117 447 1117 q 356 1061 388 1117 l 346 1042 l 296 1071 q 314 1110 303 1086 q 355 1172 325 1133 q 411 1211 385 1211 q 524 1183 438 1211 q 633 1154 611 1154 q 703 1207 672 1154 l 713 1225 l 763 1196 q 744 1158 756 1181 z "},"Ò":{"ha":1028,"x_min":58,"x_max":969,"o":"m 852 861 q 911 792 852 861 q 969 489 969 722 q 852 117 969 256 q 514 -21 735 -21 q 176 117 293 -21 q 58 489 58 256 q 176 861 58 722 q 514 1000 293 1000 q 852 861 735 1000 m 286 803 q 247 742 286 803 q 207 489 207 681 q 286 175 207 297 q 514 53 365 53 q 742 175 663 53 q 821 489 821 297 q 742 803 821 681 q 514 926 663 926 q 286 803 365 926 m 306 1146 l 347 1247 l 665 1108 l 638 1042 l 515 1093 l 306 1146 z "},"Ó":{"ha":1028,"x_min":58,"x_max":969,"o":"m 852 861 q 911 792 852 861 q 969 489 969 722 q 852 117 969 256 q 514 -21 735 -21 q 176 117 293 -21 q 58 489 58 256 q 176 861 58 722 q 514 1000 293 1000 q 852 861 735 1000 m 286 803 q 247 742 286 803 q 207 489 207 681 q 286 175 207 297 q 514 53 365 53 q 742 175 663 53 q 821 489 821 297 q 742 803 821 681 q 514 926 663 926 q 286 803 365 926 m 679 1247 l 721 1146 q 511 1093 538 1101 l 389 1042 l 361 1108 l 679 1247 z "},"Ô":{"ha":1028,"x_min":58,"x_max":969,"o":"m 852 861 q 911 792 852 861 q 969 489 969 722 q 852 117 969 256 q 514 -21 735 -21 q 176 117 293 -21 q 58 489 58 256 q 176 861 58 722 q 514 1000 293 1000 q 852 861 735 1000 m 286 803 q 247 742 286 803 q 207 489 207 681 q 286 175 207 297 q 514 53 365 53 q 742 175 663 53 q 821 489 821 297 q 742 803 821 681 q 514 926 663 926 q 286 803 365 926 m 514 1240 l 756 1092 l 724 1038 l 601 1094 l 514 1129 l 426 1094 l 304 1038 l 272 1092 l 514 1240 z "},"Õ":{"ha":1028,"x_min":58,"x_max":969,"o":"m 852 861 q 911 792 852 861 q 969 489 969 722 q 852 117 969 256 q 514 -21 735 -21 q 176 117 293 -21 q 58 489 58 256 q 176 861 58 722 q 514 1000 293 1000 q 852 861 735 1000 m 286 803 q 247 742 286 803 q 207 489 207 681 q 286 175 207 297 q 514 53 365 53 q 742 175 663 53 q 821 489 821 297 q 742 803 821 681 q 514 926 663 926 q 286 803 365 926 m 729 1158 q 724 1146 729 1158 q 688 1097 718 1135 q 631 1060 657 1060 q 518 1088 604 1060 q 410 1117 432 1117 q 369 1098 388 1117 q 340 1061 350 1079 l 331 1042 l 281 1071 q 299 1110 288 1086 q 340 1172 310 1133 q 396 1211 369 1211 q 509 1183 422 1211 q 618 1154 596 1154 q 686 1207 657 1154 l 697 1225 l 747 1196 q 729 1158 740 1181 z "},"Ö":{"ha":1028,"x_min":58,"x_max":969,"o":"m 852 861 q 911 792 852 861 q 969 489 969 722 q 852 117 969 256 q 514 -21 735 -21 q 176 117 293 -21 q 58 489 58 256 q 176 861 58 722 q 514 1000 293 1000 q 852 861 735 1000 m 286 803 q 247 742 286 803 q 207 489 207 681 q 286 175 207 297 q 514 53 365 53 q 742 175 663 53 q 821 489 821 297 q 742 803 821 681 q 514 926 663 926 q 286 803 365 926 m 678 1228 q 753 1145 753 1228 q 678 1063 753 1063 q 603 1144 603 1063 q 622 1206 603 1183 q 678 1228 642 1228 m 350 1228 q 425 1145 425 1228 q 350 1063 425 1063 q 275 1144 275 1063 q 294 1206 275 1183 q 350 1228 314 1228 z "},"×":{"ha":747,"x_min":83,"x_max":664,"o":"m 372 415 l 589 635 l 663 561 l 446 344 l 664 131 l 590 57 l 374 272 l 156 56 l 86 125 l 301 344 l 83 563 l 153 632 l 372 415 z "},"Ø":{"ha":1028,"x_min":58,"x_max":969,"o":"m 969 489 q 852 117 969 256 q 514 -21 735 -21 q 306 21 397 -21 l 194 -189 l 139 -157 l 249 53 q 58 489 58 182 q 176 861 58 722 q 514 1000 293 1000 q 725 957 632 1000 l 833 1164 l 892 1132 l 782 924 q 969 489 969 790 m 514 926 q 286 803 365 926 q 207 476 207 681 q 301 153 207 272 l 679 871 q 514 926 608 926 m 514 53 q 742 175 663 53 q 821 500 821 297 q 728 822 821 703 l 350 106 q 514 53 421 53 z "},"Ù":{"ha":1010,"x_min":24,"x_max":983,"o":"m 864 740 l 864 369 q 772 83 864 188 q 504 -21 679 -21 q 238 83 329 -21 q 146 369 146 188 l 146 782 q 133 894 146 800 l 24 911 l 31 986 q 192 979 164 979 l 392 986 l 397 904 l 288 894 q 278 740 278 822 l 278 369 q 339 150 278 232 q 519 68 400 68 q 701 151 638 68 q 764 369 764 233 l 764 782 q 750 894 764 797 l 642 911 l 649 986 q 796 979 768 979 l 978 986 l 983 904 l 874 894 q 864 740 864 822 m 299 1146 l 340 1247 l 658 1108 l 631 1042 l 508 1093 l 299 1146 z "},"Ú":{"ha":1010,"x_min":24,"x_max":983,"o":"m 864 740 l 864 369 q 772 83 864 188 q 504 -21 679 -21 q 238 83 329 -21 q 146 369 146 188 l 146 782 q 133 894 146 800 l 24 911 l 31 986 q 192 979 164 979 l 392 986 l 397 904 l 288 894 q 278 740 278 822 l 278 369 q 339 150 278 232 q 519 68 400 68 q 701 151 638 68 q 764 369 764 233 l 764 782 q 750 894 764 797 l 642 911 l 649 986 q 796 979 768 979 l 978 986 l 983 904 l 874 894 q 864 740 864 822 m 672 1247 l 714 1146 q 504 1093 531 1101 l 382 1042 l 354 1108 l 672 1247 z "},"Û":{"ha":1010,"x_min":24,"x_max":983,"o":"m 864 740 l 864 369 q 772 83 864 188 q 504 -21 679 -21 q 238 83 329 -21 q 146 369 146 188 l 146 782 q 133 894 146 800 l 24 911 l 31 986 q 192 979 164 979 l 392 986 l 397 904 l 288 894 q 278 740 278 822 l 278 369 q 339 150 278 232 q 519 68 400 68 q 701 151 638 68 q 764 369 764 233 l 764 782 q 750 894 764 797 l 642 911 l 649 986 q 796 979 768 979 l 978 986 l 983 904 l 874 894 q 864 740 864 822 m 507 1240 l 749 1092 l 717 1038 l 594 1094 l 507 1129 l 419 1094 l 297 1038 l 265 1092 l 507 1240 z "},"Ü":{"ha":1010,"x_min":24,"x_max":983,"o":"m 864 740 l 864 369 q 772 83 864 188 q 504 -21 679 -21 q 238 83 329 -21 q 146 369 146 188 l 146 782 q 133 894 146 800 l 24 911 l 31 986 q 192 979 164 979 l 392 986 l 397 904 l 288 894 q 278 740 278 822 l 278 369 q 339 150 278 232 q 519 68 400 68 q 701 151 638 68 q 764 369 764 233 l 764 782 q 750 894 764 797 l 642 911 l 649 986 q 796 979 768 979 l 978 986 l 983 904 l 874 894 q 864 740 864 822 m 671 1228 q 746 1145 746 1228 q 671 1063 746 1063 q 596 1144 596 1063 q 615 1206 596 1183 q 671 1228 635 1228 m 343 1228 q 418 1145 418 1228 q 343 1063 418 1063 q 268 1144 268 1063 q 288 1206 268 1183 q 343 1228 307 1228 z "},"Ý":{"ha":921,"x_min":8,"x_max":896,"o":"m 519 232 q 529 85 519 153 l 654 75 l 644 -7 q 442 0 553 0 l 278 -7 l 271 63 l 381 85 q 393 190 393 165 l 393 357 l 178 772 q 114 874 151 826 l 100 890 l 8 904 l 15 979 l 167 979 l 371 986 l 376 918 l 267 890 q 326 740 282 822 l 467 478 l 626 803 l 665 890 l 560 904 l 567 979 l 692 979 l 890 986 l 896 918 l 801 894 q 714 757 751 829 l 519 379 l 519 232 m 626 1247 l 668 1146 q 458 1093 485 1101 l 336 1042 l 308 1108 l 626 1247 z "},"Þ":{"ha":813,"x_min":58,"x_max":771,"o":"m 461 796 q 690 721 608 796 q 771 505 771 646 q 673 285 771 364 q 429 207 575 207 q 307 210 385 207 q 317 85 308 131 l 442 75 l 432 -7 q 229 0 340 0 l 65 -7 l 58 63 l 168 85 q 181 190 181 167 l 181 789 q 168 894 181 814 l 61 911 l 68 986 q 229 979 201 979 l 419 986 l 425 904 l 317 894 q 308 788 311 861 q 461 796 414 796 m 401 276 q 576 333 513 276 q 640 500 640 390 q 577 668 640 610 q 403 726 514 726 q 307 718 379 726 l 307 283 q 401 276 365 276 z "},"ß":{"ha":868,"x_min":47,"x_max":850,"o":"m 169 190 l 169 611 l 63 611 l 58 669 q 97 681 71 674 q 169 710 144 694 l 169 801 q 244 1000 169 931 q 444 1069 318 1069 q 653 1011 571 1069 q 736 846 736 953 q 661 681 736 742 q 600 634 631 656 q 548 585 569 613 q 526 524 526 557 q 560 462 526 490 q 641 409 593 433 q 736 357 689 385 q 817 284 783 329 q 850 183 850 239 q 624 -14 850 -14 q 514 -1 568 -14 q 433 26 460 13 l 407 40 l 422 229 l 503 225 l 503 172 q 519 89 503 156 q 622 57 556 57 q 732 163 732 57 q 619 289 732 233 q 525 338 572 311 q 445 410 478 365 q 413 510 413 454 q 436 604 413 565 q 493 667 460 643 q 558 714 526 690 q 639 840 639 769 q 585 949 639 911 q 440 988 532 988 q 315 933 349 988 q 282 758 282 878 l 282 232 q 290 0 282 144 l 218 0 l 54 -7 l 47 63 l 157 85 q 169 190 169 167 z "},"à":{"ha":717,"x_min":63,"x_max":693,"o":"m 485 110 q 395 22 458 57 q 251 -14 332 -14 q 117 34 171 -14 q 63 164 63 82 q 249 349 63 318 l 471 386 l 471 432 q 340 624 471 624 q 208 596 267 624 l 199 538 l 199 481 l 118 476 l 103 665 q 353 699 228 699 q 531 631 478 699 q 583 404 583 564 l 583 232 q 594 106 583 171 l 597 85 l 693 75 l 683 -7 q 504 0 615 0 l 485 110 m 272 278 q 185 176 185 264 q 211 103 185 132 q 297 75 238 75 q 408 119 356 75 q 471 232 460 164 l 471 315 l 272 278 m 474 840 l 428 783 l 326 867 l 158 965 l 224 1049 l 474 840 z "},"á":{"ha":717,"x_min":63,"x_max":693,"o":"m 485 110 q 395 22 458 57 q 251 -14 332 -14 q 117 34 171 -14 q 63 164 63 82 q 249 349 63 318 l 471 386 l 471 432 q 340 624 471 624 q 208 596 267 624 l 199 538 l 199 481 l 118 476 l 103 665 q 353 699 228 699 q 531 631 478 699 q 583 404 583 564 l 583 232 q 594 106 583 171 l 597 85 l 693 75 l 683 -7 q 504 0 615 0 l 485 110 m 272 278 q 185 176 185 264 q 211 103 185 132 q 297 75 238 75 q 408 119 356 75 q 471 232 460 164 l 471 315 l 272 278 m 464 1049 l 529 965 q 361 867 382 882 l 260 783 l 214 840 l 464 1049 z "},"â":{"ha":717,"x_min":63,"x_max":693,"o":"m 485 110 q 395 22 458 57 q 251 -14 332 -14 q 117 34 171 -14 q 63 164 63 82 q 249 349 63 318 l 471 386 l 471 432 q 340 624 471 624 q 208 596 267 624 l 199 538 l 199 481 l 118 476 l 103 665 q 353 699 228 699 q 531 631 478 699 q 583 404 583 564 l 583 232 q 594 106 583 171 l 597 85 l 693 75 l 683 -7 q 504 0 615 0 l 485 110 m 272 278 q 185 176 185 264 q 211 103 185 132 q 297 75 238 75 q 408 119 356 75 q 471 232 460 164 l 471 315 l 272 278 m 344 1063 l 575 828 l 529 783 l 426 868 l 344 928 q 310 903 331 918 q 278 881 290 889 q 263 868 267 872 l 160 783 l 114 828 l 344 1063 z "},"ã":{"ha":717,"x_min":63,"x_max":693,"o":"m 485 110 q 395 22 458 57 q 251 -14 332 -14 q 117 34 171 -14 q 63 164 63 82 q 249 349 63 318 l 471 386 l 471 432 q 340 624 471 624 q 208 596 267 624 l 199 538 l 199 481 l 118 476 l 103 665 q 353 699 228 699 q 531 631 478 699 q 583 404 583 564 l 583 232 q 594 106 583 171 l 597 85 l 693 75 l 683 -7 q 504 0 615 0 l 485 110 m 272 278 q 185 176 185 264 q 211 103 185 132 q 297 75 238 75 q 408 119 356 75 q 471 232 460 164 l 471 315 l 272 278 m 553 937 q 547 925 553 937 q 511 876 542 914 q 454 839 481 839 q 349 867 428 839 q 247 896 269 896 q 178 839 210 896 l 168 821 l 118 850 q 136 889 125 865 q 177 951 147 913 q 233 990 207 990 q 340 962 260 990 q 442 933 419 933 q 511 986 478 933 l 521 1004 l 571 975 q 553 937 564 960 z "},"ä":{"ha":717,"x_min":63,"x_max":693,"o":"m 485 110 q 395 22 458 57 q 251 -14 332 -14 q 117 34 171 -14 q 63 164 63 82 q 249 349 63 318 l 471 386 l 471 432 q 340 624 471 624 q 208 596 267 624 l 199 538 l 199 481 l 118 476 l 103 665 q 353 699 228 699 q 531 631 478 699 q 583 404 583 564 l 583 232 q 594 106 583 171 l 597 85 l 693 75 l 683 -7 q 504 0 615 0 l 485 110 m 272 278 q 185 176 185 264 q 211 103 185 132 q 297 75 238 75 q 408 119 356 75 q 471 232 460 164 l 471 315 l 272 278 m 508 990 q 583 908 583 990 q 508 825 583 825 q 433 907 433 825 q 453 968 433 946 q 508 990 472 990 m 181 990 q 256 908 256 990 q 181 825 256 825 q 106 907 106 825 q 125 968 106 946 q 181 990 144 990 z "},"å":{"ha":717,"x_min":63,"x_max":693,"o":"m 485 110 q 395 22 458 57 q 251 -14 332 -14 q 117 34 171 -14 q 63 164 63 82 q 249 349 63 318 l 471 386 l 471 432 q 340 624 471 624 q 208 596 267 624 l 199 538 l 199 481 l 118 476 l 103 665 q 353 699 228 699 q 531 631 478 699 q 583 404 583 564 l 583 232 q 594 106 583 171 l 597 85 l 693 75 l 683 -7 q 504 0 615 0 l 485 110 m 272 278 q 185 176 185 264 q 211 103 185 132 q 297 75 238 75 q 408 119 356 75 q 471 232 460 164 l 471 315 l 272 278 m 251 1011 q 267 1027 251 1011 q 344 1043 283 1043 q 437 1011 406 1043 q 468 924 468 979 q 437 838 468 869 q 344 806 406 806 q 251 838 283 806 q 219 924 219 869 q 251 1011 219 979 m 403 924 q 403 957 403 924 q 345 990 403 990 q 288 924 288 990 q 345 858 288 858 q 403 924 403 858 z "},"æ":{"ha":1050,"x_min":56,"x_max":1011,"o":"m 96 665 q 356 699 221 699 q 539 608 490 699 q 747 697 621 697 q 1011 431 992 697 l 990 378 l 575 331 q 635 147 579 217 q 778 76 692 76 q 875 91 826 76 q 947 119 924 106 l 971 133 l 1010 69 q 901 13 975 39 q 764 -14 828 -14 q 507 147 578 -14 q 257 -14 413 -14 q 110 36 164 -14 q 56 164 56 86 q 215 343 56 318 l 464 385 l 464 432 q 333 624 464 624 q 204 597 257 624 l 192 532 l 192 482 l 111 478 l 96 665 m 265 278 q 198 245 218 268 q 178 176 178 222 q 204 102 178 129 q 279 75 231 75 q 410 140 357 75 q 464 299 464 204 l 464 314 l 265 278 m 886 447 q 848 578 886 532 q 740 625 810 625 q 628 567 671 625 q 578 401 585 508 l 886 444 l 886 447 z "},"ç":{"ha":647,"x_min":56,"x_max":608,"o":"m 375 699 q 593 650 472 699 l 579 476 l 499 481 l 499 531 q 489 578 499 544 q 375 619 439 619 q 232 539 278 619 q 186 342 186 458 q 232 151 186 226 q 375 76 278 76 q 472 89 424 76 q 544 114 521 101 l 569 126 l 608 61 q 519 14 579 36 q 404 -12 460 -8 l 390 -82 q 492 -115 453 -83 q 531 -203 531 -147 q 488 -292 531 -258 q 382 -326 444 -326 q 267 -301 319 -326 l 285 -253 q 366 -268 333 -268 q 419 -251 399 -268 q 440 -203 440 -233 q 375 -143 440 -143 l 346 -144 l 331 -131 l 340 -12 q 128 92 201 -3 q 56 346 56 186 q 138 602 56 506 q 375 699 219 699 z "},"è":{"ha":664,"x_min":56,"x_max":625,"o":"m 358 699 q 625 375 625 699 l 601 329 l 186 329 q 238 151 189 226 q 375 76 288 76 q 479 91 428 76 q 556 119 531 106 l 582 133 l 621 69 q 592 46 611 60 q 508 9 572 32 q 375 -14 444 -14 q 138 83 221 -14 q 56 341 56 179 q 133 601 56 503 q 358 699 210 699 m 353 626 q 188 399 207 626 l 496 422 q 497 450 497 443 q 460 577 497 528 q 353 626 424 626 m 492 840 l 446 783 l 344 867 l 176 965 l 242 1049 l 492 840 z "},"é":{"ha":664,"x_min":56,"x_max":625,"o":"m 358 699 q 625 375 625 699 l 601 329 l 186 329 q 238 151 189 226 q 375 76 288 76 q 479 91 428 76 q 556 119 531 106 l 582 133 l 621 69 q 592 46 611 60 q 508 9 572 32 q 375 -14 444 -14 q 138 83 221 -14 q 56 341 56 179 q 133 601 56 503 q 358 699 210 699 m 353 626 q 188 399 207 626 l 496 422 q 497 450 497 443 q 460 577 497 528 q 353 626 424 626 m 482 1049 l 547 965 q 379 867 400 882 l 278 783 l 232 840 l 482 1049 z "},"ê":{"ha":664,"x_min":56,"x_max":625,"o":"m 358 699 q 625 375 625 699 l 601 329 l 186 329 q 238 151 189 226 q 375 76 288 76 q 479 91 428 76 q 556 119 531 106 l 582 133 l 621 69 q 592 46 611 60 q 508 9 572 32 q 375 -14 444 -14 q 138 83 221 -14 q 56 341 56 179 q 133 601 56 503 q 358 699 210 699 m 353 626 q 188 399 207 626 l 496 422 q 497 450 497 443 q 460 577 497 528 q 353 626 424 626 m 363 1063 l 593 828 l 547 783 l 444 868 l 363 928 q 328 903 349 918 q 297 881 308 889 q 281 868 285 872 l 178 783 l 132 828 l 363 1063 z "},"ë":{"ha":664,"x_min":56,"x_max":625,"o":"m 358 699 q 625 375 625 699 l 601 329 l 186 329 q 238 151 189 226 q 375 76 288 76 q 479 91 428 76 q 556 119 531 106 l 582 133 l 621 69 q 592 46 611 60 q 508 9 572 32 q 375 -14 444 -14 q 138 83 221 -14 q 56 341 56 179 q 133 601 56 503 q 358 699 210 699 m 353 626 q 188 399 207 626 l 496 422 q 497 450 497 443 q 460 577 497 528 q 353 626 424 626 m 526 990 q 601 908 601 990 q 526 825 601 825 q 451 907 451 825 q 471 968 451 946 q 526 990 490 990 m 199 990 q 274 908 274 990 q 199 825 274 825 q 124 907 124 825 q 143 968 124 946 q 199 990 163 990 z "},"ì":{"ha":418,"x_min":24,"x_max":400,"o":"m 169 190 l 169 490 l 156 596 l 50 618 l 57 692 q 185 686 157 686 l 265 686 l 292 661 q 282 449 282 518 l 282 232 l 292 85 l 400 75 l 390 -7 q 211 0 322 0 l 57 -7 l 50 63 l 156 85 q 169 190 169 163 m 339 840 l 293 783 l 192 867 l 24 965 l 89 1049 l 339 840 z "},"í":{"ha":418,"x_min":50,"x_max":400,"o":"m 169 190 l 169 490 l 156 596 l 50 618 l 57 692 q 185 686 157 686 l 265 686 l 292 661 q 282 449 282 518 l 282 232 l 292 85 l 400 75 l 390 -7 q 211 0 322 0 l 57 -7 l 50 63 l 156 85 q 169 190 169 163 m 329 1049 l 394 965 q 226 867 247 882 l 125 783 l 79 840 l 329 1049 z "},"î":{"ha":418,"x_min":-21,"x_max":440,"o":"m 183 190 l 183 490 l 169 596 l 64 618 l 71 692 q 199 686 171 686 l 279 686 l 306 661 q 296 449 296 518 l 296 232 l 306 85 l 414 75 l 404 -7 q 225 0 336 0 l 71 -7 l 64 63 l 169 85 q 183 190 183 163 m 210 1063 l 440 828 l 394 783 l 292 868 l 210 928 q 176 903 196 918 q 144 881 156 889 q 128 868 132 872 l 25 783 l -21 828 l 210 1063 z "},"ï":{"ha":418,"x_min":-11,"x_max":400,"o":"m 308 990 q 383 908 383 990 q 308 825 383 825 q 233 907 233 825 q 253 968 233 946 q 308 990 272 990 m 64 990 q 139 908 139 990 q 64 825 139 825 q -11 907 -11 825 q 8 968 -11 946 q 64 990 28 990 m 169 190 l 169 490 l 156 596 l 50 618 l 57 692 q 185 686 157 686 l 265 686 l 292 661 q 282 449 282 518 l 282 232 l 292 85 l 400 75 l 390 -7 q 211 0 322 0 l 57 -7 l 50 63 l 156 85 q 169 190 169 163 z "},"ð":{"ha":754,"x_min":57,"x_max":696,"o":"m 503 893 q 647 646 599 788 q 696 344 696 504 q 613 85 696 183 q 378 -14 529 -14 q 142 81 228 -14 q 57 327 57 175 q 140 575 57 479 q 358 671 224 671 q 456 649 399 671 l 444 586 q 371 592 408 592 q 235 516 281 592 q 189 328 189 440 q 234 140 189 215 q 377 65 279 65 q 520 145 475 65 q 565 349 565 225 q 424 853 565 672 l 251 764 l 221 813 l 385 897 q 233 1006 321 961 l 260 1063 q 460 936 374 1018 l 619 1019 l 650 968 l 503 893 z "},"ñ":{"ha":847,"x_min":50,"x_max":833,"o":"m 185 686 l 235 686 l 261 661 l 269 572 q 352 662 297 625 q 481 699 407 699 q 665 620 615 699 q 715 383 715 542 l 715 232 l 725 85 l 833 75 l 824 -7 q 644 0 756 0 l 503 -7 l 496 63 l 589 85 q 603 190 603 146 l 603 383 q 460 614 603 614 q 331 549 379 614 q 282 381 283 485 l 282 232 l 292 85 l 400 75 l 390 -7 q 211 0 322 0 l 57 -7 l 50 63 l 156 85 q 169 183 167 151 l 169 490 l 156 596 l 50 618 l 57 692 q 185 686 157 686 m 674 937 q 668 925 674 937 q 632 876 663 914 q 575 839 601 839 q 469 867 549 839 q 368 896 390 896 q 300 839 331 896 l 289 821 l 239 850 q 257 889 246 865 q 298 951 268 913 q 354 990 328 990 q 460 962 381 990 q 563 933 540 933 q 603 951 585 933 q 632 986 622 969 l 642 1004 l 692 975 q 674 937 685 960 z "},"ò":{"ha":750,"x_min":56,"x_max":694,"o":"m 376 699 q 454 699 376 699 q 613 603 532 699 q 694 343 694 507 q 612 83 694 179 q 375 -14 529 -14 q 138 83 221 -14 q 56 342 56 179 q 138 602 56 506 q 376 699 221 699 m 519 143 q 542 182 519 143 q 564 342 564 221 q 519 541 564 463 q 375 619 475 619 q 231 541 275 619 q 186 342 186 463 q 231 143 186 221 q 375 65 275 65 q 519 143 475 65 m 515 840 l 469 783 l 368 867 l 200 965 l 265 1049 l 515 840 z "},"ó":{"ha":750,"x_min":56,"x_max":694,"o":"m 376 699 q 454 699 376 699 q 613 603 532 699 q 694 343 694 507 q 612 83 694 179 q 375 -14 529 -14 q 138 83 221 -14 q 56 342 56 179 q 138 602 56 506 q 376 699 221 699 m 519 143 q 542 182 519 143 q 564 342 564 221 q 519 541 564 463 q 375 619 475 619 q 231 541 275 619 q 186 342 186 463 q 231 143 186 221 q 375 65 275 65 q 519 143 475 65 m 506 1049 l 571 965 q 403 867 424 882 l 301 783 l 256 840 l 506 1049 z "},"ô":{"ha":750,"x_min":56,"x_max":694,"o":"m 376 699 q 454 699 376 699 q 613 603 532 699 q 694 343 694 507 q 612 83 694 179 q 375 -14 529 -14 q 138 83 221 -14 q 56 342 56 179 q 138 602 56 506 q 376 699 221 699 m 519 143 q 542 182 519 143 q 564 342 564 221 q 519 541 564 463 q 375 619 475 619 q 231 541 275 619 q 186 342 186 463 q 231 143 186 221 q 375 65 275 65 q 519 143 475 65 m 386 1063 l 617 828 l 571 783 l 468 868 l 386 928 q 352 903 372 918 q 320 881 332 889 q 304 868 308 872 l 201 783 l 156 828 l 386 1063 z "},"õ":{"ha":750,"x_min":56,"x_max":694,"o":"m 376 699 q 454 699 376 699 q 613 603 532 699 q 694 343 694 507 q 612 83 694 179 q 375 -14 529 -14 q 138 83 221 -14 q 56 342 56 179 q 138 602 56 506 q 376 699 221 699 m 519 143 q 542 182 519 143 q 564 342 564 221 q 519 541 564 463 q 375 619 475 619 q 231 541 275 619 q 186 342 186 463 q 231 143 186 221 q 375 65 275 65 q 519 143 475 65 m 594 937 q 589 925 594 937 q 553 876 583 914 q 496 839 522 839 q 390 867 469 839 q 289 896 311 896 q 219 839 251 896 l 210 821 l 160 850 q 178 889 167 865 q 219 951 189 913 q 275 990 249 990 q 381 962 301 990 q 483 933 461 933 q 553 986 519 933 l 563 1004 l 613 975 q 594 937 606 960 z "},"ö":{"ha":750,"x_min":56,"x_max":694,"o":"m 376 699 q 454 699 376 699 q 613 603 532 699 q 694 343 694 507 q 612 83 694 179 q 375 -14 529 -14 q 138 83 221 -14 q 56 342 56 179 q 138 602 56 506 q 376 699 221 699 m 519 143 q 542 182 519 143 q 564 342 564 221 q 519 541 564 463 q 375 619 475 619 q 231 541 275 619 q 186 342 186 463 q 231 143 186 221 q 375 65 275 65 q 519 143 475 65 m 550 990 q 625 908 625 990 q 550 825 625 825 q 475 907 475 825 q 494 968 475 946 q 550 990 514 990 m 222 990 q 297 908 297 990 q 222 825 297 825 q 147 907 147 825 q 167 968 147 946 q 222 990 186 990 z "},"÷":{"ha":778,"x_min":72,"x_max":704,"o":"m 704 296 l 72 296 l 72 388 l 704 394 l 704 296 m 338 653 q 349 665 338 653 q 399 678 360 678 q 459 654 438 678 q 481 589 481 631 q 459 523 481 547 q 399 499 438 499 q 338 523 360 499 q 317 588 317 547 q 338 653 317 628 m 338 163 q 349 175 338 163 q 399 188 360 188 q 459 164 438 188 q 481 99 481 140 q 459 33 481 57 q 399 8 438 8 q 338 33 360 8 q 317 97 317 57 q 338 163 317 138 z "},"ø":{"ha":750,"x_min":56,"x_max":694,"o":"m 56 342 q 138 602 56 506 q 375 699 221 699 q 525 668 460 699 l 611 831 l 667 803 l 578 636 q 694 342 694 544 q 612 83 694 179 q 375 -14 529 -14 q 246 7 308 -14 l 169 -137 l 115 -110 l 192 36 q 56 342 56 126 m 375 619 q 231 541 275 619 q 186 332 186 463 q 240 128 186 201 l 481 585 q 375 619 439 619 m 375 65 q 519 143 475 65 q 564 339 564 221 q 524 532 564 457 l 288 86 q 375 65 322 65 z "},"ù":{"ha":822,"x_min":32,"x_max":785,"o":"m 578 686 l 658 686 l 685 661 q 675 449 675 518 l 675 232 q 686 106 675 171 l 689 85 l 785 75 l 775 -7 q 596 0 707 0 l 578 108 q 368 -14 507 -14 q 183 65 229 -14 q 138 301 138 143 l 138 490 l 124 596 l 32 618 l 39 692 q 153 686 125 686 l 233 686 l 260 661 q 250 449 250 518 l 250 254 q 388 75 250 75 q 516 139 469 75 q 563 292 563 203 l 563 490 l 549 596 l 450 618 l 457 692 q 578 686 550 686 m 510 840 l 464 783 l 363 867 l 194 965 l 260 1049 l 510 840 z "},"ú":{"ha":822,"x_min":32,"x_max":785,"o":"m 578 686 l 658 686 l 685 661 q 675 449 675 518 l 675 232 q 686 106 675 171 l 689 85 l 785 75 l 775 -7 q 596 0 707 0 l 578 108 q 368 -14 507 -14 q 183 65 229 -14 q 138 301 138 143 l 138 490 l 124 596 l 32 618 l 39 692 q 153 686 125 686 l 233 686 l 260 661 q 250 449 250 518 l 250 254 q 388 75 250 75 q 516 139 469 75 q 563 292 563 203 l 563 490 l 549 596 l 450 618 l 457 692 q 578 686 550 686 m 500 1049 l 565 965 q 397 867 418 882 l 296 783 l 250 840 l 500 1049 z "},"û":{"ha":822,"x_min":32,"x_max":785,"o":"m 578 686 l 658 686 l 685 661 q 675 449 675 518 l 675 232 q 686 106 675 171 l 689 85 l 785 75 l 775 -7 q 596 0 707 0 l 578 108 q 368 -14 507 -14 q 183 65 229 -14 q 138 301 138 143 l 138 490 l 124 596 l 32 618 l 39 692 q 153 686 125 686 l 233 686 l 260 661 q 250 449 250 518 l 250 254 q 388 75 250 75 q 516 139 469 75 q 563 292 563 203 l 563 490 l 549 596 l 450 618 l 457 692 q 578 686 550 686 m 381 1063 l 611 828 l 565 783 l 463 868 l 381 928 q 347 903 367 918 q 315 881 326 889 q 299 868 303 872 l 196 783 l 150 828 l 381 1063 z "},"ü":{"ha":822,"x_min":32,"x_max":785,"o":"m 578 686 l 658 686 l 685 661 q 675 449 675 518 l 675 232 q 686 106 675 171 l 689 85 l 785 75 l 775 -7 q 596 0 707 0 l 578 108 q 368 -14 507 -14 q 183 65 229 -14 q 138 301 138 143 l 138 490 l 124 596 l 32 618 l 39 692 q 153 686 125 686 l 233 686 l 260 661 q 250 449 250 518 l 250 254 q 388 75 250 75 q 516 139 469 75 q 563 292 563 203 l 563 490 l 549 596 l 450 618 l 457 692 q 578 686 550 686 m 554 990 q 629 908 629 990 q 554 825 629 825 q 479 907 479 825 q 499 968 479 946 q 554 990 518 990 m 226 990 q 301 908 301 990 q 226 825 301 825 q 151 907 151 825 q 171 968 151 946 q 226 990 190 990 z "},"ý":{"ha":749,"x_min":0,"x_max":736,"o":"m 388 144 l 508 467 q 546 601 528 521 l 444 618 l 451 690 q 572 686 544 686 l 732 693 l 736 613 l 663 601 q 590 443 613 500 l 304 -326 l 81 -311 l 92 -231 l 147 -232 q 240 -218 167 -232 q 293 -124 275 -169 l 338 0 l 139 463 q 68 601 118 514 l 0 618 l 7 690 q 121 686 93 686 l 311 693 l 315 613 l 215 603 q 250 485 233 524 l 388 144 m 494 1049 l 560 965 q 392 867 413 882 l 290 783 l 244 840 l 494 1049 z "},"þ":{"ha":757,"x_min":1,"x_max":701,"o":"m 136 1050 l 217 1050 l 243 1025 l 233 831 l 233 593 q 308 665 253 631 q 417 699 363 699 q 627 609 553 699 q 701 358 701 519 q 611 91 701 196 q 382 -14 521 -14 q 233 21 311 -14 l 233 -85 l 243 -232 l 379 -242 l 369 -324 q 164 -317 275 -317 l 22 -324 l 15 -254 l 107 -232 q 121 -133 121 -165 l 121 854 l 107 960 l 1 982 l 8 1056 q 136 1050 108 1050 m 406 614 q 281 547 329 614 q 233 381 233 481 l 233 119 q 374 69 306 69 q 524 142 472 69 q 576 353 576 215 q 406 614 576 614 z "},"ÿ":{"ha":749,"x_min":0,"x_max":736,"o":"m 388 144 l 508 467 q 546 601 528 521 l 444 618 l 451 690 q 572 686 544 686 l 732 693 l 736 613 l 663 601 q 590 443 613 500 l 304 -326 l 81 -311 l 92 -231 l 147 -232 q 240 -218 167 -232 q 293 -124 275 -169 l 338 0 l 139 463 q 68 601 118 514 l 0 618 l 7 690 q 121 686 93 686 l 311 693 l 315 613 l 215 603 q 250 485 233 524 l 388 144 m 539 990 q 614 908 614 990 q 539 825 614 825 q 464 907 464 825 q 483 968 464 946 q 539 990 503 990 m 211 990 q 286 908 286 990 q 211 825 286 825 q 136 907 136 825 q 156 968 136 946 q 211 990 175 990 z "},"Ā":{"ha":922,"x_min":14,"x_max":917,"o":"m 917 75 l 910 0 l 769 0 l 571 -7 l 565 61 l 667 89 l 629 239 l 600 322 l 294 322 l 250 176 l 236 89 l 333 75 l 326 0 l 207 0 l 19 -7 l 14 61 l 101 85 l 161 222 l 410 979 l 490 993 l 776 207 l 831 89 l 917 75 m 442 774 l 319 392 l 572 397 l 442 774 m 238 1071 l 238 1144 l 685 1144 l 678 1071 l 238 1071 z "},"ā":{"ha":717,"x_min":63,"x_max":693,"o":"m 485 110 q 395 22 458 57 q 251 -14 332 -14 q 117 34 171 -14 q 63 164 63 82 q 249 349 63 318 l 471 386 l 471 432 q 340 624 471 624 q 208 596 267 624 l 199 538 l 199 481 l 118 476 l 103 665 q 353 699 228 699 q 531 631 478 699 q 583 404 583 564 l 583 232 q 594 106 583 171 l 597 85 l 693 75 l 683 -7 q 504 0 615 0 l 485 110 m 272 278 q 185 176 185 264 q 211 103 185 132 q 297 75 238 75 q 408 119 356 75 q 471 232 460 164 l 471 315 l 272 278 m 121 828 l 121 901 l 568 901 l 561 828 l 121 828 z "},"Ă":{"ha":922,"x_min":14,"x_max":917,"o":"m 917 75 l 910 0 l 769 0 l 571 -7 l 565 61 l 667 89 l 629 239 l 600 322 l 294 322 l 250 176 l 236 89 l 333 75 l 326 0 l 207 0 l 19 -7 l 14 61 l 101 85 l 161 222 l 410 979 l 490 993 l 776 207 l 831 89 l 917 75 m 442 774 l 319 392 l 572 397 l 442 774 m 553 1247 l 631 1247 q 581 1103 631 1153 q 438 1053 531 1053 q 294 1103 344 1053 q 244 1247 244 1153 l 322 1247 q 354 1163 322 1194 q 438 1131 386 1131 q 521 1163 489 1131 q 553 1247 553 1194 z "},"ă":{"ha":717,"x_min":63,"x_max":693,"o":"m 485 110 q 395 22 458 57 q 251 -14 332 -14 q 117 34 171 -14 q 63 164 63 82 q 249 349 63 318 l 471 386 l 471 432 q 340 624 471 624 q 208 596 267 624 l 199 538 l 199 481 l 118 476 l 103 665 q 353 699 228 699 q 531 631 478 699 q 583 404 583 564 l 583 232 q 594 106 583 171 l 597 85 l 693 75 l 683 -7 q 504 0 615 0 l 485 110 m 272 278 q 185 176 185 264 q 211 103 185 132 q 297 75 238 75 q 408 119 356 75 q 471 232 460 164 l 471 315 l 272 278 m 460 1010 l 538 1010 q 488 865 538 915 q 344 815 438 815 q 201 865 251 815 q 151 1010 151 915 l 229 1010 q 261 925 229 957 q 344 893 293 893 q 428 925 396 893 q 460 1010 460 957 z "},"Ą":{"ha":922,"x_min":14,"x_max":917,"o":"m 708 0 q 608 -51 646 -8 q 569 -133 569 -94 q 647 -215 569 -215 q 724 -197 679 -215 l 743 -243 q 618 -274 678 -274 q 519 -242 558 -274 q 481 -159 481 -211 q 505 -73 481 -107 q 596 18 529 -39 q 647 133 647 64 q 629 239 647 171 l 600 322 l 294 322 l 250 176 l 236 89 l 333 75 l 326 0 l 207 0 l 19 -7 l 14 61 l 101 85 l 161 222 l 410 979 l 490 993 l 776 207 l 831 89 l 917 75 l 910 0 l 708 0 m 442 774 l 319 392 l 572 397 l 442 774 z "},"ą":{"ha":717,"x_min":63,"x_max":693,"o":"m 485 110 q 395 22 458 57 q 251 -14 332 -14 q 117 34 171 -14 q 63 164 63 82 q 249 349 63 318 l 471 386 l 471 432 q 340 624 471 624 q 208 596 267 624 l 199 538 l 199 481 l 118 476 l 103 665 q 353 699 228 699 q 531 631 478 699 q 583 404 583 564 l 583 232 q 594 106 583 171 l 597 85 l 693 75 l 683 -7 q 569 0 640 -3 q 499 -150 499 -81 q 575 -215 499 -215 q 653 -197 611 -215 l 672 -243 q 547 -274 607 -274 q 449 -242 488 -274 q 410 -160 410 -211 q 431 -78 410 -110 q 504 0 451 -46 l 485 110 m 272 278 q 185 176 185 264 q 211 103 185 132 q 297 75 238 75 q 408 119 356 75 q 471 232 460 164 l 471 315 l 272 278 z "},"Ć":{"ha":847,"x_min":58,"x_max":799,"o":"m 499 -21 q 172 117 285 -21 q 58 489 58 256 q 172 861 58 722 q 499 1000 285 1000 q 786 953 600 1000 l 772 747 l 690 753 l 690 818 q 674 888 690 832 q 499 919 578 919 q 278 799 354 919 q 201 490 201 679 q 278 181 201 301 q 497 60 354 60 q 686 90 588 60 q 706 168 706 154 l 708 233 l 790 236 l 799 26 q 499 -21 613 -21 m 660 1247 l 701 1146 q 492 1093 518 1101 l 369 1042 l 342 1108 l 660 1247 z "},"ć":{"ha":647,"x_min":56,"x_max":608,"o":"m 375 699 q 593 650 472 699 l 579 476 l 499 481 l 499 531 q 489 578 499 544 q 375 619 439 619 q 232 539 278 619 q 186 342 186 458 q 232 151 186 226 q 375 76 278 76 q 472 89 424 76 q 544 114 521 101 l 569 126 l 608 61 q 507 10 576 33 q 374 -14 438 -14 q 137 82 218 -14 q 56 342 56 178 q 138 602 56 506 q 375 699 219 699 m 499 1049 l 564 965 q 396 867 417 882 l 294 783 l 249 840 l 499 1049 z "},"Ĉ":{"ha":847,"x_min":58,"x_max":799,"o":"m 499 -21 q 172 117 285 -21 q 58 489 58 256 q 172 861 58 722 q 499 1000 285 1000 q 786 953 600 1000 l 772 747 l 690 753 l 690 818 q 674 888 690 832 q 499 919 578 919 q 278 799 354 919 q 201 490 201 679 q 278 181 201 301 q 497 60 354 60 q 686 90 588 60 q 706 168 706 154 l 708 233 l 790 236 l 799 26 q 499 -21 613 -21 m 494 1240 l 736 1092 l 704 1038 l 582 1094 l 494 1129 l 407 1094 l 285 1038 l 253 1092 l 494 1240 z "},"ĉ":{"ha":647,"x_min":56,"x_max":610,"o":"m 375 699 q 593 650 472 699 l 579 476 l 499 481 l 499 531 q 489 578 499 544 q 375 619 439 619 q 232 539 278 619 q 186 342 186 458 q 232 151 186 226 q 375 76 278 76 q 472 89 424 76 q 544 114 521 101 l 569 126 l 608 61 q 507 10 576 33 q 374 -14 438 -14 q 137 82 218 -14 q 56 342 56 178 q 138 602 56 506 q 375 699 219 699 m 379 1063 l 610 828 l 564 783 l 461 868 l 379 928 q 345 903 365 918 q 313 881 325 889 q 297 868 301 872 l 194 783 l 149 828 l 379 1063 z "},"Ċ":{"ha":847,"x_min":58,"x_max":799,"o":"m 499 -21 q 172 117 285 -21 q 58 489 58 256 q 172 861 58 722 q 499 1000 285 1000 q 786 953 600 1000 l 772 747 l 690 753 l 690 818 q 674 888 690 832 q 499 919 578 919 q 278 799 354 919 q 201 490 201 679 q 278 181 201 301 q 497 60 354 60 q 686 90 588 60 q 706 168 706 154 l 708 233 l 790 236 l 799 26 q 499 -21 613 -21 m 434 1211 q 445 1224 434 1211 q 494 1236 456 1236 q 555 1213 533 1236 q 576 1147 576 1189 q 555 1081 576 1106 q 494 1057 533 1057 q 434 1081 456 1057 q 413 1146 413 1106 q 434 1211 413 1186 z "},"ċ":{"ha":647,"x_min":56,"x_max":608,"o":"m 375 699 q 593 650 472 699 l 579 476 l 499 481 l 499 531 q 489 578 499 544 q 375 619 439 619 q 232 539 278 619 q 186 342 186 458 q 232 151 186 226 q 375 76 278 76 q 472 89 424 76 q 544 114 521 101 l 569 126 l 608 61 q 507 10 576 33 q 374 -14 438 -14 q 137 82 218 -14 q 56 342 56 178 q 138 602 56 506 q 375 699 219 699 m 319 975 q 330 988 319 975 q 379 1000 340 1000 q 440 976 418 1000 q 461 911 461 953 q 440 845 461 869 q 379 821 418 821 q 319 845 340 821 q 297 910 297 869 q 319 975 297 950 z "},"Č":{"ha":847,"x_min":58,"x_max":799,"o":"m 499 -21 q 172 117 285 -21 q 58 489 58 256 q 172 861 58 722 q 499 1000 285 1000 q 786 953 600 1000 l 772 747 l 690 753 l 690 818 q 674 888 690 832 q 499 919 578 919 q 278 799 354 919 q 201 490 201 679 q 278 181 201 301 q 497 60 354 60 q 686 90 588 60 q 706 168 706 154 l 708 233 l 790 236 l 799 26 q 499 -21 613 -21 m 704 1240 l 736 1186 l 494 1038 l 253 1186 l 285 1240 l 407 1183 l 494 1149 l 582 1183 l 704 1240 z "},"č":{"ha":647,"x_min":56,"x_max":610,"o":"m 375 699 q 593 650 472 699 l 579 476 l 499 481 l 499 531 q 489 578 499 544 q 375 619 439 619 q 232 539 278 619 q 186 342 186 458 q 232 151 186 226 q 375 76 278 76 q 472 89 424 76 q 544 114 521 101 l 569 126 l 608 61 q 507 10 576 33 q 374 -14 438 -14 q 137 82 218 -14 q 56 342 56 178 q 138 602 56 506 q 375 699 219 699 m 194 1063 l 297 978 q 379 918 303 974 l 461 978 l 564 1063 l 610 1018 l 379 783 l 149 1018 l 194 1063 z "},"Ď":{"ha":1001,"x_min":58,"x_max":943,"o":"m 464 -8 l 229 0 l 65 -7 l 58 63 l 168 85 q 181 190 181 167 l 181 789 q 168 894 181 814 l 61 911 l 68 986 q 204 979 157 982 q 326 987 240 981 q 464 993 413 993 q 818 858 693 993 q 943 494 943 724 q 815 128 943 264 q 464 -8 686 -8 m 465 910 q 317 903 375 910 q 307 747 307 811 l 307 232 q 317 79 307 118 q 465 74 389 74 q 719 190 632 74 q 806 490 806 307 q 719 792 806 674 q 465 910 632 910 m 669 1240 l 701 1186 l 460 1038 l 218 1186 l 250 1240 l 372 1183 l 460 1149 l 547 1183 l 669 1240 z "},"ď":{"ha":856,"x_min":57,"x_max":842,"o":"m 732 1050 l 842 1050 l 824 713 l 743 717 l 744 847 l 732 1050 m 336 -14 q 131 81 206 -14 q 57 342 57 176 q 135 603 57 508 q 349 699 214 699 q 522 665 429 699 l 522 854 l 508 960 l 386 982 l 393 1056 q 538 1050 510 1050 l 618 1050 l 644 1025 q 635 813 635 882 l 635 232 q 644 106 635 171 l 649 85 l 744 75 l 735 -7 q 556 0 667 0 l 536 111 q 453 25 515 64 q 336 -14 392 -14 m 522 288 l 522 564 q 362 614 446 614 q 231 542 278 614 q 185 344 185 471 q 228 147 185 218 q 350 75 271 75 q 476 131 429 75 q 522 288 522 188 z "},"Đ":{"ha":1001,"x_min":58,"x_max":943,"o":"m 464 -8 l 229 0 l 65 -7 l 58 63 l 168 85 q 181 190 181 167 l 181 468 l 58 468 l 58 528 l 181 528 l 181 789 q 168 894 181 814 l 61 911 l 68 986 q 204 979 157 982 q 326 987 240 981 q 464 993 413 993 q 818 858 693 993 q 943 494 943 724 q 815 128 943 264 q 464 -8 686 -8 m 307 468 l 307 232 q 317 79 307 118 q 465 74 389 74 q 719 190 632 74 q 806 490 806 307 q 719 792 806 674 q 465 910 632 910 q 317 903 375 910 q 307 747 307 811 l 307 528 l 506 528 l 499 468 l 307 468 z "},"đ":{"ha":782,"x_min":57,"x_max":764,"o":"m 336 -14 q 131 81 206 -14 q 57 342 57 176 q 135 603 57 508 q 349 699 214 699 q 522 665 429 699 l 522 782 l 369 782 l 369 843 l 522 843 l 522 854 l 508 960 l 386 982 l 393 1056 q 538 1050 510 1050 l 618 1050 l 644 1025 q 635 843 636 917 l 764 843 l 764 782 l 635 782 l 635 232 q 644 106 635 171 l 649 85 l 744 75 l 735 -7 q 556 0 667 0 l 536 111 q 453 25 515 64 q 336 -14 392 -14 m 522 288 l 522 564 q 362 614 446 614 q 231 542 278 614 q 185 344 185 471 q 228 147 185 218 q 350 75 271 75 q 476 131 429 75 q 522 288 522 188 z "},"Ē":{"ha":817,"x_min":58,"x_max":764,"o":"m 229 979 l 540 979 l 699 993 l 725 968 l 735 779 l 654 772 q 644 833 650 806 q 611 894 638 861 q 499 901 535 901 l 317 901 q 307 747 307 799 l 307 550 q 367 547 354 547 l 468 547 l 551 560 l 564 651 l 628 644 q 626 528 626 556 l 631 376 l 564 368 l 551 461 q 440 469 468 469 l 367 469 q 307 465 342 469 l 307 232 q 317 79 307 172 l 517 79 q 638 92 569 79 q 666 138 664 128 q 677 186 668 149 q 688 236 686 224 l 764 229 l 743 19 l 717 -6 q 558 0 586 0 l 229 0 l 65 -7 l 58 63 l 168 85 q 181 190 181 167 l 181 789 q 168 894 181 814 l 61 911 l 68 986 q 229 979 201 979 m 185 1071 l 185 1144 l 632 1144 l 625 1071 l 185 1071 z "},"ē":{"ha":664,"x_min":56,"x_max":625,"o":"m 358 699 q 625 375 625 699 l 601 329 l 186 329 q 238 151 189 226 q 375 76 288 76 q 479 91 428 76 q 556 119 531 106 l 582 133 l 621 69 q 592 46 611 60 q 508 9 572 32 q 375 -14 444 -14 q 138 83 221 -14 q 56 341 56 179 q 133 601 56 503 q 358 699 210 699 m 353 626 q 188 399 207 626 l 496 422 q 497 450 497 443 q 460 577 497 528 q 353 626 424 626 m 139 828 l 139 901 l 586 901 l 579 828 l 139 828 z "},"Ĕ":{"ha":817,"x_min":58,"x_max":764,"o":"m 229 979 l 540 979 l 699 993 l 725 968 l 735 779 l 654 772 q 644 833 650 806 q 611 894 638 861 q 499 901 535 901 l 317 901 q 307 747 307 799 l 307 550 q 367 547 354 547 l 468 547 l 551 560 l 564 651 l 628 644 q 626 528 626 556 l 631 376 l 564 368 l 551 461 q 440 469 468 469 l 367 469 q 307 465 342 469 l 307 232 q 317 79 307 172 l 517 79 q 638 92 569 79 q 666 138 664 128 q 677 186 668 149 q 688 236 686 224 l 764 229 l 743 19 l 717 -6 q 558 0 586 0 l 229 0 l 65 -7 l 58 63 l 168 85 q 181 190 181 167 l 181 789 q 168 894 181 814 l 61 911 l 68 986 q 229 979 201 979 m 524 1247 l 601 1247 q 551 1103 601 1153 q 408 1053 501 1053 q 265 1103 315 1053 q 215 1247 215 1153 l 293 1247 q 325 1163 293 1194 q 408 1131 357 1131 q 492 1163 460 1131 q 524 1247 524 1194 z "},"ĕ":{"ha":664,"x_min":56,"x_max":625,"o":"m 358 699 q 625 375 625 699 l 601 329 l 186 329 q 238 151 189 226 q 375 76 288 76 q 479 91 428 76 q 556 119 531 106 l 582 133 l 621 69 q 592 46 611 60 q 508 9 572 32 q 375 -14 444 -14 q 138 83 221 -14 q 56 341 56 179 q 133 601 56 503 q 358 699 210 699 m 353 626 q 188 399 207 626 l 496 422 q 497 450 497 443 q 460 577 497 528 q 353 626 424 626 m 478 1010 l 556 1010 q 506 865 556 915 q 363 815 456 815 q 219 865 269 815 q 169 1010 169 915 l 247 1010 q 279 925 247 957 q 363 893 311 893 q 446 925 414 893 q 478 1010 478 957 z "},"Ė":{"ha":817,"x_min":58,"x_max":764,"o":"m 229 979 l 540 979 l 699 993 l 725 968 l 735 779 l 654 772 q 644 833 650 806 q 611 894 638 861 q 499 901 535 901 l 317 901 q 307 747 307 799 l 307 550 q 367 547 354 547 l 468 547 l 551 560 l 564 651 l 628 644 q 626 528 626 556 l 631 376 l 564 368 l 551 461 q 440 469 468 469 l 367 469 q 307 465 342 469 l 307 232 q 317 79 307 172 l 517 79 q 638 92 569 79 q 666 138 664 128 q 677 186 668 149 q 688 236 686 224 l 764 229 l 743 19 l 717 -6 q 558 0 586 0 l 229 0 l 65 -7 l 58 63 l 168 85 q 181 190 181 167 l 181 789 q 168 894 181 814 l 61 911 l 68 986 q 229 979 201 979 m 348 1211 q 359 1224 348 1211 q 408 1236 369 1236 q 469 1213 447 1236 q 490 1147 490 1189 q 469 1081 490 1106 q 408 1057 447 1057 q 348 1081 369 1057 q 326 1146 326 1106 q 348 1211 326 1186 z "},"ė":{"ha":664,"x_min":56,"x_max":625,"o":"m 358 699 q 625 375 625 699 l 601 329 l 186 329 q 238 151 189 226 q 375 76 288 76 q 479 91 428 76 q 556 119 531 106 l 582 133 l 621 69 q 592 46 611 60 q 508 9 572 32 q 375 -14 444 -14 q 138 83 221 -14 q 56 341 56 179 q 133 601 56 503 q 358 699 210 699 m 353 626 q 188 399 207 626 l 496 422 q 497 450 497 443 q 460 577 497 528 q 353 626 424 626 m 302 975 q 313 988 302 975 q 363 1000 324 1000 q 423 976 401 1000 q 444 911 444 953 q 423 845 444 869 q 363 821 401 821 q 302 845 324 821 q 281 910 281 869 q 302 975 281 950 z "},"Ę":{"ha":817,"x_min":58,"x_max":764,"o":"m 229 979 l 540 979 l 699 993 l 725 968 l 735 779 l 654 772 q 644 833 650 806 q 611 894 638 861 q 499 901 535 901 l 317 901 q 307 747 307 799 l 307 550 q 367 547 354 547 l 468 547 l 551 560 l 564 651 l 628 644 q 626 528 626 556 l 631 376 l 564 368 l 551 461 q 440 469 468 469 l 367 469 q 307 465 342 469 l 307 232 q 317 79 307 172 l 517 79 q 638 92 569 79 q 666 138 664 128 q 677 186 668 149 q 688 236 686 224 l 764 229 l 743 19 l 717 -6 l 694 -6 q 564 -49 608 -6 q 519 -133 519 -92 q 597 -215 519 -215 q 674 -197 629 -215 l 693 -243 q 568 -274 628 -274 q 469 -242 508 -274 q 431 -160 431 -211 q 451 -78 431 -110 q 525 0 472 -46 l 229 0 l 65 -7 l 58 63 l 168 85 q 181 190 181 167 l 181 789 q 168 894 181 814 l 61 911 l 68 986 q 229 979 201 979 z "},"ę":{"ha":664,"x_min":56,"x_max":625,"o":"m 358 699 q 625 375 625 699 l 601 329 l 186 329 q 238 151 189 226 q 375 76 288 76 q 479 91 428 76 q 556 119 531 106 l 582 133 l 621 69 q 453 -150 453 -36 q 528 -215 453 -215 q 606 -197 564 -215 l 625 -243 q 500 -274 560 -274 q 401 -242 440 -274 q 363 -161 363 -211 q 382 -80 363 -111 q 449 -7 401 -49 q 375 -14 411 -14 q 138 83 221 -14 q 56 341 56 179 q 133 601 56 503 q 358 699 210 699 m 353 626 q 188 399 207 626 l 496 422 q 497 450 497 443 q 460 577 497 528 q 353 626 424 626 z "},"Ě":{"ha":817,"x_min":58,"x_max":764,"o":"m 229 979 l 540 979 l 699 993 l 725 968 l 735 779 l 654 772 q 644 833 650 806 q 611 894 638 861 q 499 901 535 901 l 317 901 q 307 747 307 799 l 307 550 q 367 547 354 547 l 468 547 l 551 560 l 564 651 l 628 644 q 626 528 626 556 l 631 376 l 564 368 l 551 461 q 440 469 468 469 l 367 469 q 307 465 342 469 l 307 232 q 317 79 307 172 l 517 79 q 638 92 569 79 q 666 138 664 128 q 677 186 668 149 q 688 236 686 224 l 764 229 l 743 19 l 717 -6 q 558 0 586 0 l 229 0 l 65 -7 l 58 63 l 168 85 q 181 190 181 167 l 181 789 q 168 894 181 814 l 61 911 l 68 986 q 229 979 201 979 m 618 1240 l 650 1186 l 408 1038 l 167 1186 l 199 1240 l 321 1183 l 408 1149 l 496 1183 l 618 1240 z "},"ě":{"ha":664,"x_min":56,"x_max":625,"o":"m 358 699 q 625 375 625 699 l 601 329 l 186 329 q 238 151 189 226 q 375 76 288 76 q 479 91 428 76 q 556 119 531 106 l 582 133 l 621 69 q 592 46 611 60 q 508 9 572 32 q 375 -14 444 -14 q 138 83 221 -14 q 56 341 56 179 q 133 601 56 503 q 358 699 210 699 m 353 626 q 188 399 207 626 l 496 422 q 497 450 497 443 q 460 577 497 528 q 353 626 424 626 m 178 1063 l 281 978 q 363 918 286 974 l 444 978 l 547 1063 l 593 1018 l 363 783 l 132 1018 l 178 1063 z "},"Ĝ":{"ha":922,"x_min":58,"x_max":853,"o":"m 522 1000 q 828 953 631 1000 l 813 747 l 732 756 l 732 818 q 715 886 732 831 q 518 919 603 919 q 281 799 363 919 q 199 490 199 679 q 281 180 199 300 q 518 60 363 60 q 713 88 608 60 q 729 178 729 160 l 729 272 l 715 371 l 568 382 l 575 463 l 729 463 l 828 467 l 853 443 q 840 231 840 300 l 840 26 q 522 -21 643 -21 q 178 117 297 -21 q 58 489 58 256 q 178 861 58 722 q 522 1000 297 1000 m 528 1240 l 769 1092 l 738 1038 l 615 1094 l 528 1129 l 440 1094 l 318 1038 l 286 1092 l 528 1240 z "},"ĝ":{"ha":701,"x_min":44,"x_max":672,"o":"m 547 619 q 611 443 611 553 q 538 265 611 333 q 343 196 464 196 q 249 208 292 196 q 211 147 211 165 q 237 120 211 129 q 419 91 263 111 q 610 60 576 71 q 672 -65 672 40 q 569 -249 672 -171 q 319 -326 465 -326 q 44 -125 44 -326 q 171 15 44 -85 q 100 117 100 44 q 200 228 100 144 q 75 447 75 294 q 149 630 75 561 q 343 699 222 699 q 489 665 422 699 l 658 692 l 658 611 l 547 619 m 490 447 q 490 538 490 447 q 343 628 490 628 q 196 447 196 628 q 343 267 196 267 q 490 447 490 267 m 164 -110 q 211 -214 164 -181 q 351 -247 258 -247 q 499 -208 444 -247 q 554 -104 554 -168 q 542 -59 554 -72 q 500 -42 531 -46 l 319 -18 q 224 -1 264 -11 q 164 -110 164 -75 m 351 1063 l 582 828 l 536 783 l 433 868 l 351 928 q 317 903 338 918 q 285 881 297 889 q 269 868 274 872 l 167 783 l 121 828 l 351 1063 z "},"Ğ":{"ha":922,"x_min":58,"x_max":853,"o":"m 522 1000 q 828 953 631 1000 l 813 747 l 732 756 l 732 818 q 715 886 732 831 q 518 919 603 919 q 281 799 363 919 q 199 490 199 679 q 281 180 199 300 q 518 60 363 60 q 713 88 608 60 q 729 178 729 160 l 729 272 l 715 371 l 568 382 l 575 463 l 729 463 l 828 467 l 853 443 q 840 231 840 300 l 840 26 q 522 -21 643 -21 q 178 117 297 -21 q 58 489 58 256 q 178 861 58 722 q 522 1000 297 1000 m 643 1247 l 721 1247 q 671 1103 721 1153 q 528 1053 621 1053 q 385 1103 435 1053 q 335 1247 335 1153 l 413 1247 q 444 1163 413 1194 q 528 1131 476 1131 q 611 1163 579 1131 q 643 1247 643 1194 z "},"ğ":{"ha":701,"x_min":44,"x_max":672,"o":"m 547 619 q 611 443 611 553 q 538 265 611 333 q 343 196 464 196 q 249 208 292 196 q 211 147 211 165 q 237 120 211 129 q 419 91 263 111 q 610 60 576 71 q 672 -65 672 40 q 569 -249 672 -171 q 319 -326 465 -326 q 44 -125 44 -326 q 171 15 44 -85 q 100 117 100 44 q 200 228 100 144 q 75 447 75 294 q 149 630 75 561 q 343 699 222 699 q 489 665 422 699 l 658 692 l 658 611 l 547 619 m 164 -110 q 211 -214 164 -181 q 351 -247 258 -247 q 499 -208 444 -247 q 554 -104 554 -168 q 542 -59 554 -72 q 500 -42 531 -46 l 319 -18 q 224 -1 264 -11 q 164 -110 164 -75 m 490 447 q 490 538 490 447 q 343 628 490 628 q 196 447 196 628 q 343 267 196 267 q 490 447 490 267 m 467 1010 l 544 1010 q 494 865 544 915 q 351 815 444 815 q 208 865 258 815 q 158 1010 158 915 l 236 1010 q 268 925 236 957 q 351 893 300 893 q 435 925 403 893 q 467 1010 467 957 z "},"Ġ":{"ha":922,"x_min":58,"x_max":853,"o":"m 522 1000 q 828 953 631 1000 l 813 747 l 732 756 l 732 818 q 715 886 732 831 q 518 919 603 919 q 281 799 363 919 q 199 490 199 679 q 281 180 199 300 q 518 60 363 60 q 713 88 608 60 q 729 178 729 160 l 729 272 l 715 371 l 568 382 l 575 463 l 729 463 l 828 467 l 853 443 q 840 231 840 300 l 840 26 q 522 -21 643 -21 q 178 117 297 -21 q 58 489 58 256 q 178 861 58 722 q 522 1000 297 1000 m 467 1211 q 478 1224 467 1211 q 528 1236 489 1236 q 588 1213 567 1236 q 610 1147 610 1189 q 588 1081 610 1106 q 528 1057 567 1057 q 467 1081 489 1057 q 446 1146 446 1106 q 467 1211 446 1186 z "},"ġ":{"ha":701,"x_min":44,"x_max":672,"o":"m 547 619 q 611 443 611 553 q 538 265 611 333 q 343 196 464 196 q 249 208 292 196 q 211 147 211 165 q 237 120 211 129 q 419 91 263 111 q 610 60 576 71 q 672 -65 672 40 q 569 -249 672 -171 q 319 -326 465 -326 q 44 -125 44 -326 q 171 15 44 -85 q 100 117 100 44 q 200 228 100 144 q 75 447 75 294 q 149 630 75 561 q 343 699 222 699 q 489 665 422 699 l 658 692 l 658 611 l 547 619 m 164 -110 q 211 -214 164 -181 q 351 -247 258 -247 q 499 -208 444 -247 q 554 -104 554 -168 q 542 -59 554 -72 q 500 -42 531 -46 l 319 -18 q 224 -1 264 -11 q 164 -110 164 -75 m 490 447 q 490 538 490 447 q 343 628 490 628 q 196 447 196 628 q 343 267 196 267 q 490 447 490 267 m 291 975 q 302 988 291 975 q 351 1000 313 1000 q 412 976 390 1000 q 433 911 433 953 q 412 845 433 869 q 351 821 390 821 q 291 845 313 821 q 269 910 269 869 q 291 975 269 950 z "},"Ģ":{"ha":922,"x_min":58,"x_max":853,"o":"m 522 1000 q 828 953 631 1000 l 813 747 l 732 756 l 732 818 q 715 886 732 831 q 518 919 603 919 q 281 799 363 919 q 199 490 199 679 q 281 180 199 300 q 518 60 363 60 q 713 88 608 60 q 729 178 729 160 l 729 272 l 715 371 l 568 382 l 575 463 l 729 463 l 828 467 l 853 443 q 840 231 840 300 l 840 26 q 522 -21 643 -21 q 178 117 297 -21 q 58 489 58 256 q 178 861 58 722 q 522 1000 297 1000 m 443 -161 q 464 -102 443 -124 q 513 -81 485 -81 q 585 -172 585 -81 q 569 -253 585 -206 q 536 -331 553 -300 l 519 -360 l 468 -343 q 489 -233 489 -269 q 443 -161 443 -215 z "},"ģ":{"ha":701,"x_min":44,"x_max":672,"o":"m 547 619 q 611 443 611 553 q 538 265 611 333 q 343 196 464 196 q 249 208 292 196 q 211 147 211 165 q 237 120 211 129 q 419 91 263 111 q 610 60 576 71 q 672 -65 672 40 q 569 -249 672 -171 q 319 -326 465 -326 q 44 -125 44 -326 q 171 15 44 -85 q 100 117 100 44 q 200 228 100 144 q 75 447 75 294 q 149 630 75 561 q 343 699 222 699 q 489 665 422 699 l 658 692 l 658 611 l 547 619 m 490 447 q 490 538 490 447 q 343 628 490 628 q 196 447 196 628 q 343 267 196 267 q 490 447 490 267 m 164 -110 q 211 -214 164 -181 q 351 -247 258 -247 q 499 -208 444 -247 q 554 -104 554 -168 q 542 -59 554 -72 q 500 -42 531 -46 l 319 -18 q 224 -1 264 -11 q 164 -110 164 -75 m 408 851 q 388 792 408 814 q 339 771 367 771 q 267 863 267 771 q 283 943 267 896 q 317 1019 300 990 l 332 1050 l 383 1033 q 363 924 363 960 q 408 851 408 906 z "},"Ĥ":{"ha":1074,"x_min":58,"x_max":1028,"o":"m 893 747 l 893 232 q 903 85 893 153 l 1028 75 l 1018 -7 q 815 0 926 0 l 651 -7 l 644 63 l 754 85 q 767 190 767 165 l 767 454 l 307 454 l 307 232 q 317 85 307 153 l 442 75 l 432 -7 q 229 0 340 0 l 65 -7 l 58 63 l 168 85 q 181 190 181 167 l 181 789 q 168 894 181 814 l 61 911 l 68 986 q 229 979 201 979 l 419 986 l 425 904 l 317 894 q 307 747 307 826 l 307 525 l 767 532 l 767 789 q 754 894 767 814 l 647 911 l 654 986 q 815 979 788 979 l 1006 986 l 1011 904 l 903 894 q 893 747 893 826 m 538 1240 l 779 1092 l 747 1038 l 625 1094 l 538 1129 l 450 1094 l 328 1038 l 296 1092 l 538 1240 z "},"ĥ":{"ha":825,"x_min":-35,"x_max":836,"o":"m 188 1050 l 268 1050 l 294 1025 q 285 813 285 925 l 285 593 q 487 699 356 699 q 668 620 618 699 q 718 383 718 542 l 718 232 l 728 85 l 836 75 l 826 -7 q 647 0 758 0 l 506 -7 l 499 63 l 592 85 q 606 190 606 146 l 606 383 q 463 614 606 614 q 334 549 382 614 q 285 381 286 485 l 285 232 q 293 85 285 151 l 401 75 l 392 -7 q 213 0 324 0 l 58 -7 l 51 63 l 158 85 q 172 190 172 147 l 172 854 l 158 960 l 53 982 l 60 1056 q 188 1050 160 1050 m 207 1269 l 449 1121 l 417 1067 l 294 1124 l 207 1158 l 119 1124 l -3 1067 l -35 1121 l 207 1269 z "},"Ħ":{"ha":1074,"x_min":58,"x_max":1038,"o":"m 893 754 l 1038 754 l 1038 693 l 893 693 l 893 232 q 903 85 893 153 l 1028 75 l 1018 -7 q 815 0 926 0 l 651 -7 l 644 63 l 754 85 q 767 190 767 165 l 767 454 l 307 454 l 307 232 q 317 85 307 153 l 442 75 l 432 -7 q 229 0 340 0 l 65 -7 l 58 63 l 168 85 q 181 190 181 167 l 181 693 l 60 693 l 60 754 l 181 754 l 181 789 q 168 894 181 814 l 61 911 l 68 986 q 229 979 201 979 l 419 986 l 425 904 l 317 894 q 307 754 307 826 l 767 754 l 767 789 q 754 894 767 814 l 647 911 l 654 986 q 815 979 788 979 l 1006 986 l 1011 904 l 903 894 q 893 754 893 826 m 767 693 l 307 693 l 307 525 l 767 532 l 767 693 z "},"ħ":{"ha":825,"x_min":18,"x_max":811,"o":"m 163 1050 l 243 1050 l 269 1025 q 260 843 263 961 l 413 843 l 413 782 l 260 782 l 260 593 q 462 699 331 699 q 643 620 593 699 q 693 383 693 542 l 693 232 l 703 85 l 811 75 l 801 -7 q 622 0 733 0 l 481 -7 l 474 63 l 567 85 q 581 190 581 146 l 581 383 q 438 614 581 614 q 309 549 357 614 q 260 381 261 485 l 260 232 q 268 85 260 151 l 376 75 l 367 -7 q 188 0 299 0 l 33 -7 l 26 63 l 133 85 q 147 190 147 147 l 147 782 l 18 782 l 18 843 l 147 843 l 147 854 l 133 960 l 28 982 l 35 1056 q 163 1050 135 1050 z "},"Ĩ":{"ha":504,"x_min":19,"x_max":486,"o":"m 315 747 l 315 232 q 325 85 315 153 l 450 75 l 440 -7 q 238 0 349 0 l 74 -7 l 67 63 l 176 85 q 189 190 189 167 l 189 789 q 176 894 189 814 l 69 911 l 76 986 q 238 979 210 979 l 428 986 l 433 904 l 325 894 q 315 747 315 826 m 468 1158 q 463 1146 468 1158 q 426 1097 457 1135 q 369 1060 396 1060 q 257 1088 343 1060 q 149 1117 171 1117 q 81 1061 111 1117 l 69 1042 l 19 1071 q 38 1110 26 1086 q 78 1172 49 1133 q 135 1211 108 1211 q 248 1183 161 1211 q 357 1154 335 1154 q 425 1207 396 1154 l 436 1225 l 486 1196 q 468 1158 479 1181 z "},"ĩ":{"ha":418,"x_min":-17,"x_max":389,"o":"m 363 937 q 357 925 363 937 q 321 876 351 914 q 266 839 290 839 q 186 867 242 839 q 110 896 131 896 q 72 877 90 896 q 44 839 54 858 l 33 821 l -17 850 q 1 889 -10 865 q 42 951 13 913 q 97 990 72 990 q 176 962 121 990 q 253 933 232 933 q 319 986 288 933 l 331 1004 l 381 975 q 363 937 374 960 m 158 190 l 158 490 l 144 596 l 39 618 l 46 692 q 174 686 146 686 l 254 686 l 281 661 q 271 449 271 518 l 271 232 l 281 85 l 389 75 l 379 -7 q 200 0 311 0 l 46 -7 l 39 63 l 144 85 q 158 190 158 163 z "},"Ī":{"ha":504,"x_min":29,"x_max":413,"o":"m 36 1071 l 36 1144 l 394 1144 l 388 1071 l 36 1071 m 278 747 l 278 232 q 288 85 278 153 l 413 75 l 403 -7 q 200 0 311 0 l 36 -7 l 29 63 l 139 85 q 151 190 151 167 l 151 789 q 139 894 151 814 l 32 911 l 39 986 q 200 979 172 979 l 390 986 l 396 904 l 288 894 q 278 747 278 826 z "},"ī":{"ha":418,"x_min":-14,"x_max":356,"o":"m -14 828 l -14 901 l 344 901 l 338 828 l -14 828 m 125 190 l 125 490 l 111 596 l 6 618 l 13 692 q 140 686 113 686 l 221 686 l 247 661 q 238 449 238 518 l 238 232 l 247 85 l 356 75 l 346 -7 q 167 0 278 0 l 13 -7 l 6 63 l 111 85 q 125 190 125 163 z "},"Ĭ":{"ha":504,"x_min":60,"x_max":450,"o":"m 315 747 l 315 232 q 325 85 315 153 l 450 75 l 440 -7 q 238 0 349 0 l 74 -7 l 67 63 l 176 85 q 189 190 189 167 l 189 789 q 176 894 189 814 l 69 911 l 76 986 q 238 979 210 979 l 428 986 l 433 904 l 325 894 q 315 747 315 826 m 368 1247 l 446 1247 q 396 1103 446 1153 q 253 1053 346 1053 q 110 1103 160 1053 q 60 1247 60 1153 l 138 1247 q 169 1163 138 1194 q 253 1131 201 1131 q 336 1163 304 1131 q 368 1247 368 1194 z "},"ĭ":{"ha":418,"x_min":17,"x_max":403,"o":"m 169 190 l 169 490 l 156 596 l 50 618 l 57 692 q 185 686 157 686 l 265 686 l 292 661 q 282 449 282 518 l 282 232 l 292 85 l 400 75 l 390 -7 q 211 0 322 0 l 57 -7 l 50 63 l 156 85 q 169 190 169 163 m 325 1010 l 403 1010 q 353 865 403 915 q 210 815 303 815 q 67 865 117 815 q 17 1010 17 915 l 94 1010 q 126 925 94 957 q 210 893 158 893 q 293 925 261 893 q 325 1010 325 957 z "},"Į":{"ha":504,"x_min":35,"x_max":450,"o":"m 189 789 q 176 894 189 814 l 69 911 l 76 986 q 238 979 210 979 l 428 986 l 433 904 l 325 894 q 315 747 315 826 l 315 232 q 325 85 315 153 l 450 75 l 440 -7 q 263 0 361 0 q 162 -51 200 -8 q 124 -133 124 -94 q 201 -215 124 -215 q 278 -197 233 -215 l 297 -243 q 172 -274 232 -274 q 74 -242 113 -274 q 35 -150 35 -211 q 81 -53 35 -100 q 100 -33 93 -39 q 149 17 125 -7 q 181 75 174 42 q 189 190 188 108 l 189 789 z "},"į":{"ha":418,"x_min":29,"x_max":400,"o":"m 185 686 l 265 686 l 292 661 q 282 449 282 518 l 282 232 l 292 85 l 400 75 l 390 -7 q 243 0 335 -1 q 150 -50 182 -8 q 118 -133 118 -92 q 189 -215 118 -215 q 258 -197 218 -215 l 278 -243 q 160 -274 217 -274 q 67 -242 104 -274 q 29 -150 29 -211 q 40 -98 29 -117 q 53 -72 50 -79 q 68 -51 57 -65 q 85 -31 79 -37 q 106 -6 90 -25 q 138 31 122 13 q 161 81 154 49 q 169 192 168 113 l 169 490 l 156 596 l 50 618 l 57 692 q 185 686 157 686 m 149 975 q 160 988 149 975 q 210 1000 171 1000 q 270 976 249 1000 q 292 911 292 953 q 270 845 292 869 q 210 821 249 821 q 149 845 171 821 q 128 910 128 869 q 149 975 128 950 z "},"İ":{"ha":504,"x_min":67,"x_max":450,"o":"m 315 747 l 315 232 q 325 85 315 153 l 450 75 l 440 -7 q 238 0 349 0 l 74 -7 l 67 63 l 176 85 q 189 190 189 167 l 189 789 q 176 894 189 814 l 69 911 l 76 986 q 238 979 210 979 l 428 986 l 433 904 l 325 894 q 315 747 315 826 m 192 1211 q 203 1224 192 1211 q 253 1236 214 1236 q 313 1213 292 1236 q 335 1147 335 1189 q 313 1081 335 1106 q 253 1057 292 1057 q 192 1081 214 1057 q 171 1146 171 1106 q 192 1211 171 1186 z "},"ı":{"ha":418,"x_min":50,"x_max":400,"o":"m 169 190 l 169 490 l 156 596 l 50 618 l 57 692 q 185 686 157 686 l 265 686 l 292 661 q 282 449 282 518 l 282 232 l 292 85 l 400 75 l 390 -7 q 211 0 322 0 l 57 -7 l 50 63 l 156 85 q 169 190 169 163 z "},"Ĳ":{"ha":854,"x_min":67,"x_max":813,"o":"m 694 747 l 694 -14 q 504 -278 694 -51 l 457 -247 q 568 15 568 -12 l 568 789 q 556 894 568 814 l 440 911 l 325 894 q 315 747 315 826 l 315 232 q 325 85 315 153 l 450 75 l 440 -7 q 238 0 349 0 l 74 -7 l 67 63 l 176 85 q 189 190 189 167 l 189 789 q 176 894 189 814 l 69 911 l 76 986 q 238 979 210 979 l 617 979 l 807 986 l 813 904 l 704 894 q 694 747 694 826 z "},"ĳ":{"ha":797,"x_min":17,"x_max":686,"o":"m 579 686 l 660 686 l 686 661 q 676 449 676 518 l 676 -14 q 550 -261 676 -60 l 508 -326 l 458 -297 q 572 31 572 -25 l 571 94 q 365 -14 499 -14 q 183 65 231 -14 q 136 301 136 144 l 136 490 l 122 596 l 17 618 l 24 692 q 151 686 124 686 l 232 686 l 258 661 q 249 449 249 518 l 249 254 q 389 75 249 75 q 517 139 471 75 q 564 292 564 203 l 564 490 l 550 596 l 444 618 l 451 692 q 579 686 551 686 m 119 975 q 130 988 119 975 q 179 1000 140 1000 q 240 976 218 1000 q 261 911 261 953 q 240 845 261 869 q 179 821 218 821 q 119 845 140 821 q 97 910 97 869 q 119 975 97 950 m 542 975 q 553 988 542 975 q 603 1000 564 1000 q 663 976 642 1000 q 685 911 685 953 q 663 845 685 869 q 603 821 642 821 q 542 845 564 821 q 521 910 521 869 q 542 975 521 950 z "},"Ĵ":{"ha":461,"x_min":-11,"x_max":472,"o":"m 301 747 l 301 -14 q 111 -278 301 -51 l 64 -247 q 175 15 175 -12 l 175 789 q 163 894 175 814 l 56 911 l 63 986 q 224 979 196 979 l 414 986 l 419 904 l 311 894 q 301 747 301 826 m 231 1240 l 472 1092 l 440 1038 l 318 1094 l 231 1129 l 143 1094 l 21 1038 l -11 1092 l 231 1240 z "},"ĵ":{"ha":386,"x_min":-37,"x_max":424,"o":"m 183 686 l 264 686 l 290 661 q 281 449 281 518 l 281 -14 q 239 -117 281 -39 q 156 -261 197 -194 l 113 -326 l 63 -297 q 168 29 168 -26 l 168 490 l 154 596 l 49 618 l 56 692 q 183 686 156 686 m 193 1063 l 424 828 l 378 783 l 275 868 l 193 928 q 159 903 179 918 q 127 881 139 889 q 111 868 115 872 l 8 783 l -37 828 l 193 1063 z "},"Ķ":{"ha":969,"x_min":58,"x_max":956,"o":"m 956 75 l 946 -7 q 750 0 861 0 l 572 -7 l 565 63 l 647 82 q 550 228 586 181 l 321 490 l 574 801 l 628 896 l 553 911 l 560 986 q 707 979 679 979 l 883 986 l 889 904 l 783 894 q 642 758 711 828 l 458 514 q 551 408 492 475 q 659 285 610 342 q 741 191 708 228 q 858 85 774 154 l 956 75 m 307 747 l 307 232 q 317 85 307 153 l 442 75 l 432 -7 q 229 0 340 0 l 65 -7 l 58 63 l 168 85 q 181 190 181 167 l 181 789 q 168 894 181 814 l 61 911 l 68 986 q 229 979 201 979 l 419 986 l 425 904 l 317 894 q 307 747 307 826 m 443 -161 q 464 -102 443 -124 q 513 -81 485 -81 q 585 -172 585 -81 q 569 -253 585 -206 q 536 -331 553 -300 l 519 -360 l 468 -343 q 489 -233 489 -269 q 443 -161 443 -215 z "},"ķ":{"ha":794,"x_min":26,"x_max":801,"o":"m 163 1050 l 243 1050 l 269 1025 q 260 813 260 925 l 260 232 q 268 85 260 151 l 376 75 l 367 -7 q 188 0 299 0 l 33 -7 l 26 63 l 133 85 q 147 190 147 147 l 147 854 l 133 960 l 28 982 l 35 1056 q 163 1050 135 1050 m 504 607 l 444 618 l 451 690 q 572 686 544 686 l 749 693 l 753 613 l 649 601 q 511 508 546 546 l 399 388 l 589 179 q 714 83 592 175 l 801 75 l 792 -7 q 613 0 724 0 l 471 -3 l 464 67 l 543 82 l 472 160 l 275 368 l 504 607 m 347 -161 q 368 -102 347 -124 q 417 -81 389 -81 q 489 -172 489 -81 q 472 -253 489 -206 q 439 -331 456 -300 l 424 -360 l 372 -343 q 393 -233 393 -269 q 347 -161 347 -215 z "},"ĸ":{"ha":815,"x_min":50,"x_max":822,"o":"m 525 607 l 465 618 l 472 690 q 593 686 565 686 l 769 693 l 774 613 l 669 601 q 532 508 567 546 l 419 388 l 610 179 q 735 83 613 175 l 822 75 l 813 -7 q 633 0 744 0 l 492 -3 l 485 67 l 564 82 l 493 160 l 296 368 l 525 607 m 169 190 l 169 490 l 156 596 l 50 618 l 57 692 q 185 686 157 686 l 265 686 l 292 661 q 282 449 282 518 l 282 232 l 292 85 l 400 75 l 390 -7 q 211 0 322 0 l 57 -7 l 50 63 l 156 85 q 169 190 169 163 z "},"Ĺ":{"ha":742,"x_min":58,"x_max":728,"o":"m 307 747 l 307 232 q 317 79 307 153 l 481 79 q 601 92 533 79 q 631 143 629 131 q 651 236 647 208 l 728 229 l 707 19 l 681 -6 q 522 0 550 0 l 229 0 l 65 -7 l 58 63 l 168 85 q 181 190 181 167 l 181 789 q 168 894 181 814 l 61 911 l 68 986 q 229 979 201 979 l 419 986 l 425 904 l 317 894 q 307 747 307 826 m 413 1247 l 454 1146 q 244 1093 271 1101 l 122 1042 l 94 1108 l 413 1247 z "},"ĺ":{"ha":407,"x_min":26,"x_max":403,"o":"m 163 1050 l 243 1050 l 269 1025 q 260 813 260 925 l 260 232 q 268 85 260 151 l 376 75 l 367 -7 q 188 0 299 0 l 33 -7 l 26 63 l 133 85 q 147 190 147 147 l 147 854 l 133 960 l 28 982 l 35 1056 q 163 1050 135 1050 m 361 1318 l 403 1217 q 193 1164 219 1172 l 71 1113 l 43 1179 l 361 1318 z "},"Ļ":{"ha":742,"x_min":58,"x_max":728,"o":"m 307 747 l 307 232 q 317 79 307 153 l 481 79 q 601 92 533 79 q 631 143 629 131 q 651 236 647 208 l 728 229 l 707 19 l 681 -6 q 522 0 550 0 l 229 0 l 65 -7 l 58 63 l 168 85 q 181 190 181 167 l 181 789 q 168 894 181 814 l 61 911 l 68 986 q 229 979 201 979 l 419 986 l 425 904 l 317 894 q 307 747 307 826 m 332 -161 q 353 -102 332 -124 q 401 -81 374 -81 q 474 -172 474 -81 q 458 -253 474 -206 q 425 -331 442 -300 l 408 -360 l 357 -343 q 378 -233 378 -269 q 332 -161 332 -215 z "},"ļ":{"ha":407,"x_min":26,"x_max":376,"o":"m 163 1050 l 243 1050 l 269 1025 q 260 813 260 925 l 260 232 q 268 85 260 151 l 376 75 l 367 -7 q 188 0 299 0 l 33 -7 l 26 63 l 133 85 q 147 190 147 147 l 147 854 l 133 960 l 28 982 l 35 1056 q 163 1050 135 1050 m 135 -161 q 156 -102 135 -124 q 204 -81 176 -81 q 276 -172 276 -81 q 260 -253 276 -206 q 228 -331 244 -300 l 211 -360 l 160 -343 q 181 -233 181 -269 q 135 -161 135 -215 z "},"Ľ":{"ha":742,"x_min":58,"x_max":728,"o":"m 483 843 l 607 843 l 589 506 l 508 510 l 510 640 l 483 843 m 307 747 l 307 232 q 317 79 307 153 l 481 79 q 601 92 533 79 q 631 143 629 131 q 651 236 647 208 l 728 229 l 707 19 l 681 -6 q 522 0 550 0 l 229 0 l 65 -7 l 58 63 l 168 85 q 181 190 181 167 l 181 789 q 168 894 181 814 l 61 911 l 68 986 q 229 979 201 979 l 419 986 l 425 904 l 317 894 q 307 747 307 826 z "},"ľ":{"ha":467,"x_min":26,"x_max":453,"o":"m 343 1050 l 453 1050 l 435 713 l 354 717 l 356 847 l 343 1050 m 163 1050 l 243 1050 l 269 1025 q 260 813 260 925 l 260 232 q 268 85 260 151 l 376 75 l 367 -7 q 188 0 299 0 l 33 -7 l 26 63 l 133 85 q 147 190 147 147 l 147 854 l 133 960 l 28 982 l 35 1056 q 163 1050 135 1050 z "},"Ŀ":{"ha":742,"x_min":58,"x_max":728,"o":"m 465 640 q 477 653 465 640 q 531 667 489 667 q 596 641 572 667 q 619 571 619 615 q 596 500 619 526 q 531 474 572 474 q 465 500 489 474 q 442 569 442 526 q 465 640 442 613 m 307 747 l 307 232 q 317 79 307 153 l 481 79 q 601 92 533 79 q 631 143 629 131 q 651 236 647 208 l 728 229 l 707 19 l 681 -6 q 522 0 550 0 l 229 0 l 65 -7 l 58 63 l 168 85 q 181 190 181 167 l 181 789 q 168 894 181 814 l 61 911 l 68 986 q 229 979 201 979 l 419 986 l 425 904 l 317 894 q 307 747 307 826 z "},"ŀ":{"ha":497,"x_min":26,"x_max":497,"o":"m 163 1050 l 243 1050 l 269 1025 q 260 813 260 925 l 260 232 q 268 85 260 151 l 376 75 l 367 -7 q 188 0 299 0 l 33 -7 l 26 63 l 133 85 q 147 190 147 147 l 147 854 l 133 960 l 28 982 l 35 1056 q 163 1050 135 1050 m 343 485 q 355 499 343 485 q 408 513 367 513 q 474 487 450 513 q 497 417 497 461 q 474 346 497 372 q 408 319 450 319 q 343 346 367 319 q 319 415 319 372 q 343 485 319 458 z "},"Ł":{"ha":742,"x_min":42,"x_max":728,"o":"m 307 747 l 307 624 l 500 694 l 521 638 l 307 560 l 307 232 q 317 79 307 153 l 481 79 q 601 92 533 79 q 631 143 629 131 q 651 236 647 208 l 728 229 l 707 19 l 681 -6 q 522 0 550 0 l 229 0 l 65 -7 l 58 63 l 168 85 q 181 190 181 167 l 181 514 l 63 471 l 42 528 l 181 578 l 181 789 q 168 894 181 814 l 61 911 l 68 986 q 229 979 201 979 l 419 986 l 425 904 l 317 894 q 307 747 307 826 z "},"ł":{"ha":407,"x_min":0,"x_max":408,"o":"m 163 1050 l 243 1050 l 269 1025 q 260 813 260 925 l 260 649 l 388 694 l 408 638 l 260 583 l 260 232 q 268 85 260 151 l 376 75 l 367 -7 q 188 0 299 0 l 33 -7 l 26 63 l 133 85 q 147 190 147 147 l 147 543 l 21 497 l 0 554 l 147 607 l 147 854 l 133 960 l 28 982 l 35 1056 q 163 1050 135 1050 z "},"Ń":{"ha":1057,"x_min":57,"x_max":1036,"o":"m 906 733 l 906 413 l 904 -10 l 821 -10 l 274 772 l 274 232 q 283 85 274 153 l 396 75 l 386 -7 q 215 0 326 0 l 65 -7 l 58 63 l 168 85 q 181 190 181 167 l 181 789 q 168 894 181 800 l 57 911 l 64 986 q 225 979 197 979 l 286 981 l 314 951 q 449 736 428 767 l 813 226 l 813 775 q 800 890 813 815 l 690 899 l 699 982 l 813 979 l 1029 986 l 1036 913 l 926 890 q 906 733 906 792 m 694 1247 l 736 1146 q 526 1093 553 1101 l 404 1042 l 376 1108 l 694 1247 z "},"ń":{"ha":847,"x_min":50,"x_max":833,"o":"m 185 686 l 235 686 l 261 661 l 269 572 q 352 662 297 625 q 481 699 407 699 q 665 620 615 699 q 715 383 715 542 l 715 232 l 725 85 l 833 75 l 824 -7 q 644 0 756 0 l 503 -7 l 496 63 l 589 85 q 603 190 603 146 l 603 383 q 460 614 603 614 q 331 549 379 614 q 282 381 283 485 l 282 232 l 292 85 l 400 75 l 390 -7 q 211 0 322 0 l 57 -7 l 50 63 l 156 85 q 169 183 167 151 l 169 490 l 156 596 l 50 618 l 57 692 q 185 686 157 686 m 585 1049 l 650 965 q 482 867 503 882 l 381 783 l 335 840 l 585 1049 z "},"Ņ":{"ha":1057,"x_min":57,"x_max":1036,"o":"m 906 733 l 906 413 l 904 -10 l 821 -10 l 274 772 l 274 232 q 283 85 274 153 l 396 75 l 386 -7 q 215 0 326 0 l 65 -7 l 58 63 l 168 85 q 181 190 181 167 l 181 789 q 168 894 181 800 l 57 911 l 64 986 q 225 979 197 979 l 286 981 l 314 951 q 449 736 428 767 l 813 226 l 813 775 q 800 890 813 815 l 690 899 l 699 982 l 813 979 l 1029 986 l 1036 913 l 926 890 q 906 733 906 792 m 457 -161 q 478 -102 457 -124 q 526 -81 499 -81 q 599 -172 599 -81 q 583 -253 599 -206 q 550 -331 567 -300 l 533 -360 l 482 -343 q 503 -233 503 -269 q 457 -161 457 -215 z "},"ņ":{"ha":847,"x_min":50,"x_max":833,"o":"m 185 686 l 235 686 l 261 661 l 269 572 q 352 662 297 625 q 481 699 407 699 q 665 620 615 699 q 715 383 715 542 l 715 232 l 725 85 l 833 75 l 824 -7 q 644 0 756 0 l 503 -7 l 496 63 l 589 85 q 603 190 603 146 l 603 383 q 460 614 603 614 q 331 549 379 614 q 282 381 283 485 l 282 232 l 292 85 l 400 75 l 390 -7 q 211 0 322 0 l 57 -7 l 50 63 l 156 85 q 169 183 167 151 l 169 490 l 156 596 l 50 618 l 57 692 q 185 686 157 686 m 382 -161 q 403 -102 382 -124 q 451 -81 424 -81 q 524 -172 524 -81 q 508 -253 524 -206 q 475 -331 492 -300 l 458 -360 l 407 -343 q 428 -233 428 -269 q 382 -161 382 -215 z "},"Ň":{"ha":1057,"x_min":57,"x_max":1036,"o":"m 906 733 l 906 413 l 904 -10 l 821 -10 l 274 772 l 274 232 q 283 85 274 153 l 396 75 l 386 -7 q 215 0 326 0 l 65 -7 l 58 63 l 168 85 q 181 190 181 167 l 181 789 q 168 894 181 800 l 57 911 l 64 986 q 225 979 197 979 l 286 981 l 314 951 q 449 736 428 767 l 813 226 l 813 775 q 800 890 813 815 l 690 899 l 699 982 l 813 979 l 1029 986 l 1036 913 l 926 890 q 906 733 906 792 m 739 1240 l 771 1186 l 529 1038 l 288 1186 l 319 1240 l 442 1183 l 529 1149 l 617 1183 l 739 1240 z "},"ň":{"ha":847,"x_min":50,"x_max":833,"o":"m 185 686 l 235 686 l 261 661 l 269 572 q 352 662 297 625 q 481 699 407 699 q 665 620 615 699 q 715 383 715 542 l 715 232 l 725 85 l 833 75 l 824 -7 q 644 0 756 0 l 503 -7 l 496 63 l 589 85 q 603 190 603 146 l 603 383 q 460 614 603 614 q 331 549 379 614 q 282 381 283 485 l 282 232 l 292 85 l 400 75 l 390 -7 q 211 0 322 0 l 57 -7 l 50 63 l 156 85 q 169 183 167 151 l 169 490 l 156 596 l 50 618 l 57 692 q 185 686 157 686 m 281 1063 l 383 978 q 465 918 389 974 l 547 978 l 650 1063 l 696 1018 l 465 783 l 235 1018 l 281 1063 z "},"Ŋ":{"ha":1078,"x_min":57,"x_max":1036,"o":"m 906 733 l 906 413 l 904 -10 q 749 -278 906 -54 l 701 -247 q 810 6 794 -47 l 274 772 l 274 232 q 283 85 274 153 l 396 75 l 386 -7 q 215 0 326 0 l 65 -7 l 58 63 l 168 85 q 181 190 181 167 l 181 789 q 168 894 181 800 l 57 911 l 64 986 l 225 981 l 286 981 l 314 951 q 449 736 428 767 l 813 226 l 813 775 q 800 890 813 815 l 690 899 l 699 982 l 813 979 l 1029 986 l 1036 913 l 926 890 q 906 733 906 792 z "},"ŋ":{"ha":825,"x_min":50,"x_max":715,"o":"m 481 699 q 665 620 615 699 q 715 383 715 542 l 715 -14 q 589 -261 715 -60 l 547 -326 l 497 -297 q 603 29 603 -26 l 603 383 q 460 614 603 614 q 331 549 379 614 q 282 381 283 485 l 282 232 l 292 85 l 400 75 l 390 -7 q 211 0 322 0 l 57 -7 l 50 63 l 156 85 q 169 183 167 151 l 169 490 l 156 596 l 50 618 l 57 692 q 185 686 157 686 l 235 686 l 261 661 l 269 572 q 352 662 297 625 q 481 699 407 699 z "},"Ō":{"ha":1028,"x_min":58,"x_max":969,"o":"m 852 861 q 911 792 852 861 q 969 489 969 722 q 852 117 969 256 q 514 -21 735 -21 q 176 117 293 -21 q 58 489 58 256 q 176 861 58 722 q 514 1000 293 1000 q 852 861 735 1000 m 286 803 q 247 742 286 803 q 207 489 207 681 q 286 175 207 297 q 514 53 365 53 q 742 175 663 53 q 821 489 821 297 q 742 803 821 681 q 514 926 663 926 q 286 803 365 926 m 290 1071 l 290 1144 l 738 1144 l 731 1071 l 290 1071 z "},"ō":{"ha":750,"x_min":56,"x_max":694,"o":"m 376 699 q 454 699 376 699 q 613 603 532 699 q 694 343 694 507 q 612 83 694 179 q 375 -14 529 -14 q 138 83 221 -14 q 56 342 56 179 q 138 602 56 506 q 376 699 221 699 m 519 143 q 542 182 519 143 q 564 342 564 221 q 519 541 564 463 q 375 619 475 619 q 231 541 275 619 q 186 342 186 463 q 231 143 186 221 q 375 65 275 65 q 519 143 475 65 m 163 828 l 163 901 l 610 901 l 603 828 l 163 828 z "},"Ŏ":{"ha":1028,"x_min":58,"x_max":969,"o":"m 852 861 q 911 792 852 861 q 969 489 969 722 q 852 117 969 256 q 514 -21 735 -21 q 176 117 293 -21 q 58 489 58 256 q 176 861 58 722 q 514 1000 293 1000 q 852 861 735 1000 m 286 803 q 247 742 286 803 q 207 489 207 681 q 286 175 207 297 q 514 53 365 53 q 742 175 663 53 q 821 489 821 297 q 742 803 821 681 q 514 926 663 926 q 286 803 365 926 m 629 1247 l 707 1247 q 657 1103 707 1153 q 514 1053 607 1053 q 371 1103 421 1053 q 321 1247 321 1153 l 399 1247 q 431 1163 399 1194 q 514 1131 463 1131 q 597 1163 565 1131 q 629 1247 629 1194 z "},"ŏ":{"ha":750,"x_min":56,"x_max":694,"o":"m 376 699 q 454 699 376 699 q 613 603 532 699 q 694 343 694 507 q 612 83 694 179 q 375 -14 529 -14 q 138 83 221 -14 q 56 342 56 179 q 138 602 56 506 q 376 699 221 699 m 519 143 q 542 182 519 143 q 564 342 564 221 q 519 541 564 463 q 375 619 475 619 q 231 541 275 619 q 186 342 186 463 q 231 143 186 221 q 375 65 275 65 q 519 143 475 65 m 501 1010 l 579 1010 q 529 865 579 915 q 386 815 479 815 q 243 865 293 815 q 193 1010 193 915 l 271 1010 q 303 925 271 957 q 386 893 335 893 q 469 925 438 893 q 501 1010 501 957 z "},"Ő":{"ha":1028,"x_min":58,"x_max":969,"o":"m 852 861 q 911 792 852 861 q 969 489 969 722 q 852 117 969 256 q 514 -21 735 -21 q 176 117 293 -21 q 58 489 58 256 q 176 861 58 722 q 514 1000 293 1000 q 852 861 735 1000 m 286 803 q 247 742 286 803 q 207 489 207 681 q 286 175 207 297 q 514 53 365 53 q 742 175 663 53 q 821 489 821 297 q 742 803 821 681 q 514 926 663 926 q 286 803 365 926 m 553 1268 l 610 1175 q 411 1089 438 1101 l 297 1019 l 260 1079 l 553 1268 m 850 1268 l 907 1175 q 708 1089 735 1101 l 596 1019 l 558 1079 l 850 1268 z "},"ő":{"ha":750,"x_min":56,"x_max":754,"o":"m 376 699 q 454 699 376 699 q 613 603 532 699 q 694 343 694 507 q 612 83 694 179 q 375 -14 529 -14 q 138 83 221 -14 q 56 342 56 179 q 138 602 56 506 q 376 699 221 699 m 519 143 q 542 182 519 143 q 564 342 564 221 q 519 541 564 463 q 375 619 475 619 q 231 541 275 619 q 186 342 186 463 q 231 143 186 221 q 375 65 275 65 q 519 143 475 65 m 686 1063 l 754 976 q 568 868 590 883 l 465 783 l 419 840 l 686 1063 m 407 1063 l 475 976 q 289 868 311 883 l 186 783 l 140 840 l 407 1063 z "},"Œ":{"ha":1363,"x_min":58,"x_max":1310,"o":"m 1104 0 l 775 0 q 649 -6 732 0 q 514 -21 583 -21 q 176 117 293 -21 q 58 489 58 256 q 176 861 58 722 q 514 1000 293 1000 q 649 985 583 1000 q 775 979 732 979 l 1086 979 l 1244 993 l 1271 968 l 1281 779 l 1200 772 q 1190 833 1196 806 q 1157 894 1183 861 q 1044 901 1081 901 l 863 901 q 853 747 853 808 l 853 547 q 913 544 900 544 l 1014 544 l 1097 557 l 1110 649 l 1174 642 q 1172 531 1172 558 l 1176 379 l 1110 371 l 1097 464 q 986 472 1014 472 l 913 472 q 853 468 889 472 l 853 232 q 863 79 853 172 l 1063 79 q 1183 92 1114 79 q 1212 138 1210 128 q 1223 186 1214 149 q 1233 236 1232 224 l 1310 229 l 1289 19 l 1263 -6 q 1104 0 1132 0 m 514 926 q 286 803 365 926 q 207 489 207 681 q 286 175 207 297 q 506 53 365 53 q 726 150 647 53 l 726 826 q 514 926 642 926 z "},"œ":{"ha":1151,"x_min":56,"x_max":1113,"o":"m 846 699 q 1113 375 1113 699 l 1089 329 l 674 329 q 726 151 678 225 q 863 76 775 76 q 967 91 915 76 q 1044 119 1018 106 l 1069 133 l 1108 69 q 1079 46 1099 60 q 996 9 1060 32 q 863 -14 932 -14 q 618 90 704 -14 q 377 -14 533 -14 q 138 83 221 -14 q 56 342 56 179 q 138 602 56 506 q 377 699 221 699 q 618 597 533 699 q 846 699 697 699 m 519 541 q 497 580 519 541 q 375 619 475 619 q 231 541 275 619 q 186 342 186 463 q 231 143 186 221 q 375 65 275 65 q 519 143 475 65 q 564 342 564 221 q 519 541 564 463 m 840 626 q 675 400 694 626 l 983 422 q 985 450 985 443 q 948 577 985 528 q 840 626 911 626 z "},"Ŕ":{"ha":894,"x_min":58,"x_max":881,"o":"m 207 979 l 461 993 q 688 920 607 993 q 768 706 768 847 q 713 538 768 607 q 565 439 657 469 q 713 182 669 240 q 781 85 725 161 l 881 75 l 871 -7 q 651 0 763 0 q 575 161 593 128 l 439 418 l 429 418 q 307 419 344 418 l 307 232 q 317 85 307 153 l 442 75 l 432 -7 q 229 0 340 0 l 65 -7 l 58 63 l 168 85 q 181 190 181 167 l 181 789 q 168 894 181 807 l 61 911 l 68 986 q 207 979 161 982 m 403 924 q 318 915 388 924 q 307 747 307 846 l 307 493 q 401 488 376 488 q 574 542 511 488 q 638 704 638 597 q 575 867 638 811 q 403 924 513 924 m 599 1247 l 640 1146 q 431 1093 457 1101 l 308 1042 l 281 1108 l 599 1247 z "},"ŕ":{"ha":586,"x_min":50,"x_max":588,"o":"m 493 699 q 588 685 538 699 l 574 456 l 493 460 l 493 533 q 474 603 493 544 l 468 603 q 282 394 290 601 l 282 232 l 292 85 l 428 75 l 418 -7 q 211 0 322 0 l 57 -7 l 50 63 l 156 85 q 169 190 169 163 l 169 490 l 156 596 l 50 618 l 57 692 q 185 686 157 686 l 235 686 l 261 661 l 269 569 q 493 699 349 699 m 440 1049 l 506 965 q 338 867 358 882 l 236 783 l 190 840 l 440 1049 z "},"Ŗ":{"ha":894,"x_min":58,"x_max":881,"o":"m 207 979 l 461 993 q 688 920 607 993 q 768 706 768 847 q 713 538 768 607 q 565 439 657 469 q 713 182 669 240 q 781 85 725 161 l 881 75 l 871 -7 q 651 0 763 0 q 575 161 593 128 l 439 418 l 429 418 q 307 419 344 418 l 307 232 q 317 85 307 153 l 442 75 l 432 -7 q 229 0 340 0 l 65 -7 l 58 63 l 168 85 q 181 190 181 167 l 181 789 q 168 894 181 807 l 61 911 l 68 986 q 207 979 161 982 m 403 924 q 318 915 388 924 q 307 747 307 846 l 307 493 q 401 488 376 488 q 574 542 511 488 q 638 704 638 597 q 575 867 638 811 q 403 924 513 924 m 443 -161 q 464 -102 443 -124 q 513 -81 485 -81 q 585 -172 585 -81 q 569 -253 585 -206 q 536 -331 553 -300 l 519 -360 l 468 -343 q 489 -233 489 -269 q 443 -161 443 -215 z "},"ŗ":{"ha":586,"x_min":50,"x_max":588,"o":"m 493 699 q 588 685 538 699 l 574 456 l 493 460 l 493 533 q 474 603 493 544 l 468 603 q 282 394 290 601 l 282 232 l 292 85 l 428 75 l 418 -7 q 211 0 322 0 l 57 -7 l 50 63 l 156 85 q 169 190 169 163 l 169 490 l 156 596 l 50 618 l 57 692 q 185 686 157 686 l 235 686 l 261 661 l 269 569 q 493 699 349 699 m 160 -161 q 181 -102 160 -124 q 229 -81 201 -81 q 301 -172 301 -81 q 285 -253 301 -206 q 253 -331 269 -300 l 236 -360 l 185 -343 q 206 -233 206 -269 q 160 -161 160 -215 z "},"Ř":{"ha":894,"x_min":58,"x_max":881,"o":"m 207 979 l 461 993 q 688 920 607 993 q 768 706 768 847 q 713 538 768 607 q 565 439 657 469 q 713 182 669 240 q 781 85 725 161 l 881 75 l 871 -7 q 651 0 763 0 q 575 161 593 128 l 439 418 l 429 418 q 307 419 344 418 l 307 232 q 317 85 307 153 l 442 75 l 432 -7 q 229 0 340 0 l 65 -7 l 58 63 l 168 85 q 181 190 181 167 l 181 789 q 168 894 181 807 l 61 911 l 68 986 q 207 979 161 982 m 403 924 q 318 915 388 924 q 307 747 307 846 l 307 493 q 401 488 376 488 q 574 542 511 488 q 638 704 638 597 q 575 867 638 811 q 403 924 513 924 m 643 1240 l 675 1186 l 433 1038 l 192 1186 l 224 1240 l 346 1183 l 433 1149 l 521 1183 l 643 1240 z "},"ř":{"ha":586,"x_min":50,"x_max":588,"o":"m 493 699 q 588 685 538 699 l 574 456 l 493 460 l 493 533 q 474 603 493 544 l 468 603 q 282 394 290 601 l 282 232 l 292 85 l 428 75 l 418 -7 q 211 0 322 0 l 57 -7 l 50 63 l 156 85 q 169 190 169 163 l 169 490 l 156 596 l 50 618 l 57 692 q 185 686 157 686 l 235 686 l 261 661 l 269 569 q 493 699 349 699 m 136 1063 l 239 978 q 321 918 244 974 l 403 978 l 506 1063 l 551 1018 l 321 783 l 90 1018 l 136 1063 z "},"Ś":{"ha":776,"x_min":69,"x_max":707,"o":"m 182 192 q 197 100 182 167 q 377 63 292 63 q 512 108 463 63 q 561 236 561 153 q 526 332 561 289 q 438 402 490 375 q 324 463 386 429 q 210 528 263 496 q 123 617 158 561 q 88 743 88 672 q 172 932 88 864 q 374 1000 256 1000 q 669 956 492 1000 l 650 746 l 568 754 l 568 815 q 550 893 568 824 q 398 924 479 924 q 272 883 317 924 q 226 769 226 843 q 322 626 226 686 q 415 574 364 600 q 518 519 467 549 q 612 456 569 490 q 681 369 654 421 q 707 253 707 317 q 614 49 707 119 q 375 -21 521 -21 q 215 -2 292 -21 q 104 35 139 17 l 69 53 l 90 267 l 182 258 l 182 192 m 550 1247 l 592 1146 q 382 1093 408 1101 l 260 1042 l 232 1108 l 550 1247 z "},"ś":{"ha":586,"x_min":58,"x_max":532,"o":"m 67 514 q 130 649 67 600 q 290 699 193 699 q 500 675 386 699 l 483 476 l 403 481 l 403 531 q 383 610 403 546 q 292 626 344 626 q 208 602 239 626 q 178 538 178 578 q 215 467 178 497 q 303 415 251 438 q 406 366 354 392 q 495 295 458 340 q 532 189 532 250 q 288 -14 532 -14 q 169 -1 226 -14 q 85 26 111 13 l 58 40 l 74 229 l 154 225 l 154 172 q 175 90 154 150 q 292 57 218 57 q 418 163 418 57 q 382 233 418 203 q 294 285 346 263 q 191 334 243 308 q 103 406 139 360 q 67 514 67 451 m 413 1049 l 478 965 q 310 867 331 882 l 208 783 l 163 840 l 413 1049 z "},"Ŝ":{"ha":776,"x_min":69,"x_max":707,"o":"m 182 192 q 197 100 182 167 q 377 63 292 63 q 512 108 463 63 q 561 236 561 153 q 526 332 561 289 q 438 402 490 375 q 324 463 386 429 q 210 528 263 496 q 123 617 158 561 q 88 743 88 672 q 172 932 88 864 q 374 1000 256 1000 q 669 956 492 1000 l 650 746 l 568 754 l 568 815 q 550 893 568 824 q 398 924 479 924 q 272 883 317 924 q 226 769 226 843 q 322 626 226 686 q 415 574 364 600 q 518 519 467 549 q 612 456 569 490 q 681 369 654 421 q 707 253 707 317 q 614 49 707 119 q 375 -21 521 -21 q 215 -2 292 -21 q 104 35 139 17 l 69 53 l 90 267 l 182 258 l 182 192 m 385 1240 l 626 1092 l 594 1038 l 472 1094 l 385 1129 l 297 1094 l 175 1038 l 143 1092 l 385 1240 z "},"ŝ":{"ha":586,"x_min":58,"x_max":532,"o":"m 67 514 q 130 649 67 600 q 290 699 193 699 q 500 675 386 699 l 483 476 l 403 481 l 403 531 q 383 610 403 546 q 292 626 344 626 q 208 602 239 626 q 178 538 178 578 q 215 467 178 497 q 303 415 251 438 q 406 366 354 392 q 495 295 458 340 q 532 189 532 250 q 288 -14 532 -14 q 169 -1 226 -14 q 85 26 111 13 l 58 40 l 74 229 l 154 225 l 154 172 q 175 90 154 150 q 292 57 218 57 q 418 163 418 57 q 382 233 418 203 q 294 285 346 263 q 191 334 243 308 q 103 406 139 360 q 67 514 67 451 m 293 1063 l 524 828 l 478 783 l 375 868 l 293 928 q 259 903 279 918 q 227 881 239 889 q 211 868 215 872 l 108 783 l 63 828 l 293 1063 z "},"Ş":{"ha":776,"x_min":69,"x_max":707,"o":"m 182 192 q 197 100 182 167 q 377 63 292 63 q 512 108 463 63 q 561 236 561 153 q 526 332 561 289 q 438 402 490 375 q 324 463 386 429 q 210 528 263 496 q 123 617 158 561 q 88 743 88 672 q 172 932 88 864 q 374 1000 256 1000 q 669 956 492 1000 l 650 746 l 568 754 l 568 815 q 550 893 568 824 q 398 924 479 924 q 272 883 317 924 q 226 769 226 843 q 322 626 226 686 q 415 574 364 600 q 518 519 467 549 q 612 456 569 490 q 681 369 654 421 q 707 253 707 317 q 622 57 707 126 q 401 -19 538 -12 l 389 -82 q 490 -115 451 -83 q 529 -203 529 -147 q 486 -292 529 -258 q 381 -326 443 -326 q 265 -301 318 -326 l 283 -253 q 365 -268 332 -268 q 418 -251 397 -268 q 439 -203 439 -233 q 374 -143 439 -143 l 344 -144 l 329 -131 l 339 -19 q 198 3 265 -15 q 100 36 131 21 l 69 53 l 90 267 l 182 258 l 182 192 z "},"ş":{"ha":586,"x_min":58,"x_max":532,"o":"m 67 514 q 130 649 67 600 q 290 699 193 699 q 500 675 386 699 l 483 476 l 403 481 l 403 531 q 383 610 403 546 q 292 626 344 626 q 208 602 239 626 q 178 538 178 578 q 215 467 178 497 q 303 415 251 438 q 406 366 354 392 q 495 295 458 340 q 532 189 532 250 q 322 -12 532 1 l 308 -82 q 410 -115 371 -83 q 449 -203 449 -147 q 406 -292 449 -258 q 300 -326 363 -326 q 185 -301 238 -326 l 203 -253 q 284 -268 251 -268 q 338 -251 317 -268 q 358 -203 358 -233 q 293 -143 358 -143 l 264 -144 l 249 -131 l 258 -12 q 154 3 204 -10 q 81 28 104 17 l 58 40 l 74 229 l 154 225 l 154 172 q 175 90 154 150 q 292 57 218 57 q 418 163 418 57 q 382 233 418 203 q 294 285 346 263 q 191 334 243 308 q 103 406 139 360 q 67 514 67 451 z "},"Š":{"ha":776,"x_min":69,"x_max":707,"o":"m 182 192 q 197 100 182 167 q 377 63 292 63 q 512 108 463 63 q 561 236 561 153 q 526 332 561 289 q 438 402 490 375 q 324 463 386 429 q 210 528 263 496 q 123 617 158 561 q 88 743 88 672 q 172 932 88 864 q 374 1000 256 1000 q 669 956 492 1000 l 650 746 l 568 754 l 568 815 q 550 893 568 824 q 398 924 479 924 q 272 883 317 924 q 226 769 226 843 q 322 626 226 686 q 415 574 364 600 q 518 519 467 549 q 612 456 569 490 q 681 369 654 421 q 707 253 707 317 q 614 49 707 119 q 375 -21 521 -21 q 215 -2 292 -21 q 104 35 139 17 l 69 53 l 90 267 l 182 258 l 182 192 m 594 1240 l 626 1186 l 385 1038 l 143 1186 l 175 1240 l 297 1183 l 385 1149 l 472 1183 l 594 1240 z "},"š":{"ha":586,"x_min":58,"x_max":532,"o":"m 67 514 q 130 649 67 600 q 290 699 193 699 q 500 675 386 699 l 483 476 l 403 481 l 403 531 q 383 610 403 546 q 292 626 344 626 q 208 602 239 626 q 178 538 178 578 q 215 467 178 497 q 303 415 251 438 q 406 366 354 392 q 495 295 458 340 q 532 189 532 250 q 288 -14 532 -14 q 169 -1 226 -14 q 85 26 111 13 l 58 40 l 74 229 l 154 225 l 154 172 q 175 90 154 150 q 292 57 218 57 q 418 163 418 57 q 382 233 418 203 q 294 285 346 263 q 191 334 243 308 q 103 406 139 360 q 67 514 67 451 m 108 1063 l 211 978 q 293 918 217 974 l 375 978 l 478 1063 l 524 1018 l 293 783 l 63 1018 l 108 1063 z "},"Ţ":{"ha":826,"x_min":14,"x_max":813,"o":"m 350 789 q 338 901 350 826 l 250 901 q 138 894 214 901 q 106 838 111 861 q 94 761 101 815 l 14 768 l 24 968 l 50 993 q 208 979 181 979 l 618 979 l 776 993 l 803 968 l 813 768 l 732 761 q 720 838 725 815 q 689 894 715 861 q 576 901 613 901 l 486 901 q 476 747 476 804 l 476 232 q 486 85 476 153 l 611 75 l 601 -7 q 443 0 532 -1 l 426 -82 q 528 -115 489 -83 q 567 -203 567 -147 q 524 -292 567 -258 q 418 -326 481 -326 q 303 -301 356 -326 l 321 -253 q 402 -268 369 -268 q 456 -251 435 -268 q 476 -203 476 -233 q 411 -143 476 -143 l 382 -144 l 367 -131 l 378 0 l 235 -7 l 228 63 l 338 85 q 350 190 350 167 l 350 789 z "},"ţ":{"ha":478,"x_min":28,"x_max":475,"o":"m 429 -115 q 449 -131 429 -115 q 468 -203 468 -147 q 425 -292 468 -258 q 319 -326 382 -326 q 204 -301 257 -326 l 222 -253 q 303 -268 271 -268 q 357 -251 336 -268 q 378 -203 378 -233 q 313 -143 378 -143 l 283 -144 l 268 -131 l 278 -11 q 170 52 201 -3 q 139 217 139 107 l 139 611 l 32 611 l 28 669 q 67 681 40 674 q 139 710 114 694 l 203 835 l 251 829 l 251 686 l 446 686 l 439 611 l 251 611 l 251 183 q 326 75 251 75 q 419 106 372 75 l 436 115 l 475 58 q 342 -11 397 -3 l 328 -82 q 429 -115 390 -83 z "},"Ť":{"ha":826,"x_min":14,"x_max":813,"o":"m 350 789 q 338 901 350 826 l 250 901 q 138 894 214 901 q 106 838 111 861 q 94 761 101 815 l 14 768 l 24 968 l 50 993 q 208 979 181 979 l 618 979 l 776 993 l 803 968 l 813 768 l 732 761 q 720 838 725 815 q 689 894 715 861 q 576 901 613 901 l 486 901 q 476 747 476 804 l 476 232 q 486 85 476 153 l 611 75 l 601 -7 q 399 0 510 0 l 235 -7 l 228 63 l 338 85 q 350 190 350 167 l 350 789 m 624 1240 l 656 1186 l 414 1038 l 172 1186 l 204 1240 l 326 1183 l 414 1149 l 501 1183 l 624 1240 z "},"ť":{"ha":478,"x_min":28,"x_max":475,"o":"m 329 1050 l 439 1050 l 421 754 l 340 758 l 342 872 l 329 1050 m 311 -14 q 177 42 215 -14 q 139 217 139 97 l 139 611 l 32 611 l 28 669 q 67 681 40 674 q 139 710 114 694 l 203 835 l 251 829 l 251 686 l 446 686 l 439 611 l 251 611 l 251 183 q 326 75 251 75 q 419 106 372 75 l 436 115 l 475 58 q 311 -14 382 -14 z "},"Ŧ":{"ha":826,"x_min":14,"x_max":813,"o":"m 350 789 q 338 901 350 826 l 250 901 q 138 894 214 901 q 106 838 111 861 q 94 761 101 815 l 14 768 l 24 968 l 50 993 q 208 979 181 979 l 618 979 l 776 993 l 803 968 l 813 768 l 732 761 q 720 838 725 815 q 689 894 715 861 q 576 901 613 901 l 486 901 q 476 747 476 804 l 476 551 l 690 551 l 690 490 l 476 490 l 476 232 q 486 85 476 153 l 611 75 l 601 -7 q 399 0 510 0 l 235 -7 l 228 63 l 338 85 q 350 190 350 167 l 350 490 l 135 490 l 135 551 l 350 551 l 350 789 z "},"ŧ":{"ha":478,"x_min":28,"x_max":475,"o":"m 311 -14 q 177 42 215 -14 q 139 217 139 97 l 139 411 l 32 411 l 32 472 l 139 472 l 139 611 l 32 611 l 28 669 q 67 681 40 674 q 139 710 114 694 l 203 835 l 251 829 l 251 686 l 446 686 l 439 611 l 251 611 l 251 472 l 426 472 l 426 411 l 251 411 l 251 183 q 326 75 251 75 q 419 106 372 75 l 436 115 l 475 58 q 311 -14 382 -14 z "},"Ũ":{"ha":1010,"x_min":24,"x_max":983,"o":"m 864 740 l 864 369 q 772 83 864 188 q 504 -21 679 -21 q 238 83 329 -21 q 146 369 146 188 l 146 782 q 133 894 146 800 l 24 911 l 31 986 q 192 979 164 979 l 392 986 l 397 904 l 288 894 q 278 740 278 822 l 278 369 q 339 150 278 232 q 519 68 400 68 q 701 151 638 68 q 764 369 764 233 l 764 782 q 750 894 764 797 l 642 911 l 649 986 q 796 979 768 979 l 978 986 l 983 904 l 874 894 q 864 740 864 822 m 722 1158 q 717 1146 722 1158 q 681 1097 711 1135 q 624 1060 650 1060 q 511 1088 597 1060 q 403 1117 425 1117 q 333 1061 365 1117 l 324 1042 l 274 1071 q 292 1110 281 1086 q 333 1172 303 1133 q 389 1211 363 1211 q 502 1183 415 1211 q 611 1154 589 1154 q 681 1207 650 1154 l 690 1225 l 740 1196 q 722 1158 733 1181 z "},"ũ":{"ha":822,"x_min":32,"x_max":785,"o":"m 578 686 l 658 686 l 685 661 q 675 449 675 518 l 675 232 q 686 106 675 171 l 689 85 l 785 75 l 775 -7 q 596 0 707 0 l 578 108 q 368 -14 507 -14 q 183 65 229 -14 q 138 301 138 143 l 138 490 l 124 596 l 32 618 l 39 692 q 153 686 125 686 l 233 686 l 260 661 q 250 449 250 518 l 250 254 q 388 75 250 75 q 516 139 469 75 q 563 292 563 203 l 563 490 l 549 596 l 450 618 l 457 692 q 578 686 550 686 m 589 937 q 583 925 589 937 q 547 876 578 914 q 490 839 517 839 q 385 867 464 839 q 283 896 306 896 q 214 839 246 896 l 204 821 l 154 850 q 172 889 161 865 q 213 951 183 913 q 269 990 243 990 q 376 962 296 990 q 478 933 456 933 q 547 986 514 933 l 557 1004 l 607 975 q 589 937 600 960 z "},"Ū":{"ha":1010,"x_min":24,"x_max":983,"o":"m 864 740 l 864 369 q 772 83 864 188 q 504 -21 679 -21 q 238 83 329 -21 q 146 369 146 188 l 146 782 q 133 894 146 800 l 24 911 l 31 986 q 192 979 164 979 l 392 986 l 397 904 l 288 894 q 278 740 278 822 l 278 369 q 339 150 278 232 q 519 68 400 68 q 701 151 638 68 q 764 369 764 233 l 764 782 q 750 894 764 797 l 642 911 l 649 986 q 796 979 768 979 l 978 986 l 983 904 l 874 894 q 864 740 864 822 m 283 1071 l 283 1144 l 731 1144 l 724 1071 l 283 1071 z "},"ū":{"ha":822,"x_min":32,"x_max":785,"o":"m 578 686 l 658 686 l 685 661 q 675 449 675 518 l 675 232 q 686 106 675 171 l 689 85 l 785 75 l 775 -7 q 596 0 707 0 l 578 108 q 368 -14 507 -14 q 183 65 229 -14 q 138 301 138 143 l 138 490 l 124 596 l 32 618 l 39 692 q 153 686 125 686 l 233 686 l 260 661 q 250 449 250 518 l 250 254 q 388 75 250 75 q 516 139 469 75 q 563 292 563 203 l 563 490 l 549 596 l 450 618 l 457 692 q 578 686 550 686 m 157 828 l 157 901 l 604 901 l 597 828 l 157 828 z "},"Ŭ":{"ha":1010,"x_min":24,"x_max":983,"o":"m 864 740 l 864 369 q 772 83 864 188 q 504 -21 679 -21 q 238 83 329 -21 q 146 369 146 188 l 146 782 q 133 894 146 800 l 24 911 l 31 986 q 192 979 164 979 l 392 986 l 397 904 l 288 894 q 278 740 278 822 l 278 369 q 339 150 278 232 q 519 68 400 68 q 701 151 638 68 q 764 369 764 233 l 764 782 q 750 894 764 797 l 642 911 l 649 986 q 796 979 768 979 l 978 986 l 983 904 l 874 894 q 864 740 864 822 m 622 1247 l 700 1247 q 650 1103 700 1153 q 507 1053 600 1053 q 364 1103 414 1053 q 314 1247 314 1153 l 392 1247 q 424 1163 392 1194 q 507 1131 456 1131 q 590 1163 558 1131 q 622 1247 622 1194 z "},"ŭ":{"ha":822,"x_min":32,"x_max":785,"o":"m 578 686 l 658 686 l 685 661 q 675 449 675 518 l 675 232 q 686 106 675 171 l 689 85 l 785 75 l 775 -7 q 596 0 707 0 l 578 108 q 368 -14 507 -14 q 183 65 229 -14 q 138 301 138 143 l 138 490 l 124 596 l 32 618 l 39 692 q 153 686 125 686 l 233 686 l 260 661 q 250 449 250 518 l 250 254 q 388 75 250 75 q 516 139 469 75 q 563 292 563 203 l 563 490 l 549 596 l 450 618 l 457 692 q 578 686 550 686 m 496 1010 l 574 1010 q 524 865 574 915 q 381 815 474 815 q 238 865 288 815 q 188 1010 188 915 l 265 1010 q 297 925 265 957 q 381 893 329 893 q 464 925 432 893 q 496 1010 496 957 z "},"Ů":{"ha":1010,"x_min":24,"x_max":983,"o":"m 864 740 l 864 369 q 772 83 864 188 q 504 -21 679 -21 q 238 83 329 -21 q 146 369 146 188 l 146 782 q 133 894 146 800 l 24 911 l 31 986 q 192 979 164 979 l 392 986 l 397 904 l 288 894 q 278 740 278 822 l 278 369 q 339 150 278 232 q 519 68 400 68 q 701 151 638 68 q 764 369 764 233 l 764 782 q 750 894 764 797 l 642 911 l 649 986 q 796 979 768 979 l 978 986 l 983 904 l 874 894 q 864 740 864 822 m 414 1240 q 430 1256 414 1240 q 507 1272 446 1272 q 599 1240 568 1272 q 631 1153 631 1208 q 599 1067 631 1099 q 507 1035 568 1035 q 414 1067 446 1035 q 382 1153 382 1099 q 414 1240 382 1208 m 565 1153 q 565 1186 565 1153 q 508 1219 565 1219 q 450 1153 450 1219 q 508 1088 450 1088 q 565 1153 565 1088 z "},"ů":{"ha":822,"x_min":32,"x_max":785,"o":"m 578 686 l 658 686 l 685 661 q 675 449 675 518 l 675 232 q 686 106 675 171 l 689 85 l 785 75 l 775 -7 q 596 0 707 0 l 578 108 q 368 -14 507 -14 q 183 65 229 -14 q 138 301 138 143 l 138 490 l 124 596 l 32 618 l 39 692 q 153 686 125 686 l 233 686 l 260 661 q 250 449 250 518 l 250 254 q 388 75 250 75 q 516 139 469 75 q 563 292 563 203 l 563 490 l 549 596 l 450 618 l 457 692 q 578 686 550 686 m 288 1011 q 303 1027 288 1011 q 381 1043 319 1043 q 473 1011 442 1043 q 504 924 504 979 q 473 838 504 869 q 381 806 442 806 q 288 838 319 806 q 256 924 256 869 q 288 1011 256 979 m 439 924 q 439 957 439 924 q 381 990 439 990 q 324 924 324 990 q 381 858 324 858 q 439 924 439 858 z "},"Ű":{"ha":1010,"x_min":24,"x_max":983,"o":"m 864 740 l 864 369 q 772 83 864 188 q 504 -21 679 -21 q 238 83 329 -21 q 146 369 146 188 l 146 782 q 133 894 146 800 l 24 911 l 31 986 q 192 979 164 979 l 392 986 l 397 904 l 288 894 q 278 740 278 822 l 278 369 q 339 150 278 232 q 519 68 400 68 q 701 151 638 68 q 764 369 764 233 l 764 782 q 750 894 764 797 l 642 911 l 649 986 q 796 979 768 979 l 978 986 l 983 904 l 874 894 q 864 740 864 822 m 546 1268 l 603 1175 q 404 1089 431 1101 l 290 1019 l 253 1079 l 546 1268 m 843 1268 l 900 1175 q 701 1089 728 1101 l 589 1019 l 551 1079 l 843 1268 z "},"ű":{"ha":822,"x_min":32,"x_max":785,"o":"m 578 686 l 658 686 l 685 661 q 675 449 675 518 l 675 232 q 686 106 675 171 l 689 85 l 785 75 l 775 -7 q 596 0 707 0 l 578 108 q 368 -14 507 -14 q 183 65 229 -14 q 138 301 138 143 l 138 490 l 124 596 l 32 618 l 39 692 q 153 686 125 686 l 233 686 l 260 661 q 250 449 250 518 l 250 254 q 388 75 250 75 q 516 139 469 75 q 563 292 563 203 l 563 490 l 549 596 l 450 618 l 457 692 q 578 686 550 686 m 681 1063 l 749 976 q 563 868 585 883 l 460 783 l 414 840 l 681 1063 m 401 1063 l 469 976 q 283 868 306 883 l 181 783 l 135 840 l 401 1063 z "},"Ų":{"ha":1010,"x_min":24,"x_max":983,"o":"m 864 740 l 864 369 q 787 103 864 204 q 564 -17 710 1 q 507 -151 507 -87 q 583 -215 507 -215 q 661 -197 619 -215 l 681 -243 q 556 -274 615 -274 q 457 -242 496 -274 q 418 -149 418 -211 q 489 -21 418 -87 q 233 88 321 -15 q 146 369 146 190 l 146 782 q 133 894 146 800 l 24 911 l 31 986 q 192 979 164 979 l 392 986 l 397 904 l 288 894 q 278 740 278 822 l 278 369 q 339 150 278 232 q 519 68 400 68 q 701 151 638 68 q 764 369 764 233 l 764 782 q 750 894 764 797 l 642 911 l 649 986 q 796 979 768 979 l 978 986 l 983 904 l 874 894 q 864 740 864 822 z "},"ų":{"ha":822,"x_min":32,"x_max":785,"o":"m 578 686 l 658 686 l 685 661 q 675 449 675 518 l 675 232 q 686 106 675 171 l 689 85 l 785 75 l 775 -7 q 661 0 732 -3 q 590 -150 590 -81 q 667 -215 590 -215 q 744 -197 703 -215 l 764 -243 q 639 -274 699 -274 q 540 -242 579 -274 q 501 -160 501 -211 q 522 -78 501 -110 q 596 0 543 -46 l 578 108 q 368 -14 507 -14 q 183 65 229 -14 q 138 301 138 143 l 138 490 l 124 596 l 32 618 l 39 692 q 153 686 125 686 l 233 686 l 260 661 q 250 449 250 518 l 250 254 q 388 75 250 75 q 516 139 469 75 q 563 292 563 203 l 563 490 l 549 596 l 450 618 l 457 692 q 578 686 550 686 z "},"Ŵ":{"ha":1404,"x_min":1,"x_max":1401,"o":"m 1401 918 l 1307 894 q 1243 757 1260 811 l 1015 0 l 931 0 l 699 703 l 488 0 l 403 0 l 149 772 q 103 874 133 822 l 93 890 l 1 904 l 8 979 l 160 979 l 364 986 l 369 918 l 260 890 q 297 740 276 811 l 457 206 l 676 951 l 750 951 l 985 206 l 1156 803 l 1171 890 l 1065 904 l 1072 979 l 1197 979 l 1396 986 l 1401 918 m 703 1240 l 944 1092 l 913 1038 l 790 1094 l 703 1129 l 615 1094 l 493 1038 l 461 1092 l 703 1240 z "},"ŵ":{"ha":1111,"x_min":8,"x_max":1106,"o":"m 814 690 q 956 686 917 686 q 1086 692 1053 686 l 1101 693 l 1106 613 l 1043 604 q 974 443 1000 508 l 814 0 l 719 0 l 556 465 l 397 0 l 304 0 q 117 492 133 447 q 65 603 101 538 l 8 618 l 15 690 q 111 686 83 686 l 319 693 l 324 613 l 213 603 q 246 485 239 503 l 365 143 l 542 686 l 596 686 l 782 143 l 897 488 q 925 603 903 503 l 807 618 l 814 690 m 556 1063 l 786 828 l 740 783 l 638 868 l 556 928 q 522 903 542 918 q 490 881 501 889 q 474 868 478 872 l 371 783 l 325 828 l 556 1063 z "},"Ŷ":{"ha":921,"x_min":8,"x_max":896,"o":"m 519 232 q 529 85 519 153 l 654 75 l 644 -7 q 442 0 553 0 l 278 -7 l 271 63 l 381 85 q 393 190 393 165 l 393 357 l 178 772 q 114 874 151 826 l 100 890 l 8 904 l 15 979 l 167 979 l 371 986 l 376 918 l 267 890 q 326 740 282 822 l 467 478 l 626 803 l 665 890 l 560 904 l 567 979 l 692 979 l 890 986 l 896 918 l 801 894 q 714 757 751 829 l 519 379 l 519 232 m 461 1240 l 703 1092 l 671 1038 l 549 1094 l 461 1129 l 374 1094 l 251 1038 l 219 1092 l 461 1240 z "},"ŷ":{"ha":749,"x_min":0,"x_max":736,"o":"m 388 144 l 508 467 q 546 601 528 521 l 444 618 l 451 690 q 572 686 544 686 l 732 693 l 736 613 l 663 601 q 590 443 613 500 l 304 -326 l 81 -311 l 92 -231 l 147 -232 q 240 -218 167 -232 q 293 -124 275 -169 l 338 0 l 139 463 q 68 601 118 514 l 0 618 l 7 690 q 121 686 93 686 l 311 693 l 315 613 l 215 603 q 250 485 233 524 l 388 144 m 375 1063 l 606 828 l 560 783 l 457 868 l 375 928 q 341 903 361 918 q 309 881 321 889 q 293 868 297 872 l 190 783 l 144 828 l 375 1063 z "},"Ÿ":{"ha":921,"x_min":8,"x_max":896,"o":"m 519 232 q 529 85 519 153 l 654 75 l 644 -7 q 442 0 553 0 l 278 -7 l 271 63 l 381 85 q 393 190 393 165 l 393 357 l 178 772 q 114 874 151 826 l 100 890 l 8 904 l 15 979 l 167 979 l 371 986 l 376 918 l 267 890 q 326 740 282 822 l 467 478 l 626 803 l 665 890 l 560 904 l 567 979 l 692 979 l 890 986 l 896 918 l 801 894 q 714 757 751 829 l 519 379 l 519 232 m 297 1228 q 372 1145 372 1228 q 297 1063 372 1063 q 222 1144 222 1063 q 242 1206 222 1183 q 297 1228 261 1228 m 625 1228 q 700 1145 700 1228 q 625 1063 700 1063 q 550 1144 550 1063 q 569 1206 550 1183 q 625 1228 589 1228 z "},"Ź":{"ha":774,"x_min":38,"x_max":736,"o":"m 300 897 q 181 890 257 897 l 158 843 q 140 726 146 796 l 60 733 l 69 968 l 96 993 q 254 979 226 979 l 714 979 l 724 901 l 574 686 l 308 265 l 207 82 l 489 82 q 611 94 542 82 q 644 162 636 128 q 660 250 653 196 l 736 243 l 715 19 l 689 -6 q 531 0 558 0 l 47 0 l 38 79 q 193 304 151 238 l 457 722 l 554 897 l 300 897 m 553 1247 l 594 1146 q 385 1093 411 1101 l 263 1042 l 235 1108 l 553 1247 z "},"ź":{"ha":639,"x_min":57,"x_max":594,"o":"m 232 686 l 568 686 l 578 606 l 458 454 l 289 197 q 219 72 271 169 l 393 72 q 475 81 408 72 q 506 151 503 135 q 514 207 511 181 l 594 199 l 582 22 l 557 -4 q 404 0 432 0 l 67 0 l 57 81 q 189 233 168 203 l 361 489 q 431 614 386 528 l 261 614 q 188 606 249 614 q 154 519 157 550 l 149 465 l 68 471 l 75 664 l 100 690 q 232 686 204 686 m 439 1049 l 504 965 q 336 867 357 882 l 235 783 l 189 840 l 439 1049 z "},"Ż":{"ha":774,"x_min":38,"x_max":736,"o":"m 300 897 q 181 890 257 897 l 158 843 q 140 726 146 796 l 60 733 l 69 968 l 96 993 q 254 979 226 979 l 714 979 l 724 901 l 574 686 l 308 265 l 207 82 l 489 82 q 611 94 542 82 q 644 162 636 128 q 660 250 653 196 l 736 243 l 715 19 l 689 -6 q 531 0 558 0 l 47 0 l 38 79 q 193 304 151 238 l 457 722 l 554 897 l 300 897 m 327 1211 q 338 1224 327 1211 q 388 1236 349 1236 q 448 1213 426 1236 q 469 1147 469 1189 q 448 1081 469 1106 q 388 1057 426 1057 q 327 1081 349 1057 q 306 1146 306 1106 q 327 1211 306 1186 z "},"ż":{"ha":639,"x_min":57,"x_max":594,"o":"m 232 686 l 568 686 l 578 606 l 458 454 l 289 197 q 219 72 271 169 l 393 72 q 475 81 408 72 q 506 151 503 135 q 514 207 511 181 l 594 199 l 582 22 l 557 -4 q 404 0 432 0 l 67 0 l 57 81 q 189 233 168 203 l 361 489 q 431 614 386 528 l 261 614 q 188 606 249 614 q 154 519 157 550 l 149 465 l 68 471 l 75 664 l 100 690 q 232 686 204 686 m 259 975 q 270 988 259 975 q 319 1000 281 1000 q 380 976 358 1000 q 401 911 401 953 q 380 845 401 869 q 319 821 358 821 q 259 845 281 821 q 238 910 238 869 q 259 975 238 950 z "},"Ž":{"ha":774,"x_min":38,"x_max":736,"o":"m 300 897 q 181 890 257 897 l 158 843 q 140 726 146 796 l 60 733 l 69 968 l 96 993 q 254 979 226 979 l 714 979 l 724 901 l 574 686 l 308 265 l 207 82 l 489 82 q 611 94 542 82 q 644 162 636 128 q 660 250 653 196 l 736 243 l 715 19 l 689 -6 q 531 0 558 0 l 47 0 l 38 79 q 193 304 151 238 l 457 722 l 554 897 l 300 897 m 597 1240 l 629 1186 l 388 1038 l 146 1186 l 178 1240 l 300 1183 l 388 1149 l 475 1183 l 597 1240 z "},"ž":{"ha":639,"x_min":57,"x_max":594,"o":"m 232 686 l 568 686 l 578 606 l 458 454 l 289 197 q 219 72 271 169 l 393 72 q 475 81 408 72 q 506 151 503 135 q 514 207 511 181 l 594 199 l 582 22 l 557 -4 q 404 0 432 0 l 67 0 l 57 81 q 189 233 168 203 l 361 489 q 431 614 386 528 l 261 614 q 188 606 249 614 q 154 519 157 550 l 149 465 l 68 471 l 75 664 l 100 690 q 232 686 204 686 m 135 1063 l 238 978 q 319 918 243 974 l 401 978 l 504 1063 l 550 1018 l 319 783 l 89 1018 l 135 1063 z "},"ƒ":{"ha":507,"x_min":-7,"x_max":557,"o":"m 414 1069 q 533 1058 465 1069 l 557 1056 l 535 868 l 461 872 l 464 922 q 447 993 464 946 q 401 996 428 996 q 349 985 375 996 q 309 959 324 975 q 286 914 294 943 q 272 786 275 865 l 269 686 l 464 686 l 454 611 l 267 611 l 244 -29 q 175 -205 240 -140 q -7 -269 110 -269 l -4 -196 q 105 -147 81 -196 q 133 14 129 -97 l 154 611 l 47 611 l 44 669 q 76 679 57 674 q 107 689 96 685 q 157 710 138 697 l 161 829 q 231 1005 165 940 q 414 1069 296 1069 z "},"Ǻ":{"ha":922,"x_min":14,"x_max":917,"o":"m 917 75 l 910 0 l 769 0 l 571 -7 l 565 61 l 667 89 l 629 239 l 600 322 l 294 322 l 250 176 l 236 89 l 333 75 l 326 0 l 207 0 l 19 -7 l 14 61 l 101 85 l 161 222 l 410 979 l 490 993 l 776 207 l 831 89 l 917 75 m 442 774 l 319 392 l 572 397 l 442 774 m 375 1187 q 389 1200 375 1187 q 454 1214 403 1214 q 533 1187 506 1214 q 560 1113 560 1160 q 533 1040 560 1067 q 454 1013 506 1013 q 375 1040 403 1013 q 347 1113 347 1067 q 375 1187 347 1160 m 504 1113 q 504 1141 504 1113 q 455 1169 504 1169 q 406 1113 406 1169 q 455 1057 406 1057 q 504 1113 504 1057 m 574 1385 l 611 1294 q 422 1246 446 1254 l 313 1200 l 288 1260 l 574 1385 z "},"ǻ":{"ha":717,"x_min":63,"x_max":693,"o":"m 485 110 q 395 22 458 57 q 251 -14 332 -14 q 117 34 171 -14 q 63 164 63 82 q 249 349 63 318 l 471 386 l 471 432 q 340 624 471 624 q 208 596 267 624 l 199 538 l 199 481 l 118 476 l 103 665 q 353 699 228 699 q 531 631 478 699 q 583 404 583 564 l 583 232 q 594 106 583 171 l 597 85 l 693 75 l 683 -7 q 504 0 615 0 l 485 110 m 272 278 q 185 176 185 264 q 211 103 185 132 q 297 75 238 75 q 408 119 356 75 q 471 232 460 164 l 471 315 l 272 278 m 460 1129 l 497 1039 q 308 990 332 999 l 199 944 l 174 1004 l 460 1129 m 261 931 q 275 945 261 931 q 340 958 289 958 q 419 931 392 958 q 446 858 446 904 q 419 784 446 811 q 340 757 392 757 q 261 784 289 757 q 233 858 233 811 q 261 931 233 904 m 390 858 q 390 886 390 858 q 341 914 390 914 q 292 858 292 914 q 341 801 292 801 q 390 858 390 801 z "},"Ǽ":{"ha":1260,"x_min":-14,"x_max":1207,"o":"m 913 900 l 661 900 q 676 751 671 792 l 710 536 q 815 531 788 531 l 882 531 l 965 543 l 978 635 l 1042 628 q 1040 517 1040 544 l 1044 365 l 978 357 l 965 450 q 854 458 882 458 l 815 458 q 722 453 794 458 l 756 242 l 790 79 l 960 79 q 1081 92 1011 79 q 1110 143 1104 125 q 1131 236 1126 208 l 1207 229 l 1186 19 l 1160 -6 q 1001 0 1029 0 l 699 0 l 535 -7 l 528 63 l 642 85 q 635 181 642 135 l 610 344 l 313 344 l 217 142 q 208 114 214 135 q 200 85 203 93 l 314 75 l 304 -7 q 122 0 233 0 l -7 -7 l -14 63 l 69 85 q 154 213 142 185 l 479 894 l 371 911 l 378 986 q 539 979 511 979 l 954 979 l 1113 993 l 1139 968 l 1149 779 l 1068 772 q 1058 833 1064 806 q 1025 893 1051 860 q 913 900 949 900 m 347 415 l 599 419 l 544 772 l 535 811 l 347 415 m 865 1247 l 907 1146 q 697 1093 724 1101 l 575 1042 l 547 1108 l 865 1247 z "},"ǽ":{"ha":1050,"x_min":56,"x_max":1011,"o":"m 96 665 q 356 699 221 699 q 539 608 490 699 q 747 697 621 697 q 1011 431 992 697 l 990 378 l 575 331 q 635 147 579 217 q 778 76 692 76 q 875 91 826 76 q 947 119 924 106 l 971 133 l 1010 69 q 901 13 975 39 q 764 -14 828 -14 q 507 147 578 -14 q 257 -14 413 -14 q 110 36 164 -14 q 56 164 56 86 q 215 343 56 318 l 464 385 l 464 432 q 333 624 464 624 q 204 597 257 624 l 192 532 l 192 482 l 111 478 l 96 665 m 265 278 q 198 245 218 268 q 178 176 178 222 q 204 102 178 129 q 279 75 231 75 q 410 140 357 75 q 464 299 464 204 l 464 314 l 265 278 m 886 447 q 848 578 886 532 q 740 625 810 625 q 628 567 671 625 q 578 401 585 508 l 886 444 l 886 447 m 658 1049 l 724 965 q 556 867 576 882 l 454 783 l 408 840 l 658 1049 z "},"Ǿ":{"ha":1028,"x_min":58,"x_max":969,"o":"m 969 489 q 852 117 969 256 q 514 -21 735 -21 q 306 21 397 -21 l 194 -189 l 139 -157 l 249 53 q 58 489 58 182 q 176 861 58 722 q 514 1000 293 1000 q 725 957 632 1000 l 833 1164 l 892 1132 l 782 924 q 969 489 969 790 m 514 926 q 286 803 365 926 q 207 476 207 681 q 301 153 207 272 l 679 871 q 514 926 608 926 m 514 53 q 742 175 663 53 q 821 500 821 297 q 728 822 821 703 l 350 106 q 514 53 421 53 m 679 1247 l 721 1146 q 511 1093 538 1101 l 389 1042 l 361 1108 l 679 1247 z "},"ǿ":{"ha":750,"x_min":56,"x_max":694,"o":"m 56 342 q 138 602 56 506 q 375 699 221 699 q 525 668 460 699 l 611 831 l 667 803 l 578 636 q 694 342 694 544 q 612 83 694 179 q 375 -14 529 -14 q 246 7 308 -14 l 169 -137 l 115 -110 l 192 36 q 56 342 56 126 m 375 619 q 231 541 275 619 q 186 332 186 463 q 240 128 186 201 l 481 585 q 375 619 439 619 m 375 65 q 519 143 475 65 q 564 339 564 221 q 524 532 564 457 l 288 86 q 375 65 322 65 m 500 1049 l 565 965 q 397 867 418 882 l 296 783 l 250 840 l 500 1049 z "},"Ș":{"ha":776,"x_min":69,"x_max":707,"o":"m 182 192 q 197 100 182 167 q 377 63 292 63 q 512 108 463 63 q 561 236 561 153 q 526 332 561 289 q 438 402 490 375 q 324 463 386 429 q 210 528 263 496 q 123 617 158 561 q 88 743 88 672 q 172 932 88 864 q 374 1000 256 1000 q 669 956 492 1000 l 650 746 l 568 754 l 568 815 q 550 893 568 824 q 398 924 479 924 q 272 883 317 924 q 226 769 226 843 q 322 626 226 686 q 415 574 364 600 q 518 519 467 549 q 612 456 569 490 q 681 369 654 421 q 707 253 707 317 q 614 49 707 119 q 375 -21 521 -21 q 215 -2 292 -21 q 104 35 139 17 l 69 53 l 90 267 l 182 258 l 182 192 m 311 -161 q 332 -102 311 -124 q 381 -81 353 -81 q 453 -172 453 -81 q 436 -253 453 -206 q 403 -331 419 -300 l 388 -360 l 336 -343 q 357 -233 357 -269 q 311 -161 311 -215 z "},"ș":{"ha":586,"x_min":58,"x_max":532,"o":"m 67 514 q 130 649 67 600 q 290 699 193 699 q 500 675 386 699 l 483 476 l 403 481 l 403 531 q 383 610 403 546 q 292 626 344 626 q 208 602 239 626 q 178 538 178 578 q 215 467 178 497 q 303 415 251 438 q 406 366 354 392 q 495 295 458 340 q 532 189 532 250 q 288 -14 532 -14 q 169 -1 226 -14 q 85 26 111 13 l 58 40 l 74 229 l 154 225 l 154 172 q 175 90 154 150 q 292 57 218 57 q 418 163 418 57 q 382 233 418 203 q 294 285 346 263 q 191 334 243 308 q 103 406 139 360 q 67 514 67 451 m 226 -161 q 247 -102 226 -124 q 296 -81 268 -81 q 368 -172 368 -81 q 352 -253 368 -206 q 319 -331 336 -300 l 303 -360 l 251 -343 q 272 -233 272 -269 q 226 -161 226 -215 z "},"Ț":{"ha":826,"x_min":14,"x_max":813,"o":"m 350 789 q 338 901 350 826 l 250 901 q 138 894 214 901 q 106 838 111 861 q 94 761 101 815 l 14 768 l 24 968 l 50 993 q 208 979 181 979 l 618 979 l 776 993 l 803 968 l 813 768 l 732 761 q 720 838 725 815 q 689 894 715 861 q 576 901 613 901 l 486 901 q 476 747 476 804 l 476 232 q 486 85 476 153 l 611 75 l 601 -7 q 399 0 510 0 l 235 -7 l 228 63 l 338 85 q 350 190 350 167 l 350 789 m 350 -161 q 371 -102 350 -124 q 419 -81 392 -81 q 492 -172 492 -81 q 475 -253 492 -206 q 442 -331 458 -300 l 426 -360 l 375 -343 q 396 -233 396 -269 q 350 -161 350 -215 z "},"ț":{"ha":478,"x_min":28,"x_max":475,"o":"m 311 -14 q 177 42 215 -14 q 139 217 139 97 l 139 611 l 32 611 l 28 669 q 67 681 40 674 q 139 710 114 694 l 203 835 l 251 829 l 251 686 l 446 686 l 439 611 l 251 611 l 251 183 q 326 75 251 75 q 419 106 372 75 l 436 115 l 475 58 q 311 -14 382 -14 m 219 -161 q 240 -102 219 -124 q 289 -81 261 -81 q 361 -172 361 -81 q 344 -253 361 -206 q 311 -331 328 -300 l 296 -360 l 244 -343 q 265 -233 265 -269 q 219 -161 219 -215 z "},"ȷ":{"ha":386,"x_min":35,"x_max":276,"o":"m 169 686 l 250 686 l 276 661 q 267 449 267 518 l 267 -14 q 225 -117 267 -39 q 142 -261 183 -194 l 99 -326 l 49 -297 q 154 29 154 -26 l 154 490 l 140 596 l 35 618 l 42 692 q 169 686 142 686 z "},"ˆ":{"ha":500,"x_min":19,"x_max":481,"o":"m 250 1063 l 481 828 l 435 783 l 332 868 l 250 928 q 216 903 236 918 q 184 881 196 889 q 168 868 172 872 l 65 783 l 19 828 l 250 1063 z "},"ˇ":{"ha":500,"x_min":19,"x_max":481,"o":"m 65 1063 l 168 978 q 250 918 174 974 l 332 978 l 435 1063 l 481 1018 l 250 783 l 19 1018 l 65 1063 z "},"˘":{"ha":500,"x_min":57,"x_max":443,"o":"m 365 1010 l 443 1010 q 393 865 443 915 q 250 815 343 815 q 107 865 157 815 q 57 1010 57 915 l 135 1010 q 167 925 135 957 q 250 893 199 893 q 333 925 301 893 q 365 1010 365 957 z "},"˙":{"ha":500,"x_min":168,"x_max":332,"o":"m 190 975 q 200 988 190 975 q 250 1000 211 1000 q 310 976 289 1000 q 332 911 332 953 q 310 845 332 869 q 250 821 289 821 q 190 845 211 821 q 168 910 168 869 q 190 975 168 950 z "},"˚":{"ha":500,"x_min":125,"x_max":374,"o":"m 157 1011 q 173 1027 157 1011 q 250 1043 189 1043 q 342 1011 311 1043 q 374 924 374 979 q 342 838 374 869 q 250 806 311 806 q 157 838 189 806 q 125 924 125 869 q 157 1011 125 979 m 308 924 q 308 957 308 924 q 251 990 308 990 q 193 924 193 990 q 251 858 193 858 q 308 924 308 858 z "},"˛":{"ha":500,"x_min":229,"x_max":492,"o":"m 318 -150 q 394 -215 318 -215 q 472 -197 431 -215 l 492 -243 q 367 -274 426 -274 q 268 -242 307 -274 q 229 -159 229 -211 q 253 -73 229 -107 q 344 18 278 -39 l 407 18 q 343 -66 368 -19 q 318 -150 318 -112 z "},"˜":{"ha":500,"x_min":24,"x_max":476,"o":"m 458 937 q 453 925 458 937 q 417 876 447 914 q 360 839 386 839 q 254 867 333 839 q 153 896 175 896 q 83 839 115 896 l 74 821 l 24 850 q 42 889 31 865 q 83 951 53 913 q 139 990 113 990 q 245 962 165 990 q 347 933 325 933 q 417 986 383 933 l 426 1004 l 476 975 q 458 937 469 960 z "},"˝":{"ha":500,"x_min":-24,"x_max":590,"o":"m 522 1063 l 590 976 q 404 868 426 883 l 301 783 l 256 840 l 522 1063 m 243 1063 l 311 976 q 125 868 147 883 l 22 783 l -24 840 l 243 1063 z "},"̃":{"ha":500,"x_min":24,"x_max":476,"o":"m 458 937 q 453 925 458 937 q 417 876 447 914 q 360 839 386 839 q 254 867 333 839 q 153 896 175 896 q 83 839 115 896 l 74 821 l 24 850 q 42 889 31 865 q 83 951 53 913 q 139 990 113 990 q 245 962 165 990 q 347 933 325 933 q 417 986 383 933 l 426 1004 l 476 975 q 458 937 469 960 z "},"̣":{"ha":500,"x_min":168,"x_max":332,"o":"m 190 -124 q 200 -111 190 -124 q 250 -99 211 -99 q 310 -122 289 -99 q 332 -187 332 -146 q 310 -253 332 -229 q 250 -278 289 -278 q 190 -253 211 -278 q 168 -189 168 -229 q 190 -124 168 -149 z "},"Δ":{"ha":944,"x_min":35,"x_max":910,"o":"m 876 -21 l 74 -21 l 35 69 q 126 231 114 192 l 426 976 l 501 994 q 847 189 835 219 l 910 74 l 876 -21 m 164 64 q 351 61 278 61 q 746 69 424 61 q 713 186 725 153 l 446 813 l 190 164 q 164 64 174 97 z "},"Ω":{"ha":1103,"x_min":35,"x_max":1068,"o":"m 110 531 q 225 874 110 747 q 551 1000 340 1000 q 878 874 763 1000 q 993 531 993 747 q 714 92 993 203 l 714 74 l 821 79 q 942 92 872 79 q 971 143 967 126 q 992 236 988 208 l 1068 229 l 1047 10 l 1033 -6 q 863 0 890 0 l 774 0 l 643 -6 l 629 129 q 793 276 742 179 q 844 507 844 374 q 816 726 844 640 q 719 869 788 813 q 551 926 651 926 q 383 869 451 926 q 258 531 258 765 q 310 276 258 374 q 474 129 361 179 l 460 -6 q 329 0 385 0 l 240 0 l 69 -6 l 56 10 l 35 229 l 111 236 q 132 143 115 208 q 161 92 136 126 q 282 79 231 79 l 389 74 l 389 92 q 110 531 110 203 z "},"π":{"ha":844,"x_min":-14,"x_max":800,"o":"m 138 714 l 651 690 q 733 729 681 690 l 751 742 l 800 689 q 726 610 775 653 q 653 568 678 568 q 647 494 647 536 l 644 232 q 658 102 644 136 q 732 38 672 68 l 706 -21 q 573 41 608 13 q 538 122 538 69 q 550 571 546 365 l 272 586 l 272 232 l 276 32 q 276 6 276 15 l 264 -6 q 183 0 218 0 l 153 0 l 140 11 q 168 190 167 163 q 183 590 176 393 q 146 592 165 592 q 58 542 110 592 l 42 524 l -14 569 q 67 669 22 624 q 138 714 113 714 z "},"Ẁ":{"ha":1404,"x_min":1,"x_max":1401,"o":"m 1401 918 l 1307 894 q 1243 757 1260 811 l 1015 0 l 931 0 l 699 703 l 488 0 l 403 0 l 149 772 q 103 874 133 822 l 93 890 l 1 904 l 8 979 l 160 979 l 364 986 l 369 918 l 260 890 q 297 740 276 811 l 457 206 l 676 951 l 750 951 l 985 206 l 1156 803 l 1171 890 l 1065 904 l 1072 979 l 1197 979 l 1396 986 l 1401 918 m 494 1146 l 536 1247 l 854 1108 l 826 1042 l 704 1093 l 494 1146 z "},"ẁ":{"ha":1111,"x_min":8,"x_max":1106,"o":"m 814 690 q 956 686 917 686 q 1086 692 1053 686 l 1101 693 l 1106 613 l 1043 604 q 974 443 1000 508 l 814 0 l 719 0 l 556 465 l 397 0 l 304 0 q 117 492 133 447 q 65 603 101 538 l 8 618 l 15 690 q 111 686 83 686 l 319 693 l 324 613 l 213 603 q 246 485 239 503 l 365 143 l 542 686 l 596 686 l 782 143 l 897 488 q 925 603 903 503 l 807 618 l 814 690 m 685 840 l 639 783 l 538 867 l 369 965 l 435 1049 l 685 840 z "},"Ẃ":{"ha":1404,"x_min":1,"x_max":1401,"o":"m 1401 918 l 1307 894 q 1243 757 1260 811 l 1015 0 l 931 0 l 699 703 l 488 0 l 403 0 l 149 772 q 103 874 133 822 l 93 890 l 1 904 l 8 979 l 160 979 l 364 986 l 369 918 l 260 890 q 297 740 276 811 l 457 206 l 676 951 l 750 951 l 985 206 l 1156 803 l 1171 890 l 1065 904 l 1072 979 l 1197 979 l 1396 986 l 1401 918 m 868 1247 l 910 1146 q 700 1093 726 1101 l 578 1042 l 550 1108 l 868 1247 z "},"ẃ":{"ha":1111,"x_min":8,"x_max":1106,"o":"m 814 690 q 956 686 917 686 q 1086 692 1053 686 l 1101 693 l 1106 613 l 1043 604 q 974 443 1000 508 l 814 0 l 719 0 l 556 465 l 397 0 l 304 0 q 117 492 133 447 q 65 603 101 538 l 8 618 l 15 690 q 111 686 83 686 l 319 693 l 324 613 l 213 603 q 246 485 239 503 l 365 143 l 542 686 l 596 686 l 782 143 l 897 488 q 925 603 903 503 l 807 618 l 814 690 m 675 1049 l 740 965 q 572 867 593 882 l 471 783 l 425 840 l 675 1049 z "},"Ẅ":{"ha":1404,"x_min":1,"x_max":1401,"o":"m 1401 918 l 1307 894 q 1243 757 1260 811 l 1015 0 l 931 0 l 699 703 l 488 0 l 403 0 l 149 772 q 103 874 133 822 l 93 890 l 1 904 l 8 979 l 160 979 l 364 986 l 369 918 l 260 890 q 297 740 276 811 l 457 206 l 676 951 l 750 951 l 985 206 l 1156 803 l 1171 890 l 1065 904 l 1072 979 l 1197 979 l 1396 986 l 1401 918 m 867 1228 q 942 1145 942 1228 q 867 1063 942 1063 q 792 1144 792 1063 q 811 1206 792 1183 q 867 1228 831 1228 m 539 1228 q 614 1145 614 1228 q 539 1063 614 1063 q 464 1144 464 1063 q 483 1206 464 1183 q 539 1228 503 1228 z "},"ẅ":{"ha":1111,"x_min":8,"x_max":1106,"o":"m 814 690 q 956 686 917 686 q 1086 692 1053 686 l 1101 693 l 1106 613 l 1043 604 q 974 443 1000 508 l 814 0 l 719 0 l 556 465 l 397 0 l 304 0 q 117 492 133 447 q 65 603 101 538 l 8 618 l 15 690 q 111 686 83 686 l 319 693 l 324 613 l 213 603 q 246 485 239 503 l 365 143 l 542 686 l 596 686 l 782 143 l 897 488 q 925 603 903 503 l 807 618 l 814 690 m 719 990 q 794 908 794 990 q 719 825 794 825 q 644 907 644 825 q 664 968 644 946 q 719 990 683 990 m 392 990 q 467 908 467 990 q 392 825 467 825 q 317 907 317 825 q 336 968 317 946 q 392 990 356 990 z "},"Ẽ":{"ha":817,"x_min":58,"x_max":764,"o":"m 229 979 l 540 979 l 699 993 l 725 968 l 735 779 l 654 772 q 644 833 650 806 q 611 894 638 861 q 499 901 535 901 l 317 901 q 307 747 307 799 l 307 550 q 367 547 354 547 l 468 547 l 551 560 l 564 651 l 628 644 q 626 528 626 556 l 631 376 l 564 368 l 551 461 q 440 469 468 469 l 367 469 q 307 465 342 469 l 307 232 q 317 79 307 172 l 517 79 q 638 92 569 79 q 666 138 664 128 q 677 186 668 149 q 688 236 686 224 l 764 229 l 743 19 l 717 -6 q 558 0 586 0 l 229 0 l 65 -7 l 58 63 l 168 85 q 181 190 181 167 l 181 789 q 168 894 181 814 l 61 911 l 68 986 q 229 979 201 979 m 617 1180 q 611 1168 617 1180 q 575 1119 606 1157 q 518 1082 544 1082 q 413 1110 492 1082 q 311 1139 333 1139 q 242 1083 274 1139 l 232 1064 l 182 1093 q 200 1132 189 1108 q 241 1194 211 1156 q 297 1233 271 1233 q 403 1205 324 1233 q 506 1176 483 1176 q 575 1229 544 1176 l 585 1247 l 635 1218 q 617 1180 628 1203 z "},"ẽ":{"ha":664,"x_min":56,"x_max":625,"o":"m 358 699 q 625 375 625 699 l 601 329 l 186 329 q 238 151 189 226 q 375 76 288 76 q 479 91 428 76 q 556 119 531 106 l 582 133 l 621 69 q 592 46 611 60 q 508 9 572 32 q 375 -14 444 -14 q 138 83 221 -14 q 56 341 56 179 q 133 601 56 503 q 358 699 210 699 m 353 626 q 188 399 207 626 l 496 422 q 497 450 497 443 q 460 577 497 528 q 353 626 424 626 m 571 937 q 565 925 571 937 q 529 876 560 914 q 472 839 499 839 q 367 867 446 839 q 265 896 288 896 q 224 877 243 896 q 196 839 206 858 l 186 821 l 136 850 q 154 889 143 865 q 195 951 165 913 q 251 990 225 990 q 358 962 278 990 q 460 933 438 933 q 501 951 482 933 q 529 986 519 969 l 539 1004 l 589 975 q 571 937 582 960 z "},"Ỳ":{"ha":921,"x_min":8,"x_max":896,"o":"m 519 232 q 529 85 519 153 l 654 75 l 644 -7 q 442 0 553 0 l 278 -7 l 271 63 l 381 85 q 393 190 393 165 l 393 357 l 178 772 q 114 874 151 826 l 100 890 l 8 904 l 15 979 l 167 979 l 371 986 l 376 918 l 267 890 q 326 740 282 822 l 467 478 l 626 803 l 665 890 l 560 904 l 567 979 l 692 979 l 890 986 l 896 918 l 801 894 q 714 757 751 829 l 519 379 l 519 232 m 253 1146 l 294 1247 l 613 1108 l 585 1042 l 463 1093 l 253 1146 z "},"ỳ":{"ha":749,"x_min":0,"x_max":736,"o":"m 388 144 l 508 467 q 546 601 528 521 l 444 618 l 451 690 q 572 686 544 686 l 732 693 l 736 613 l 663 601 q 590 443 613 500 l 304 -326 l 81 -311 l 92 -231 l 147 -232 q 240 -218 167 -232 q 293 -124 275 -169 l 338 0 l 139 463 q 68 601 118 514 l 0 618 l 7 690 q 121 686 93 686 l 311 693 l 315 613 l 215 603 q 250 485 233 524 l 388 144 m 504 840 l 458 783 l 357 867 l 189 965 l 254 1049 l 504 840 z "},"Ỹ":{"ha":921,"x_min":8,"x_max":896,"o":"m 519 232 q 529 85 519 153 l 654 75 l 644 -7 q 442 0 553 0 l 278 -7 l 271 63 l 381 85 q 393 190 393 165 l 393 357 l 178 772 q 114 874 151 826 l 100 890 l 8 904 l 15 979 l 167 979 l 371 986 l 376 918 l 267 890 q 326 740 282 822 l 467 478 l 626 803 l 665 890 l 560 904 l 567 979 l 692 979 l 890 986 l 896 918 l 801 894 q 714 757 751 829 l 519 379 l 519 232 m 647 1158 q 642 1146 647 1158 q 606 1097 636 1135 q 549 1060 575 1060 q 436 1088 522 1060 q 328 1117 350 1117 q 258 1061 290 1117 l 249 1042 l 199 1071 q 217 1110 206 1086 q 258 1172 228 1133 q 314 1211 288 1211 q 427 1183 340 1211 q 536 1154 514 1154 q 606 1207 575 1154 l 615 1225 l 665 1196 q 647 1158 658 1181 z "},"ỹ":{"ha":749,"x_min":0,"x_max":736,"o":"m 388 144 l 508 467 q 546 601 528 521 l 444 618 l 451 690 q 572 686 544 686 l 732 693 l 736 613 l 663 601 q 590 443 613 500 l 304 -326 l 81 -311 l 92 -231 l 147 -232 q 240 -218 167 -232 q 293 -124 275 -169 l 338 0 l 139 463 q 68 601 118 514 l 0 618 l 7 690 q 121 686 93 686 l 311 693 l 315 613 l 215 603 q 250 485 233 524 l 388 144 m 556 937 q 550 925 556 937 q 514 876 544 914 q 457 839 483 839 q 351 867 431 839 q 250 896 272 896 q 181 839 213 896 l 171 821 l 121 850 q 139 889 128 865 q 180 951 150 913 q 236 990 210 990 q 342 962 263 990 q 444 933 422 933 q 514 986 481 933 l 524 1004 l 574 975 q 556 937 567 960 z "},"–":{"ha":700,"x_min":0,"x_max":700,"o":"m 3 300 l 0 404 l 700 404 l 693 300 l 3 300 z "},"—":{"ha":1397,"x_min":0,"x_max":1397,"o":"m 3 300 l 0 404 l 1397 404 l 1390 300 l 3 300 z "},"‘":{"ha":267,"x_min":40,"x_max":231,"o":"m 135 904 q 196 879 172 904 q 219 816 219 854 q 194 749 219 778 q 128 721 168 721 q 64 755 88 721 q 40 838 40 789 q 89 983 40 915 q 221 1069 138 1051 l 231 1036 q 135 904 135 994 z "},"’":{"ha":267,"x_min":36,"x_max":226,"o":"m 132 886 q 71 911 94 886 q 47 974 47 936 q 73 1041 47 1013 q 139 1069 99 1069 q 203 1035 179 1069 q 226 953 226 1001 q 178 807 226 875 q 46 721 129 739 l 36 754 q 132 886 132 796 z "},"‚":{"ha":300,"x_min":47,"x_max":238,"o":"m 143 -14 q 82 11 106 -14 q 58 74 58 36 q 84 141 58 113 q 150 169 110 169 q 214 135 190 169 q 238 53 238 101 q 189 -93 238 -25 q 57 -179 140 -161 l 47 -146 q 143 -14 143 -104 z "},"“":{"ha":500,"x_min":49,"x_max":461,"o":"m 143 904 q 204 879 181 904 q 228 816 228 854 q 202 749 228 778 q 136 721 176 721 q 72 755 96 721 q 49 838 49 789 q 97 983 49 915 q 229 1069 146 1051 l 239 1036 q 143 904 143 994 m 365 904 q 426 879 403 904 q 450 816 450 854 q 424 749 450 778 q 358 721 399 721 q 294 755 318 721 q 271 838 271 789 q 319 983 271 915 q 451 1069 368 1051 l 461 1036 q 365 904 365 994 z "},"”":{"ha":514,"x_min":50,"x_max":464,"o":"m 146 879 q 85 904 108 879 q 61 967 61 929 q 87 1034 61 1006 q 153 1063 113 1063 q 217 1028 193 1063 q 240 946 240 994 q 192 800 240 868 q 60 714 143 732 l 50 747 q 146 879 146 789 m 369 879 q 308 904 332 879 q 285 967 285 929 q 310 1034 285 1006 q 376 1063 336 1063 q 440 1028 417 1063 q 464 946 464 994 q 415 800 464 868 q 283 714 367 732 l 274 747 q 369 879 369 789 z "},"„":{"ha":524,"x_min":47,"x_max":461,"o":"m 143 -14 q 82 11 106 -14 q 58 74 58 36 q 84 141 58 113 q 150 169 110 169 q 214 135 190 169 q 238 53 238 101 q 189 -93 238 -25 q 57 -179 140 -161 l 47 -146 q 143 -14 143 -104 m 367 -14 q 306 11 329 -14 q 282 74 282 36 q 308 141 282 113 q 374 169 333 169 q 438 135 414 169 q 461 53 461 101 q 413 -93 461 -25 q 281 -179 364 -161 l 271 -146 q 367 -14 367 -104 z "},"†":{"ha":700,"x_min":29,"x_max":671,"o":"m 385 714 l 315 714 l 269 1042 l 278 1050 l 400 1064 l 431 1039 q 385 714 385 783 m 315 588 l 385 588 l 431 -117 l 422 -125 l 300 -139 l 269 -114 q 315 588 315 518 m 288 686 l 288 615 l 51 589 l 43 597 l 29 681 l 54 707 q 288 686 200 692 m 413 615 l 413 686 l 649 713 l 657 704 l 671 621 l 646 594 q 413 615 500 610 z "},"‡":{"ha":700,"x_min":29,"x_max":671,"o":"m 315 310 l 385 310 l 431 -117 l 422 -125 l 300 -139 l 269 -114 q 315 310 315 240 m 385 714 l 315 714 l 269 1042 l 278 1050 l 400 1064 l 431 1039 q 385 714 385 783 m 413 615 l 413 686 l 649 713 l 657 704 l 671 621 l 646 594 q 413 615 500 610 m 288 686 l 288 615 l 51 589 l 43 597 l 29 681 l 54 707 q 288 686 200 692 m 413 338 l 413 408 l 593 435 l 601 426 l 615 343 l 590 317 q 413 338 500 332 m 288 408 l 288 338 l 107 311 l 99 319 l 85 403 l 110 429 q 288 408 200 414 m 385 435 l 315 435 l 315 588 l 385 588 l 385 435 z "},"•":{"ha":319,"x_min":49,"x_max":271,"o":"m 78 439 q 92 456 78 439 q 160 472 107 472 q 242 440 213 472 q 271 353 271 408 q 242 265 271 297 q 160 232 213 232 q 78 265 107 232 q 49 351 49 297 q 78 439 49 406 z "},"․":{"ha":296,"x_min":56,"x_max":233,"o":"m 79 152 q 91 166 79 152 q 144 179 103 179 q 210 153 186 179 q 233 83 233 128 q 210 13 233 39 q 144 -14 186 -14 q 79 13 103 -14 q 56 82 56 39 q 79 152 56 125 z "},"‥":{"ha":563,"x_min":56,"x_max":500,"o":"m 78 149 q 89 162 78 149 q 140 175 100 175 q 203 150 181 175 q 225 83 225 125 q 203 15 225 40 q 140 -10 181 -10 q 78 15 100 -10 q 56 82 56 40 q 78 149 56 124 m 353 149 q 364 162 353 149 q 415 175 375 175 q 478 150 456 175 q 500 83 500 125 q 478 15 500 40 q 415 -10 456 -10 q 353 15 375 -10 q 331 82 331 40 q 353 149 331 124 z "},"…":{"ha":838,"x_min":56,"x_max":775,"o":"m 78 149 q 89 162 78 149 q 140 175 100 175 q 203 150 181 175 q 225 83 225 125 q 203 15 225 40 q 140 -10 181 -10 q 78 15 100 -10 q 56 82 56 40 q 78 149 56 124 m 353 149 q 364 162 353 149 q 415 175 375 175 q 478 150 456 175 q 500 83 500 125 q 478 15 500 40 q 415 -10 456 -10 q 353 15 375 -10 q 331 82 331 40 q 353 149 331 124 m 628 149 q 639 162 628 149 q 690 175 650 175 q 753 150 731 175 q 775 83 775 125 q 753 15 775 40 q 690 -10 731 -10 q 628 15 650 -10 q 606 82 606 40 q 628 149 606 124 z "},"‰":{"ha":1563,"x_min":57,"x_max":1476,"o":"m 271 -68 l 200 -24 l 803 1001 l 872 957 l 271 -68 m 474 685 l 474 683 q 419 511 474 579 q 265 443 364 443 q 112 511 167 443 q 57 684 57 579 q 112 857 57 789 q 265 925 167 925 q 419 857 364 925 q 474 685 474 789 m 265 851 q 238 851 265 851 q 185 803 210 851 q 161 684 161 754 q 185 565 161 614 q 265 517 210 517 q 345 565 321 517 q 369 684 369 614 q 345 803 369 754 q 265 851 321 851 m 1004 226 l 1004 225 q 949 53 1004 121 q 796 -15 894 -15 q 642 53 697 -15 q 588 226 588 121 q 642 399 588 331 q 796 467 697 467 q 949 399 894 467 q 1004 226 1004 331 m 796 393 q 768 393 796 393 q 716 344 740 393 q 692 226 692 296 q 716 107 692 156 q 796 58 740 58 q 876 107 851 58 q 900 226 900 156 q 876 344 900 296 q 796 393 851 393 m 1476 226 l 1476 225 q 1422 53 1476 121 q 1268 -15 1367 -15 q 1115 53 1169 -15 q 1060 226 1060 121 q 1115 399 1060 331 q 1268 467 1169 467 q 1422 399 1367 467 q 1476 226 1476 331 m 1268 393 q 1240 393 1268 393 q 1188 344 1213 393 q 1164 226 1164 296 q 1188 107 1164 156 q 1268 58 1213 58 q 1348 107 1324 58 q 1372 226 1372 156 q 1348 344 1372 296 q 1268 393 1324 393 z "},"‹":{"ha":357,"x_min":35,"x_max":299,"o":"m 35 336 l 247 644 l 299 610 l 150 336 l 299 63 l 247 28 l 35 336 z "},"›":{"ha":357,"x_min":58,"x_max":322,"o":"m 322 335 l 110 26 l 58 61 l 206 335 l 58 608 l 110 643 l 322 335 z "},"⁄":{"ha":83,"x_min":-308,"x_max":364,"o":"m 294 1001 l 364 957 l -237 -68 l -308 -24 l 294 1001 z "},"⁰":{"ha":507,"x_min":38,"x_max":469,"o":"m 90 697 q 64 736 90 697 q 38 901 38 776 q 90 1106 38 1026 q 253 1186 143 1186 q 417 1106 364 1186 q 469 901 469 1026 q 417 697 469 776 q 253 617 364 617 q 90 697 143 617 m 253 679 q 303 679 253 679 q 353 901 353 679 q 253 1122 353 1122 q 154 901 154 1122 q 253 679 154 679 z "},"⁴":{"ha":483,"x_min":13,"x_max":442,"o":"m 269 850 l 269 949 l 361 982 l 361 857 l 442 861 l 442 786 l 361 786 l 361 763 q 365 710 361 728 q 368 692 368 693 l 432 686 l 426 621 q 283 625 367 625 l 175 621 l 171 679 l 261 692 q 269 753 269 717 l 269 786 l 65 786 l 13 850 l 319 1251 l 394 1192 q 283 1075 297 1094 l 121 850 l 269 850 z "},"⁵":{"ha":421,"x_min":43,"x_max":385,"o":"m 208 1085 l 139 1085 q 131 933 135 1006 q 203 939 157 939 q 336 897 288 939 q 385 779 385 856 q 299 619 385 681 q 60 536 214 557 l 43 590 q 278 765 278 633 q 248 843 278 815 q 169 871 218 871 q 79 861 119 871 l 46 890 l 64 1163 l 81 1178 l 149 1178 l 358 1186 l 364 1099 q 208 1085 235 1085 z "},"⁶":{"ha":475,"x_min":38,"x_max":446,"o":"m 269 971 q 401 926 356 971 q 446 801 446 882 q 388 668 446 721 q 238 615 329 615 q 92 676 147 615 q 38 833 38 736 q 136 1103 38 979 q 415 1258 235 1226 l 426 1208 q 217 1060 283 1165 q 150 833 150 956 q 174 726 150 769 q 243 682 199 682 q 311 716 288 682 q 335 797 335 750 q 249 911 335 911 l 208 908 l 203 961 q 269 971 232 971 z "},"⁷":{"ha":449,"x_min":44,"x_max":442,"o":"m 174 1178 l 428 1178 l 442 1129 l 182 536 l 89 567 l 279 961 q 319 1086 304 1025 l 182 1086 q 122 1082 176 1086 l 110 1050 l 104 1008 l 44 1013 l 54 1168 l 69 1185 q 174 1178 154 1178 z "},"⁸":{"ha":469,"x_min":35,"x_max":433,"o":"m 54 1067 q 107 1166 54 1129 q 234 1203 160 1203 q 362 1166 308 1203 q 415 1065 415 1129 q 315 921 415 988 q 433 763 433 858 q 376 654 433 692 q 235 617 319 617 q 92 654 150 617 q 35 764 35 692 q 154 917 35 849 q 54 1067 54 975 m 140 764 q 166 697 140 722 q 234 672 192 672 q 303 696 276 672 q 329 754 329 719 q 311 813 329 789 q 273 850 293 836 q 215 883 253 864 q 140 764 140 829 m 314 1065 q 291 1124 314 1101 q 235 1147 268 1147 q 179 1124 203 1147 q 156 1064 156 1101 q 181 1003 156 1026 q 258 950 206 979 q 314 1065 314 1006 z "},"⁹":{"ha":476,"x_min":29,"x_max":439,"o":"m 211 831 q 78 876 128 831 q 29 1001 29 922 q 88 1133 29 1081 q 238 1186 146 1186 q 384 1126 329 1186 q 439 967 439 1065 q 343 694 439 818 q 67 535 247 569 l 51 588 q 219 683 154 617 q 304 817 283 749 q 325 958 325 886 q 301 1076 325 1031 q 231 1121 276 1121 q 165 1087 186 1121 q 143 1004 143 1053 q 167 923 143 956 q 223 890 192 890 q 268 893 254 890 l 274 840 q 211 831 247 831 z "},"ⁿ":{"ha":549,"x_min":28,"x_max":536,"o":"m 324 1051 q 468 883 468 1051 l 468 779 l 475 685 l 536 679 l 532 621 q 396 625 481 625 l 315 621 l 311 674 l 364 685 q 369 754 369 735 l 369 876 q 296 981 369 981 q 227 946 254 981 q 199 853 200 911 l 199 779 l 207 685 l 267 679 l 263 621 q 126 625 211 625 l 36 621 l 32 674 l 93 685 q 101 753 100 735 l 101 910 l 92 981 l 28 994 l 33 1050 q 125 1043 97 1043 l 161 1044 l 179 1029 l 186 971 q 324 1051 240 1051 z "},"₀":{"ha":536,"x_min":46,"x_max":490,"o":"m 269 -147 q 212 -147 269 -147 q 101 -65 156 -147 q 46 147 46 18 q 101 358 46 275 q 269 440 156 440 q 436 358 382 440 q 490 146 490 275 q 436 -65 490 17 q 269 -147 382 -147 m 269 -83 q 321 -83 269 -83 q 374 147 374 -83 q 269 376 374 376 q 164 147 164 376 q 269 -83 164 -83 z "},"₁":{"ha":388,"x_min":40,"x_max":344,"o":"m 169 -3 l 169 307 l 68 258 l 40 304 q 163 400 146 386 l 204 449 l 272 439 q 265 240 265 282 l 265 22 q 274 -72 265 -47 l 344 -78 l 339 -143 q 193 -139 279 -139 l 81 -143 l 76 -83 l 163 -72 l 167 -42 q 169 -3 169 -12 z "},"₂":{"ha":497,"x_min":38,"x_max":443,"o":"m 57 410 q 228 440 138 440 q 367 401 318 440 q 417 292 417 363 q 365 153 417 221 q 158 -54 314 85 l 290 -54 q 368 -46 310 -54 q 379 -10 379 -19 l 385 25 l 443 21 l 436 -125 l 414 -142 q 317 -139 335 -139 l 50 -139 l 38 -64 q 256 161 206 97 q 306 274 306 225 q 281 348 306 324 q 214 372 257 372 q 132 350 171 372 q 124 300 124 328 l 125 263 l 65 258 l 57 410 z "},"₃":{"ha":453,"x_min":28,"x_max":399,"o":"m 35 415 q 194 440 113 440 q 325 402 276 440 q 374 292 374 364 q 271 153 374 201 q 363 101 328 139 q 399 11 399 63 q 299 -149 399 -81 q 44 -231 200 -217 l 28 -176 q 213 -110 143 -160 q 282 6 282 -60 q 254 79 282 53 q 176 106 226 106 l 118 103 l 106 156 q 264 289 264 178 q 242 355 264 332 q 183 378 221 378 q 113 363 146 378 q 104 321 104 328 l 106 281 l 46 278 l 35 415 z "},"₄":{"ha":510,"x_min":19,"x_max":460,"o":"m 286 92 l 286 190 l 378 224 l 378 99 l 460 103 l 460 28 l 378 28 l 378 -1 q 381 -53 378 -36 q 385 -72 385 -71 l 451 -78 l 446 -143 q 300 -139 383 -139 l 188 -143 l 183 -85 l 278 -72 q 286 -11 286 -47 l 286 28 l 72 28 l 19 92 l 336 508 l 411 449 q 301 332 315 351 l 128 92 l 286 92 z "},"₅":{"ha":447,"x_min":51,"x_max":400,"o":"m 224 339 l 149 339 q 140 182 144 257 q 218 189 172 189 q 351 146 303 189 q 400 24 400 103 q 313 -144 400 -78 q 74 -231 225 -210 l 51 -176 q 230 -113 167 -161 q 293 7 293 -65 q 263 87 293 58 q 181 115 233 115 q 89 106 129 115 l 56 136 l 74 417 l 90 432 l 158 432 l 374 440 l 379 353 q 224 339 250 339 z "},"₆":{"ha":503,"x_min":47,"x_max":464,"o":"m 283 217 q 417 172 369 217 q 464 46 464 128 q 407 -92 464 -36 q 254 -149 350 -149 q 103 -87 158 -149 q 47 74 47 -25 q 136 338 47 213 q 258 448 181 400 q 435 515 335 496 l 447 465 q 310 397 368 442 q 219 296 251 351 q 160 69 160 189 q 185 -37 160 7 q 258 -82 211 -82 q 329 -44 306 -82 q 353 43 353 -7 q 263 157 353 157 l 222 154 l 217 207 q 283 217 246 217 z "},"₇":{"ha":478,"x_min":54,"x_max":463,"o":"m 188 432 l 447 432 l 463 383 l 194 -231 l 101 -200 l 297 211 q 338 340 321 260 l 196 340 q 133 336 188 340 q 119 303 121 308 l 114 261 l 54 264 l 64 422 l 81 439 q 188 432 167 432 z "},"₈":{"ha":497,"x_min":43,"x_max":453,"o":"m 63 317 q 117 419 63 381 q 248 458 172 458 q 378 419 324 458 q 433 315 433 381 q 328 167 433 233 q 453 3 453 100 q 394 -109 453 -71 q 248 -147 335 -147 q 102 -109 161 -147 q 43 4 43 -71 q 167 161 43 92 q 63 317 63 222 m 149 4 q 176 -65 149 -39 q 248 -92 204 -92 q 319 -66 292 -92 q 347 -8 347 -40 q 339 42 347 24 q 310 76 331 60 q 226 129 276 103 q 149 4 149 69 m 332 315 q 308 377 332 353 q 250 401 285 401 q 190 378 215 401 q 165 315 165 354 q 192 250 165 276 q 272 196 218 224 q 332 315 332 253 z "},"₉":{"ha":504,"x_min":38,"x_max":458,"o":"m 225 74 q 89 122 140 74 q 38 251 38 169 q 97 386 38 332 q 250 440 156 440 q 401 378 344 440 q 458 214 458 315 q 360 -68 458 61 q 75 -232 261 -197 l 60 -179 q 286 -12 222 -132 q 343 214 343 92 q 317 327 343 279 q 244 375 292 375 q 174 339 197 375 q 151 253 151 303 q 176 169 151 203 q 233 135 201 135 q 285 138 265 135 l 290 85 q 225 74 264 74 z "},"€":{"ha":957,"x_min":63,"x_max":908,"o":"m 196 449 l 196 482 l 65 476 l 63 525 l 200 531 q 328 815 221 711 q 618 919 435 919 q 896 872 715 919 l 881 667 l 796 675 l 796 738 q 782 807 796 751 q 619 839 692 839 q 435 756 504 839 q 350 538 367 674 l 632 550 l 635 503 l 344 489 l 344 450 q 347 389 344 428 l 639 403 l 642 356 l 353 342 q 441 136 372 213 q 621 60 510 60 q 794 90 703 60 q 813 168 813 150 l 815 233 l 900 236 l 908 26 q 618 -21 725 -21 q 336 74 442 -21 q 204 335 231 168 l 72 329 l 69 378 l 199 383 q 196 449 196 404 z "},"™":{"ha":725,"x_min":4,"x_max":722,"o":"m 397 731 l 399 692 l 429 688 l 426 653 q 354 656 407 656 l 308 653 l 307 685 l 338 692 l 344 717 l 356 917 q 353 942 356 928 l 324 947 l 325 982 q 374 978 351 981 l 442 978 l 451 971 q 471 900 465 919 l 517 760 l 565 908 l 583 971 l 593 981 l 642 981 l 701 982 l 703 947 l 674 942 l 674 917 l 688 717 q 694 692 693 696 l 722 688 l 721 653 q 638 656 688 656 l 590 653 l 589 685 l 618 692 q 621 731 621 711 l 613 890 l 531 656 l 486 656 l 407 890 l 397 731 m 210 940 l 186 940 q 182 906 182 915 l 182 746 q 186 693 182 710 l 215 690 l 213 653 q 121 656 175 656 l 76 653 l 74 686 l 103 693 q 107 732 107 706 l 107 886 q 103 940 107 915 l 83 940 q 46 938 65 940 q 44 932 44 935 q 39 896 39 917 l 4 897 l 8 975 l 17 985 q 69 981 60 981 l 221 981 l 272 985 l 282 975 l 285 897 l 251 896 q 247 928 251 907 q 243 938 244 931 q 210 940 229 940 z "},"℮":{"ha":1107,"x_min":56,"x_max":1079,"o":"m 250 432 q 243 426 243 432 l 243 175 q 256 146 243 161 q 576 11 382 11 q 899 163 769 11 l 974 163 q 796 31 903 79 q 568 -17 689 -17 q 206 118 357 -17 q 56 444 56 253 q 206 769 56 635 q 567 904 356 904 q 929 769 779 904 q 1079 443 1079 635 l 1079 432 l 250 432 m 893 717 q 879 747 893 733 q 568 876 750 876 q 257 743 386 876 q 243 711 243 729 l 243 464 q 250 457 243 457 l 886 457 q 893 464 893 457 l 893 717 z "},"∂":{"ha":767,"x_min":69,"x_max":697,"o":"m 358 919 q 201 883 292 919 l 179 944 q 365 1000 278 1000 q 519 958 453 1000 q 624 844 586 917 q 679 682 661 771 q 697 489 697 593 q 680 297 697 385 q 625 138 663 210 q 521 25 588 65 q 365 -15 454 -15 q 153 67 238 -15 q 69 276 69 149 q 150 481 69 403 q 360 560 231 560 q 497 533 428 560 l 489 467 q 372 478 411 478 q 249 417 297 478 q 201 272 201 357 q 244 125 201 186 q 365 64 286 64 q 467 103 425 64 q 529 210 508 143 q 567 489 567 329 q 528 772 567 646 q 358 919 482 919 z "},"∏":{"ha":778,"x_min":-14,"x_max":790,"o":"m 99 -317 l 99 874 l -14 874 l -14 978 l 790 978 l 790 881 l 679 879 l 679 -317 l 582 -317 l 575 878 l 196 875 l 203 -317 l 99 -317 z "},"∑":{"ha":778,"x_min":40,"x_max":714,"o":"m 714 -317 l 54 -317 l 40 -237 l 444 338 l 54 901 l 68 979 l 676 979 l 676 882 l 197 889 l 569 339 l 183 -226 l 714 -219 l 714 -317 z "},"−":{"ha":778,"x_min":74,"x_max":706,"o":"m 74 408 l 706 408 l 706 310 l 74 303 l 74 408 z "},"√":{"ha":897,"x_min":0,"x_max":876,"o":"m 525 54 l 775 1001 l 876 972 l 567 -125 l 483 -125 l 281 589 l 26 517 l 0 619 l 356 713 l 525 54 z "},"∞":{"ha":1042,"x_min":56,"x_max":986,"o":"m 521 361 q 422 235 475 279 q 272 192 368 192 q 116 272 176 192 q 56 466 56 353 q 117 660 56 579 q 282 742 178 742 q 519 571 415 742 q 619 697 565 653 q 769 740 674 740 q 926 660 865 740 q 986 466 986 579 q 925 272 986 353 q 760 190 864 190 q 521 361 625 190 m 282 621 q 167 576 214 621 q 121 469 121 532 q 167 359 121 406 q 276 313 214 313 q 403 372 353 313 q 486 506 440 415 l 486 507 q 282 621 392 621 m 579 471 q 567 448 579 471 q 555 425 556 425 q 554 424 554 425 q 760 311 647 311 q 874 356 828 311 q 921 463 921 400 q 874 573 921 526 q 765 619 828 619 q 639 560 689 619 q 579 471 603 517 z "},"∫":{"ha":778,"x_min":199,"x_max":621,"o":"m 429 756 q 459 349 429 664 q 489 -81 489 35 q 432 -262 489 -197 q 271 -326 375 -326 q 199 -314 232 -326 l 214 -240 q 271 -250 240 -250 q 390 -89 390 -250 q 360 317 390 3 q 331 748 331 632 q 388 928 331 864 q 549 993 444 993 q 621 981 588 993 l 606 907 q 549 917 579 917 q 429 756 429 917 z "},"≈":{"ha":778,"x_min":65,"x_max":713,"o":"m 644 181 q 635 171 644 181 q 603 146 626 161 q 549 131 581 131 q 388 172 518 131 q 231 214 257 214 q 136 156 186 214 l 121 138 l 65 183 q 94 227 72 196 q 133 278 117 258 q 224 328 179 328 q 395 286 268 328 q 549 244 522 244 q 642 303 592 244 l 657 321 l 713 275 q 683 231 706 263 q 644 181 661 200 m 644 417 q 635 407 644 417 q 603 382 626 397 q 549 367 581 367 q 388 408 518 367 q 231 450 257 450 q 136 392 186 450 l 121 374 l 65 419 q 94 463 71 432 q 133 514 117 494 q 224 564 179 564 q 395 522 268 564 q 549 481 522 481 q 642 539 592 481 l 657 557 l 713 511 q 683 467 706 499 q 644 417 661 436 z "},"≠":{"ha":778,"x_min":72,"x_max":704,"o":"m 704 165 l 354 165 l 267 -24 l 169 -7 l 249 165 l 72 165 l 72 257 l 293 258 l 372 429 l 72 426 l 72 525 l 417 525 l 503 711 l 600 694 l 521 525 l 704 525 l 704 433 l 478 431 l 399 260 l 704 264 l 704 165 z "},"≤":{"ha":778,"x_min":72,"x_max":704,"o":"m 704 0 l 72 0 l 72 92 l 704 99 l 704 0 m 139 465 l 569 792 l 632 707 l 304 465 l 633 224 l 569 139 l 139 465 z "},"≥":{"ha":778,"x_min":72,"x_max":704,"o":"m 704 0 l 72 0 l 72 92 l 704 99 l 704 0 m 633 465 l 203 139 l 140 224 l 468 465 l 139 707 l 203 792 l 633 465 z "},"◊":{"ha":778,"x_min":25,"x_max":753,"o":"m 389 792 l 753 394 l 389 3 l 25 394 l 389 792 m 389 153 l 615 396 l 389 642 l 163 396 l 389 153 z "},"ﬁ":{"ha":844,"x_min":50,"x_max":826,"o":"m 414 1069 q 499 1058 449 1069 l 515 1056 l 500 868 l 426 872 l 426 922 q 408 996 426 942 l 404 996 q 304 946 326 996 q 282 786 282 896 l 285 686 l 692 686 l 718 661 q 708 449 708 518 l 708 232 l 718 85 l 826 75 l 817 -7 q 638 0 749 0 l 483 -7 l 476 63 l 582 85 q 596 190 596 163 l 596 490 l 582 596 q 485 611 528 611 l 282 611 l 282 232 l 292 85 l 428 75 l 418 -7 q 211 0 322 0 l 57 -7 l 50 63 l 156 85 q 169 190 169 163 l 169 611 l 63 611 l 58 669 q 169 710 122 689 l 169 829 q 233 1005 169 940 q 414 1069 296 1069 m 578 975 q 589 988 578 975 q 639 1000 600 1000 q 699 976 678 1000 q 721 911 721 953 q 699 845 721 869 q 639 821 678 821 q 578 845 600 821 q 557 910 557 869 q 578 975 557 950 z "},"ﬂ":{"ha":856,"x_min":50,"x_max":826,"o":"m 596 190 l 596 854 q 581 972 596 881 q 432 996 486 996 q 353 985 378 996 q 314 959 328 975 q 292 914 300 943 q 282 786 282 872 l 285 686 l 476 686 l 469 611 l 282 611 l 282 232 l 292 85 l 428 75 l 418 -7 q 211 0 322 0 l 57 -7 l 50 63 l 156 85 q 169 190 169 163 l 169 611 l 63 611 l 58 669 q 97 681 71 674 q 169 710 144 694 l 169 829 q 233 1005 169 940 q 414 1069 296 1069 q 531 1060 458 1069 q 649 1050 603 1050 l 692 1050 l 718 1025 q 708 813 708 882 l 708 232 l 718 85 l 826 75 l 817 -7 q 624 0 735 0 l 483 -7 l 476 63 l 582 85 q 596 190 596 163 z "}}}
